<?xml version="1.0" encoding="UTF-8" standalone="no"?>
<!-- Created with Inkscape (http://www.inkscape.org/) -->

<svg
   version="1.1"
   id="svg2"
   width="257.33334"
   height="257.33334"
   viewBox="0 0 257.33334 257.33334"
   sodipodi:docname="bank-of-america-seeklogo.eps"
   xmlns:inkscape="http://www.inkscape.org/namespaces/inkscape"
   xmlns:sodipodi="http://sodipodi.sourceforge.net/DTD/sodipodi-0.dtd"
   xmlns="http://www.w3.org/2000/svg"
   xmlns:svg="http://www.w3.org/2000/svg">
  <defs
     id="defs6" />
  <sodipodi:namedview
     id="namedview4"
     pagecolor="#ffffff"
     bordercolor="#000000"
     borderopacity="0.25"
     inkscape:showpageshadow="2"
     inkscape:pageopacity="0.0"
     inkscape:pagecheckerboard="0"
     inkscape:deskcolor="#d1d1d1" />
  <g
     id="g8"
     inkscape:groupmode="layer"
     inkscape:label="ink_ext_XXXXXX"
     transform="matrix(1.3333333,0,0,-1.3333333,0,257.33333)">
    <g
       id="g10"
       transform="scale(0.1)">
      <path
         d="M 0,1927.56 H 1927.56 V 0 H 0 v 1927.56"
         style="fill:#ffffff;fill-opacity:1;fill-rule:evenodd;stroke:none"
         id="path12" />
      <path
         d="m 865.375,874.777 c 23.961,-9.32 47.926,-19.304 71.223,-30.621 -74.551,-29.953 -147.106,-65.898 -215.664,-107.168 -23.301,11.985 -47.262,23.965 -71.223,34.617 69.227,39.938 141.113,74.547 215.664,103.172"
         style="fill:#1a64b7;fill-opacity:1;fill-rule:evenodd;stroke:none"
         id="path14" />
      <path
         d="m 776.184,906.059 c -77.215,-24.629 -151.77,-56.579 -222.993,-95.18 22.633,-8.652 45.266,-17.313 67.235,-26.629 68.558,40.605 141.109,74.547 216.328,101.176 -19.969,7.32 -39.938,14.64 -60.57,20.633"
         style="fill:#1a64b7;fill-opacity:1;fill-rule:evenodd;stroke:none"
         id="path16" />
      <path
         d="m 1337.3,759.621 c 1.34,-3.996 4.66,-5.324 7.99,-5.324 2,0 4,0 5.33,1.328 0.67,0.668 1.33,2 1.33,3.332 0,2.66 -2,3.992 -4.66,3.992 l -4.66,1.332 c -1.33,0.668 -3.33,0.668 -4.66,1.996 -1.33,1.332 -2,3.328 -2,5.328 0,5.325 4.67,7.321 9.32,7.321 4,0 7.99,-1.996 9.32,-6.656 l -3.32,-0.665 c 0,2.661 -3.33,4.657 -6.66,4.657 -2,0 -5.33,-1.332 -5.33,-3.992 0,-3.329 2,-3.993 4.66,-4.661 l 4,-0.668 c 1.99,-0.664 3.99,-1.328 5.32,-1.992 1.33,-2 2,-3.332 2,-5.992 0,-1.996 -0.67,-4.66 -2.66,-5.988 -2,-1.336 -4.66,-2 -7.33,-2 -5.32,0 -8.65,2.668 -10.65,7.988 l 2.66,0.664"
         style="fill:#ee2223;fill-opacity:1;fill-rule:evenodd;stroke:none"
         id="path18" />
      <path
         d="m 1363.27,751.633 h -2.66 v 26.625 h 4.65 l 8.65,-21.297 7.33,21.297 h 5.32 v -26.625 h -3.33 v 23.297 0 l -8.65,-23.297 h -2.66 l -8.65,23.297 v 0 -23.297"
         style="fill:#ee2223;fill-opacity:1;fill-rule:evenodd;stroke:none"
         id="path20" />
      <path
         d="m 1027.12,878.102 c -61.237,29.289 -124.468,53.918 -189.034,73.89 -23.297,-6.66 -45.93,-13.98 -67.895,-21.304 66.563,-19.969 131.793,-45.262 194.364,-75.215 20.633,7.992 41.265,15.312 62.565,22.629"
         style="fill:#ee2223;fill-opacity:1;fill-rule:evenodd;stroke:none"
         id="path22" />
      <path
         d="m 1126.3,907.391 c -61.91,27.293 -126.468,49.922 -192.366,67.894 -21.301,-3.992 -41.938,-8.652 -62.567,-13.976 65.231,-19.301 129.133,-43.266 190.363,-72.555 21.31,6.656 43.27,13.312 64.57,18.637"
         style="fill:#ee2223;fill-opacity:1;fill-rule:evenodd;stroke:none"
         id="path24" />
      <path
         d="M 1286.05,854.141 C 1129.63,801.555 983.191,726.34 850.73,632.484 c 33.282,-20.632 65.231,-41.929 96.516,-65.23 125.144,99.18 264.254,181.719 413.364,244.289 -24.64,15.309 -49.26,29.285 -74.56,42.598"
         style="fill:#ee2223;fill-opacity:1;fill-rule:evenodd;stroke:none"
         id="path26" />
      <path
         d="M 1178.21,904.727 C 1015.8,862.129 863.379,792.906 725.59,701.043 c 30.621,-15.305 61.242,-31.281 91.195,-48.586 135.121,93.188 284.885,166.406 444.645,214.328 -27.3,13.317 -54.59,26.629 -83.22,37.942"
         style="fill:#ee2223;fill-opacity:1;fill-rule:evenodd;stroke:none"
         id="path28" />
      <path
         d="m 731.582,1222.23 c 39.273,0 59.242,-29.28 59.242,-68.55 0,-40.61 -19.304,-69.23 -59.242,-69.23 -40.602,0 -59.242,28.62 -59.242,69.23 0,39.27 19.973,68.55 59.242,68.55 z m 0,-111.16 c 10.652,0 15.309,9.32 15.309,42.61 0,30.62 -3.328,41.93 -15.309,41.93 -11.98,0 -15.309,-11.31 -15.309,-41.93 0,-33.29 4.661,-42.61 15.309,-42.61"
         style="fill:#1a64b7;fill-opacity:1;fill-rule:evenodd;stroke:none"
         id="path30" />
      <path
         d="m 818.117,1188.95 h -17.308 v 29.29 h 17.308 v 14.64 c 0,32.62 15.973,44.6 43.93,44.6 7.984,0 14.644,-1.33 21.301,-2 v -32.61 c -2,0.67 -5.328,1.33 -7.985,1.33 -11.316,0 -15.312,-4.66 -15.312,-12.64 v -13.32 h 23.297 v -29.29 h -23.297 v -101.84 h -41.934 v 101.84"
         style="fill:#1a64b7;fill-opacity:1;fill-rule:evenodd;stroke:none"
         id="path32" />
      <path
         d="m 323.551,1181.63 c 0,7.99 -3.328,13.31 -10.649,13.31 -10.648,0 -13.976,-9.31 -13.976,-17.3 l -37.278,7.99 c 4.657,25.29 28.622,35.94 52.586,35.94 25.293,0 51.918,-10.65 51.918,-39.94 v -73.22 c 0,-14.64 1.996,-19.3 3.993,-21.3 h -43.93 c -0.664,3.99 -1.332,9.99 -1.332,11.98 -7.32,-7.32 -19.969,-14.64 -31.949,-14.64 -21.297,0 -37.278,14.64 -36.61,38.6 0.664,33.95 39.274,44.6 67.227,47.93 z m 0,-31.28 c -14.641,-1.33 -25.957,-7.32 -25.957,-23.97 0,-9.31 4.66,-13.97 12.648,-13.97 4.656,0 9.981,3.32 13.309,7.98 v 29.96"
         style="fill:#1a64b7;fill-opacity:1;fill-rule:evenodd;stroke:none"
         id="path34" />
      <path
         d="m 433.379,1180.97 v -93.86 h -42.598 v 131.13 h 41.27 l 0.668,-13.31 v 0 c 9.316,9.32 20.633,16.64 37.269,16.64 18.641,0 29.289,-12.65 29.289,-30.62 V 1087.11 H 456.68 v 90.53 c 0,7.32 -2.664,11.31 -9.989,11.31 -4.656,0 -9.316,-2.66 -13.312,-7.98"
         style="fill:#1a64b7;fill-opacity:1;fill-rule:evenodd;stroke:none"
         id="path36" />
      <path
         d="m 525.238,1273.49 h 42.602 v -94.52 h 0.664 l 31.285,39.27 h 41.934 l -35.278,-39.94 35.278,-91.19 h -43.93 l -20.633,57.25 h -0.668 l -8.652,-9.99 v -47.26 h -42.602 v 186.38"
         style="fill:#1a64b7;fill-opacity:1;fill-rule:evenodd;stroke:none"
         id="path38" />
      <path
         d="m 211.063,1184.3 c 19.968,-6.66 34.609,-23.3 34.609,-47.27 0,-31.95 -25.293,-49.92 -61.234,-49.92 h -71.223 v 186.38 h 73.219 c 33.281,0 54.578,-19.97 54.578,-45.27 0,-24.62 -16.637,-37.27 -29.949,-42.59 z m -52.586,-62.58 h 17.304 c 10.653,0 23.961,4.66 23.961,23.3 0,13.98 -8.652,23.29 -23.961,23.29 h -17.304 z m 0,77.89 h 15.972 c 16.641,0 23.297,9.31 23.297,19.96 0,17.97 -11.98,20.64 -22.629,20.64 h -16.64 v -40.6"
         style="fill:#1a64b7;fill-opacity:1;fill-rule:evenodd;stroke:none"
         id="path40" />
      <path
         d="m 1742.68,1181.63 c 0,7.99 -4,13.31 -11.32,13.31 -9.98,0 -13.32,-9.31 -13.98,-17.3 l -36.61,7.99 c 4.66,25.29 28.62,35.94 52.59,35.94 25.29,0 51.92,-10.65 51.92,-39.94 v -73.22 c 0,-14.64 1.99,-19.3 3.33,-21.3 h -43.27 c -0.67,3.99 -1.33,9.99 -1.33,11.98 -7.33,-7.32 -19.97,-14.64 -32.62,-14.64 -20.63,0 -37.27,14.64 -36.61,38.6 1.33,33.95 39.94,44.6 67.9,47.93 z m 0,-31.28 c -14.65,-1.33 -25.97,-7.32 -25.97,-23.97 0,-9.31 4.67,-13.97 11.99,-13.97 5.32,0 9.98,3.32 13.98,7.98 v 29.96"
         style="fill:#1a64b7;fill-opacity:1;fill-rule:evenodd;stroke:none"
         id="path42" />
      <path
         d="m 1306.69,1143.69 c -0.67,-11.32 2.66,-31.28 19.97,-31.28 9.98,0 18.63,7.98 20.63,17.97 l 28.62,-9.99 c -2,-5.99 -14.64,-35.94 -52.58,-35.94 -40.61,0 -59.24,32.62 -59.24,69.23 0,37.27 19.97,68.55 58.57,68.55 40.61,0 55.25,-35.28 55.25,-69.89 v -8.65 z m 31.95,25.29 c 0,11.99 -1.34,26.63 -15.98,26.63 -11.98,0 -16.64,-14.64 -15.97,-26.63 h 31.95"
         style="fill:#1a64b7;fill-opacity:1;fill-rule:evenodd;stroke:none"
         id="path44" />
      <path
         d="m 1491.73,1218.24 h 42.6 v -131.13 h -42.6 v 131.13"
         style="fill:#1a64b7;fill-opacity:1;fill-rule:evenodd;stroke:none"
         id="path46" />
      <path
         d="m 1491.73,1273.49 h 42.6 v -37.94 h -42.6 v 37.94"
         style="fill:#1a64b7;fill-opacity:1;fill-rule:evenodd;stroke:none"
         id="path48" />
      <path
         d="m 1628.19,1169.65 c 0,5.33 0,11.98 -2,16.64 -2,5.33 -5.33,9.32 -11.98,9.32 -13.98,0 -15.98,-17.31 -15.98,-43.93 0,-29.29 4.66,-39.27 15.98,-39.27 14.64,0 15.97,15.3 15.97,25.29 l 33.28,-4.66 c -3.32,-31.95 -21.96,-48.59 -52.58,-48.59 -37.94,0 -57.91,33.28 -57.91,65.9 0,35.94 19.97,71.88 59.91,71.88 44.6,0 51.92,-39.27 51.92,-52.58 h -36.61"
         style="fill:#1a64b7;fill-opacity:1;fill-rule:evenodd;stroke:none"
         id="path50" />
      <path
         d="m 957.23,1273.49 h 61.9 l 39.28,-186.38 h -45.27 l -7.32,37.94 h -43.265 l -8.653,-37.94 h -40.601 z m 11.317,-115.82 h 30.621 l -13.313,75.88 h -1.335 l -15.973,-75.88"
         style="fill:#1a64b7;fill-opacity:1;fill-rule:evenodd;stroke:none"
         id="path52" />
      <path
         d="m 1395.21,1218.24 h 41.27 v -17.31 h 0.67 c 8.65,13.98 24.63,20.64 41.27,20.64 v -42.6 c -5.33,2 -9.99,3.33 -17.31,3.33 -11.31,0 -18.63,-4 -23.29,-9.99 v -85.2 h -42.61 v 131.13"
         style="fill:#1a64b7;fill-opacity:1;fill-rule:evenodd;stroke:none"
         id="path54" />
      <path
         d="m 1180.22,1180.97 v -93.86 h -41.94 v 89.86 c 0,7.33 -1.99,11.98 -9.98,11.98 -4,0 -10.65,-3.32 -13.98,-7.98 v -93.86 h -41.93 v 131.13 h 41.27 l 0.66,-13.31 v 0 c 9.32,8.65 22.63,16.64 37.94,16.64 13.31,0 21.97,-7.32 25.95,-17.31 h 0.68 c 7.32,7.99 19.97,17.31 37.27,17.31 17.97,0 29.96,-11.32 29.96,-29.95 v -104.51 h -41.94 v 89.86 c 0,7.33 -2,11.98 -9.98,11.98 -5.33,0 -11.32,-4.65 -13.98,-7.98"
         style="fill:#1a64b7;fill-opacity:1;fill-rule:evenodd;stroke:none"
         id="path56" />
      <path
         d="m 1805.91,1102.42 c 0,9.99 7.98,17.97 18.64,17.97 9.98,0 17.97,-7.98 17.97,-17.97 0,-9.98 -7.99,-17.97 -17.97,-17.97 -10.66,0 -18.64,7.99 -18.64,17.97 z m 3.33,0 c 0,-7.99 6.65,-13.97 15.31,-13.97 7.99,0 14.64,5.98 14.64,13.97 0,7.99 -6.65,14.65 -14.64,14.65 -8.66,0 -15.31,-6.66 -15.31,-14.65"
         style="fill:#1a64b7;fill-opacity:1;fill-rule:evenodd;stroke:none"
         id="path58" />
      <path
         d="m 1833.2,1092.44 h -3.32 l -6,9.32 h -3.33 v -9.32 h -3.33 v 19.97 h 9.33 c 1.33,0 3.33,0 4.65,-0.67 2,-1.33 2.67,-2.66 2.67,-4.66 0,-3.99 -3.33,-5.32 -6.66,-5.32 z m -9.32,11.98 c 2.67,0 6.66,-0.67 6.66,2.66 0,2.66 -2,3.33 -4.66,3.33 h -5.33 v -5.99 h 3.33"
         style="fill:#1a64b7;fill-opacity:1;fill-rule:evenodd;stroke:none"
         id="path60" />
    </g>
  </g>
</svg>
