<svg width="492" height="652" viewBox="0 0 492 652" fill="none" xmlns="http://www.w3.org/2000/svg">
<path d="M192.24 9.91974C201.013 -2.54693 223.36 -2.52026 227.653 13.6531C227.68 18.5064 227.733 23.3731 227.707 28.2397C227.573 30.5197 226.6 33.0131 224.627 34.2797C222.467 35.6664 220.587 37.4264 219.187 39.5997C215.653 40.5864 210.48 40.2931 208.787 44.0131C204.307 40.2931 197.173 40.8664 193.08 36.2664C191.12 33.7464 188.907 31.4397 186.587 29.2531C183.507 26.3864 184.027 19.6264 186.6 16.5331C188.68 14.5197 190.627 12.3331 192.24 9.91974Z" fill="#25AAE1" stroke="#25AAE1" stroke-width="0.333333"/>
<path d="M186.6 16.5331C185.947 13.2798 189.32 10.4265 192.24 9.9198C190.627 12.3331 188.68 14.5198 186.6 16.5331Z" fill="#25AAE1" stroke="#25AAE1" stroke-width="0.333333"/>
<path d="M227.653 13.6531C229.387 13.5198 231.173 27.8931 227.707 28.2398C227.733 23.3731 227.68 18.5065 227.653 13.6531Z" fill="#25AAE1" stroke="#25AAE1" stroke-width="0.333333"/>
<path d="M186.587 29.2532C188.907 31.4398 191.12 33.7465 193.08 36.2665C189.8 35.9332 186.107 32.7732 186.587 29.2532Z" fill="#25AAE1" stroke="#25AAE1" stroke-width="0.333333"/>
<path d="M219.187 39.5998C220.587 37.4265 222.467 35.6665 224.627 34.2798C222.667 38.4531 219.613 42.0265 220.613 47.2798C220.093 44.7331 219.627 42.1598 219.187 39.5998Z" fill="#25AAE1" stroke="#25AAE1" stroke-width="0.333333"/>
<path d="M209.027 43.7109C210.653 39.9197 215.62 40.2187 219.013 39.2131C219.436 41.8221 219.884 44.4447 220.383 47.0401C221.292 51.7689 221.984 57.3674 217.003 59.1475C212.317 59.5008 208.13 58.6176 209.513 51.7418C209.129 49.0784 209.039 46.3879 209.027 43.7109Z" fill="#25AAE1" stroke="#25AAE1" stroke-width="0.333333"/>
<path d="M219.441 47.5367C222.496 45.2696 220.036 55.57 220.896 58.0992C219.615 58.5317 218.316 58.8986 217.027 59.2131C220.585 57.4964 220.091 52.0972 219.441 47.5367Z" fill="#25AAE1" stroke="#25AAE1" stroke-width="0.333333"/>
<path d="M209.293 51.8931C207.853 58.6397 212.213 59.5064 217.093 59.1597C215.107 59.4797 211.133 60.1197 209.147 60.4397C208.933 57.5864 209.053 54.7331 209.293 51.8931Z" fill="#25AAE1" stroke="#25AAE1" stroke-width="0.333333"/>
<path d="M222.733 58.0265C271.027 49.1331 327.4 62.4131 356.88 104.253C357.147 104.573 357.667 105.213 357.933 105.533C369.573 120.92 376.64 139.613 380.12 158.493C380.16 162.28 379.84 166.133 380.72 169.866C380.813 170.4 381 171.466 381.08 172C381.12 176.893 380.813 181.826 381.36 186.72C380.227 208.133 361.667 224.213 345.893 236.24C333.893 239.333 322.92 245.586 310.507 247.333C310.267 256.08 313.707 264.293 314.867 272.88C313.493 274.48 311.987 275.973 310.413 277.386C307.613 279.493 305.013 282.346 301.4 282.893C299.773 278.453 297.093 274.573 291.827 274.72C292.387 272.866 292.053 270.813 290.613 269.453C288.293 263.76 289.507 255.693 284.52 251.4C270.84 248.733 257.653 244.04 244.027 241.2C239.88 240.786 235.227 239.053 231.293 241.253C225.933 243.84 221.627 248.746 220.547 254.68C218.853 257.893 217.373 262.12 220.76 264.466C226.293 276.226 239.667 277.986 250.573 281.573C254.4 290.56 251.213 294.453 242.093 292.48C240.053 292.306 238.027 292.12 235.987 291.96C230.04 291.026 224.053 291.026 218.067 291.2C215.933 291.04 213.813 290.88 211.72 290.586C211.453 281.96 214.44 273.76 216.227 265.44C217.267 262.853 219.16 257.24 214.84 257.586C210.747 257.44 206.707 257.453 202.627 257.306C181.24 256.04 161.227 246.04 142.667 235.906C131.44 228.986 119.893 218.16 118.44 204.32C118.72 204.013 119.28 203.386 119.56 203.066C134.493 197.12 140.573 180.573 142.693 165.88C143.627 157.28 144.787 148.36 142.893 139.813C141 132.053 138.747 123.173 131.427 118.826C146.107 88.3731 177.013 68.5865 209.147 60.4398C211.133 60.1198 215.107 59.4798 217.093 59.1598C218.973 58.8398 220.867 58.4665 222.733 58.0265Z" fill="#FAFBFB" stroke="#FAFBFB" stroke-width="0.333333"/>
<path d="M251.667 84.1998C257.24 81.8664 272.813 81.9198 278.36 84.1731C269.453 84.2398 260.56 84.2264 251.667 84.1998Z" fill="#ABDED2" stroke="#ABDED2" stroke-width="0.333333"/>
<path d="M166.413 154.866C173.52 114.773 212.733 87.5198 251.667 84.1998C260.56 84.2264 269.453 84.2398 278.36 84.1731C319.267 85.9598 358.467 117.213 363.707 158.853C363.707 164.64 363.72 170.453 363.707 176.266C358.747 206.12 323.587 214.6 298.093 217.533C295.013 217.173 292.013 217.373 289.12 218.146C285.56 218.706 281.96 218.96 278.347 218.906C262.347 218.866 246.347 218.8 230.347 218.906C205.08 218.826 169.107 210.733 166.32 180.226C166.373 171.773 166.28 163.32 166.413 154.866Z" fill="#25AAE1" stroke="#25AAE1" stroke-width="0.333333"/>
<path d="M257.573 88.9598C294.947 85.0798 336.187 102.72 352.12 138.453C358.12 154.266 363.613 174.506 352.973 189.52C340.973 204.76 320.267 208.587 302.253 211.867C267.893 215.307 232.587 217.506 198.787 209.08C184.733 205.173 170.4 193.96 171.2 177.973C163.907 129.413 211.667 89.0798 257.573 88.9598Z" fill="#25AAE1" stroke="#25AAE1" stroke-width="0.333333"/>
<path d="M186.053 133.213C215.467 95.4798 277.613 85.7865 315.44 116.466C318.507 118.493 324.693 126.333 317.04 123.973C311.587 124.053 303.667 119.973 299.947 125.76L299.2 126.533C298.707 126.653 297.693 126.88 297.2 126.986C279.813 126.12 262.427 127.733 245.147 127.96C238.587 125.306 230.44 124.546 224.573 129.133C223.267 129.986 222.027 130.946 220.813 131.933C208.44 131.533 196.973 136.746 185 138.88C185.08 136.986 184.547 134.706 186.053 133.213Z" fill="#EDEDEE" stroke="#C9F3EE" stroke-width="0.333333"/>
<path d="M356.88 104.253C356.827 102.32 360.88 101.88 360.733 103.973C360.027 104.36 358.64 105.146 357.933 105.533C357.667 105.213 357.147 104.573 356.88 104.253Z" fill="#0B112B" stroke="#0B112B" stroke-width="0.333333"/>
<path d="M357.933 105.533C358.64 105.146 360.027 104.36 360.733 103.973C383.56 117.466 391.973 147.28 388.427 172.226C387.587 173.8 387.427 175.586 387.68 177.333C387.853 180.72 385.08 183.266 383.307 185.866C382.6 181.24 381.867 176.613 381.08 172C381 171.466 380.813 170.4 380.72 169.866C380.547 166.053 380.92 162.226 380.12 158.493C376.64 139.613 369.573 120.92 357.933 105.533Z" fill="#0B112B" stroke="#0B112B" stroke-width="0.333333"/>
<path d="M98.3333 164.173C100.187 145.373 108.693 118.746 131.427 118.826C138.747 123.173 141 132.053 142.893 139.813C142.427 148.48 142.32 157.186 142.693 165.88C140.573 180.573 134.493 197.12 119.56 203.066C117.467 202.893 115.373 202.826 113.28 202.946C104.307 199.973 99.6667 189.186 98.3333 180.253C98.3333 174.893 98.32 169.533 98.3333 164.173Z" fill="#0B112B" stroke="#0B112B" stroke-width="0.333333"/>
<path d="M299.947 125.76C303.667 119.973 311.587 124.053 317.04 123.973C311.293 123.866 305.48 124.04 299.947 125.76Z" fill="#0B112B" stroke="#0B112B" stroke-width="0.333333"/>
<path d="M300.027 124.213C306.027 120.713 310.527 121.213 315.527 123.213C316.927 124.133 319.867 125.773 321.213 126.8C313.88 127.373 301.527 131.713 297.027 127.713L300.027 124.213Z" fill="#0B112B" stroke="#0B112B" stroke-width="0.333333"/>
<path d="M224.573 129.133C230.44 124.546 238.587 125.306 245.147 127.96C238.36 129.24 231.453 129.613 224.573 129.133Z" fill="#0B112B" stroke="#0B112B" stroke-width="0.333333"/>
<path d="M297.2 126.986C297.693 126.88 298.707 126.653 299.2 126.533C306.493 127.88 313.88 127.373 321.213 126.8C331.96 133.866 331.413 152.973 328.507 165.066C325.24 180.76 301.173 181.44 294.48 168.146C289.36 154.84 290.693 139.586 297.2 126.986Z" fill="#0B112B" stroke="#0B112B" stroke-width="0.333333"/>
<path d="M224.573 129.133C231.453 129.613 238.36 129.24 245.147 127.96C257.533 138.853 259.173 159.4 251.667 173.52C246.787 183.2 233.28 183.44 224.613 179.24C212.787 167.24 211.747 145.92 220.813 131.933C222.027 130.947 223.267 129.987 224.573 129.133Z" fill="#0B112B" stroke="#0B112B" stroke-width="0.333333"/>
<path d="M142.893 139.813C144.787 148.36 143.627 157.28 142.693 165.88C142.32 157.186 142.427 148.48 142.893 139.813Z" fill="#0B112B" stroke="#0B112B" stroke-width="0.333333"/>
<path d="M165.98 180.213C165.276 175.205 164.22 160.26 166.027 155.213C165.96 163.546 166.007 171.88 165.98 180.213Z" fill="#25AAE1" stroke="#25AAE1" stroke-width="0.333333"/>
<path d="M363.707 158.853C365.533 161.133 366.947 173.56 363.707 176.266C363.72 170.453 363.707 164.64 363.707 158.853Z" fill="#25AAE1" stroke="#25AAE1" stroke-width="0.333333"/>
<path d="M380.12 158.493C380.92 162.226 380.547 166.053 380.72 169.867C379.84 166.133 380.16 162.28 380.12 158.493Z" fill="#0B112B" stroke="#0B112B" stroke-width="0.333333"/>
<path d="M98.3332 180.253C96.5732 178.68 94.9332 165.973 98.3332 164.173C98.3199 169.533 98.3332 174.893 98.3332 180.253Z" fill="#0B112B" stroke="#0B112B" stroke-width="0.333333"/>
<path d="M381.08 172C381.867 176.613 382.6 181.24 383.307 185.866C382.827 186.08 381.853 186.506 381.36 186.72C380.813 181.826 381.12 176.893 381.08 172Z" fill="#0B112B" stroke="#0B112B" stroke-width="0.333333"/>
<path d="M387.68 177.333C387.427 175.586 387.587 173.8 388.427 172.226C388.461 173.123 388.51 177.722 387.68 177.333Z" fill="#0B112B" stroke="#0B112B" stroke-width="0.333333"/>
<path d="M113.28 202.946C115.373 202.826 117.467 202.893 119.56 203.066C119.28 203.386 118.72 204.013 118.44 204.32C116.947 205.013 113.307 205.133 113.28 202.946Z" fill="#0B112B" stroke="#0B112B" stroke-width="0.333333"/>
<path d="M289.12 218.146C292.013 217.373 295.013 217.173 298.093 217.533C296.204 218.021 290.99 218.247 289.12 218.146Z" fill="#25AAE1" stroke="#25AAE1" stroke-width="0.333333"/>
<path d="M229.027 219.246C245.36 219.185 293.027 218.713 278.027 219.246C263.027 219.779 242.473 220.062 229.027 219.246Z" fill="#25AAE1" stroke="#25AAE1" stroke-width="0.333333"/>
<path d="M310.507 247.333C322.92 245.586 333.893 239.333 345.893 236.24C349.52 240.306 356.56 242.026 358.32 247.146C358.12 248.866 358.187 250.666 359.04 252.226C359.933 254.613 360.867 257 361.68 259.426C360.827 260.426 359.773 261.053 358.52 261.333C353.333 262.306 350.88 254.933 346.213 258.386C340.733 256.586 340.947 242.506 331.52 247C328.147 248.64 320.293 247.4 319.747 252.32C320.28 258.226 322.413 263.866 323.853 269.6C321 271.026 318.093 272.546 314.867 272.88C313.707 264.293 310.267 256.08 310.507 247.333Z" fill="#3D324E" stroke="#3D324E" stroke-width="0.333333"/>
<path d="M231.293 241.253C235.227 239.053 239.88 240.786 244.027 241.2C239.747 241.173 235.533 241.28 231.293 241.253Z" fill="#8F8898" stroke="#8F8898" stroke-width="0.333333"/>
<path d="M220.547 254.68C221.627 248.747 225.933 243.84 231.293 241.253C235.533 241.28 239.747 241.173 244.027 241.2C257.653 244.04 270.84 248.733 284.52 251.4C289.507 255.693 288.293 263.76 290.613 269.453C289.96 271.187 289.467 274.053 291.827 274.72C285.213 279.16 285.413 291.44 274.467 287.773C266.387 286.16 258.053 285.253 250.573 281.573C239.667 277.987 226.293 276.227 220.76 264.467C220.707 262.013 220.6 257.133 220.547 254.68Z" fill="#3A2F4B" stroke="#3A2F4B" stroke-width="0.333333"/>
<path d="M331.565 247.075C340.804 242.674 340.595 256.466 345.965 258.229C350.539 254.846 352.943 262.069 358.027 261.116C356.119 261.651 354.224 262.187 352.342 262.774C351.114 261.925 349.938 261.011 348.697 260.201C345.312 259.339 342.437 259.901 343.43 264.028L343.339 265.243C336.727 265.465 330.167 266.732 324.051 269.213C322.64 263.597 320.549 258.072 320.027 252.287C320.562 247.467 328.259 248.682 331.565 247.075Z" fill="#5C4F6D" stroke="#5C4F6D" stroke-width="0.333333"/>
<path d="M358.32 247.146C360.787 246.906 360.547 251.12 359.04 252.226C358.187 250.666 358.12 248.866 358.32 247.146Z" fill="#3D324E" stroke="#3D324E" stroke-width="0.333333"/>
<path d="M220.76 264.466C217.373 262.12 218.853 257.893 220.547 254.68C220.6 257.133 220.707 262.013 220.76 264.466Z" fill="#867C8A" stroke="#867C8A" stroke-width="0.333333"/>
<path d="M163.307 267.813C173.387 256.72 188.987 257.507 202.627 257.307C206.707 257.453 210.747 257.44 214.84 257.587L214.333 258.32C207.387 258.573 200.44 258.907 193.493 259.293C183.453 272.24 173.133 287.707 177.613 305.08C180.947 314.867 165.8 309.653 160.133 311.267C157.227 297 153.6 280.48 163.307 267.813Z" fill="#5E4E6D" stroke="#5E4E6D" stroke-width="0.333333"/>
<path d="M214.84 257.586C219.16 257.24 217.267 262.853 216.227 265.44C215.653 263.053 215.067 260.666 214.333 258.32L214.84 257.586Z" fill="#9A959F" stroke="#9A959F" stroke-width="0.333333"/>
<path d="M193.493 259.293C200.44 258.906 207.387 258.573 214.333 258.32C215.067 260.666 215.653 263.053 216.227 265.44C214.44 273.76 211.453 281.96 211.72 290.586C213.813 290.88 215.933 291.04 218.067 291.2C224 291.973 230 292.04 235.987 291.96C238.027 292.12 240.053 292.306 242.093 292.48C253.293 287.733 255.893 305.32 244.76 301.813C242.72 301.613 240.693 301.44 238.667 301.266C234.12 300.653 229.6 300.066 225.027 300.2C221.36 300.226 217.707 300.293 214.053 300.386C207.107 298.013 206.56 312.093 211.293 311.866C224.813 311.56 238.667 313.84 252.04 311.266C258.547 310.973 265.08 310.853 271.6 310.84C272.52 311.586 273.427 312.36 274.32 313.16C238.667 319.293 217.707 364.413 234.413 396.2C241.32 414.64 259.667 422.893 276.147 430.453C257.32 431.893 238.347 429.466 219.613 431.986C214.907 433.986 204.613 426.866 202.76 433.946C193.387 458.72 169.72 485.546 140.813 480.533C137.68 477.2 140.44 469.413 140.053 464.56C141.253 455.013 141.667 445.293 140.24 435.773C139.44 432.627 140.147 427.333 133.547 430.147C110.227 425.133 89.5466 404.333 87.6399 380.213C87.6932 373.96 87.6932 367.733 87.6799 361.493C89.3599 337 109.773 314.64 134.347 312.186C142.893 311.866 151.707 313.253 160.133 311.266C165.8 309.653 180.947 314.866 177.613 305.08C173.133 287.706 183.453 272.24 193.493 259.293Z" fill="#3A2E4B" stroke="#3A2E4B" stroke-width="0.333333"/>
<path d="M361.68 259.426C363.533 257.613 361.8 263.426 361.947 264.586C359.013 265.066 356.08 265.546 353.107 265.546C353.013 264.92 352.813 263.653 352.72 263.026C354.64 262.426 356.573 261.88 358.52 261.333C359.773 261.053 360.827 260.426 361.68 259.426Z" fill="#3D324E" stroke="#3D324E" stroke-width="0.333333"/>
<path d="M343.553 264.147C340.925 255.311 348.534 254.109 357.491 255.954C360.293 264.511 351.577 264.371 343.553 264.147Z" fill="#3D324E" stroke="#3D324E" stroke-width="0.333333"/>
<path d="M349 260.4C350.267 261.226 351.467 262.16 352.72 263.026C352.813 263.653 353.013 264.92 353.107 265.546C350.72 265.546 345.92 265.546 343.533 265.546L343.627 264.306C346.72 264.413 350.08 264.48 349 260.4Z" fill="#3D324E" stroke="#3D324E" stroke-width="0.333333"/>
<path d="M353.107 265.546C356.08 265.546 359.013 265.066 361.947 264.586C384.213 271.986 406.987 286.84 412.987 311.093C410.853 310.96 408.733 310.853 406.627 310.746C398.453 292.28 382.44 275.253 361.28 273.4C361.067 277.84 364.333 283.466 360.72 286.8C353.827 287.88 353.693 278.813 352.053 274.24C351.867 273.373 351.48 271.653 351.293 270.786C345.413 273.706 344.813 279.893 345.187 285.84C334.76 293.333 336.92 279.346 336.76 273.533C329.413 273.786 322.107 275.746 316.133 280.12C315.84 277.066 312.6 277.733 310.413 277.386C311.987 275.973 313.493 274.48 314.867 272.88C318.093 272.546 321 271.026 323.853 269.6C330.093 267.066 336.787 265.773 343.533 265.546C345.92 265.546 350.72 265.546 353.107 265.546Z" fill="#25AAE1" stroke="#25AAE1" stroke-width="0.333333"/>
<path d="M290.613 269.453C292.053 270.813 292.387 272.866 291.827 274.72C289.467 274.053 289.96 271.186 290.613 269.453Z" fill="#8F999D" stroke="#8F999D" stroke-width="0.333333"/>
<path d="M345.187 285.84C344.813 279.893 345.413 273.706 351.293 270.786C351.48 271.653 351.867 273.373 352.053 274.24C347.16 276.2 347.347 281.8 345.187 285.84Z" fill="#25AAE1" stroke="#25AAE1" stroke-width="0.333333"/>
<path d="M316.133 280.12C322.107 275.746 329.413 273.786 336.76 273.533C336.92 279.346 334.76 293.333 345.187 285.84C347.347 281.8 347.16 276.2 352.053 274.24C353.693 278.813 353.827 287.88 360.72 286.8C364.333 283.466 361.067 277.84 361.28 273.4C382.44 275.253 398.453 292.28 406.627 310.746C373.72 310.986 340.813 310.906 307.907 310.826C306.293 305.853 307.12 298.933 302.053 296.013C303.053 292.066 306.787 289.906 308.92 286.64C311.04 284.173 313.507 282.026 316.133 280.12Z" fill="#B3E3F8" stroke="#B3E3F8" stroke-width="0.333333"/>
<path d="M291.827 274.72C297.093 274.573 299.773 278.453 301.4 282.893C305.013 282.347 307.613 279.493 310.413 277.387C312.6 277.733 315.84 277.066 316.133 280.12C313.507 282.026 311.04 284.173 308.92 286.64C305.787 288.867 295.587 291.787 302.053 296.013C307.12 298.933 306.293 305.853 307.907 310.827C297.733 310.893 287.573 310.96 277.413 310.693C275.667 309.133 273.8 307.707 271.747 306.6C270.04 300.547 268.907 292.253 274.467 287.773C285.413 291.44 285.213 279.16 291.827 274.72Z" fill="#25AAE1" stroke="#25AAE1" stroke-width="0.333333"/>
<path d="M250.573 281.573C258.053 285.253 266.387 286.16 274.467 287.773C268.907 292.253 270.04 300.546 271.747 306.6L271.707 307.866C265.107 307.026 258.48 307.6 251.88 306.986C252.48 302.493 248.733 301.893 244.76 301.813C255.893 305.32 253.293 287.733 242.093 292.48C251.213 294.453 254.4 290.56 250.573 281.573Z" fill="#8F8898" stroke="#8F8898" stroke-width="0.333333"/>
<path d="M302.053 296.013C295.587 291.786 305.787 288.866 308.92 286.64C306.787 289.906 303.053 292.066 302.053 296.013Z" fill="#25AAE1" stroke="#25AAE1" stroke-width="0.333333"/>
<path d="M218.067 291.2C224.053 291.026 230.04 291.026 235.987 291.96C230 292.04 224 291.973 218.067 291.2Z" fill="#918A99" stroke="#918A99" stroke-width="0.333333"/>
<path d="M211.293 311.866C206.56 312.093 207.107 298.013 214.053 300.386C217.667 300.813 221.333 301.52 225.013 301.56C229.547 301.6 234.12 301.44 238.667 301.266C240.693 301.44 242.72 301.613 244.76 301.813C248.733 301.893 252.48 302.493 251.88 306.986C251.92 308.053 252 310.2 252.04 311.266C238.52 311.56 224.653 309.16 211.293 311.866Z" fill="#F6F3F7" stroke="#F6F3F7" stroke-width="0.333333"/>
<path d="M214.053 300.386C217.707 300.293 221.36 300.226 225.027 300.2L225.013 301.56C221.333 301.52 217.667 300.813 214.053 300.386Z" fill="#B9B2BD" stroke="#B9B2BD" stroke-width="0.333333"/>
<path d="M225.027 300.2C229.6 300.066 234.12 300.653 238.667 301.266C234.12 301.44 229.547 301.6 225.013 301.56L225.027 300.2Z" fill="#6B6272" stroke="#6B6272" stroke-width="0.333333"/>
<path d="M251.88 306.986C258.48 307.6 265.107 307.026 271.707 307.866C271.68 308.6 271.627 310.093 271.6 310.84C265.08 310.853 258.547 310.973 252.04 311.266C252 310.2 251.92 308.053 251.88 306.986Z" fill="#5E5369" stroke="#5E5369" stroke-width="0.333333"/>
<path d="M271.747 306.6C273.8 307.707 275.667 309.133 277.413 310.693C275.467 310.747 273.533 310.8 271.6 310.84C271.627 310.093 271.68 308.6 271.707 307.867L271.747 306.6Z" fill="#AAD8D6" stroke="#AAD8D6" stroke-width="0.333333"/>
<path d="M134.347 312.186C140.48 309.333 151.733 310.92 160.133 311.266C151.707 313.253 142.893 311.866 134.347 312.186Z" fill="#625A6D" stroke="#625A6D" stroke-width="0.333333"/>
<path d="M211.293 311.866C224.653 309.16 238.52 311.56 252.04 311.266C238.667 313.84 224.813 311.56 211.293 311.866Z" fill="#5E5467" stroke="#5E5467" stroke-width="0.333333"/>
<path d="M271.6 310.84C273.533 310.8 275.467 310.746 277.413 310.693C287.573 310.96 297.733 310.893 307.907 310.826C340.813 310.906 373.72 310.986 406.627 310.746C408.733 310.853 410.853 310.96 412.987 311.093L414.067 311.2C423.453 312.48 432.933 312.213 442.387 312.24C467.92 315.426 489.147 338.88 491.72 364.173C491.693 369.52 491.707 374.88 491.747 380.24C488.613 408.933 460.693 432.693 431.693 430.906C408.093 432.106 382.093 428.586 359.64 432.133C351.48 458.653 327.627 480.093 299.733 482.893C296.947 482.84 294.173 482.746 291.387 482.693C315.427 475.853 336.76 456.04 341.147 430.986C320.773 430.813 300.373 430.64 280 431.066C279.893 431.733 279.68 433.053 279.573 433.706L278.787 432.88C278 431.96 277.12 431.146 276.147 430.453C259.667 422.893 241.32 414.64 234.413 396.2C217.707 364.413 238.667 319.293 274.32 313.16C273.427 312.36 272.52 311.586 271.6 310.84Z" fill="#5C4C6D" stroke="#5C4C6D" stroke-width="0.333333"/>
<path d="M414.067 311.2C422.88 311.84 435.68 308.76 442.387 312.24C432.933 312.213 423.453 312.48 414.067 311.2Z" fill="#84798A" stroke="#84798A" stroke-width="0.333333"/>
<path d="M280.213 334.16C295.027 331.226 312.587 336.56 320.773 349.8C330.107 364.413 329.96 386.026 316.133 397.973C302.693 413.24 276.373 414.173 262.48 398.826C240.92 380.266 251.36 338.146 280.213 334.16Z" fill="#1E86B2" stroke="#1E86B2" stroke-width="0.333333"/>
<path d="M425.547 334.147C455.173 326.6 482.027 361.787 467.787 388.253C456.347 416.52 411.067 417.027 398.893 389.04C386.533 367.453 400.773 337.28 425.547 334.147Z" fill="#1E86B2" stroke="#1E86B2" stroke-width="0.333333"/>
<path d="M282.84 338.067C311.08 329.68 333.293 366.906 317.053 389.573C304.267 414.626 262.56 408.693 255.92 381.4C250.587 363.147 262.64 339.48 282.84 338.067Z" fill="#489CBF" stroke="#1E86B2" stroke-width="0.333333"/>
<path d="M425.547 338.16C450.853 331.586 474.947 359.973 465.053 384.227C459.947 400.947 439.667 409.693 423.533 404.493C410.747 400.586 400.307 388.88 399.067 375.387C397.027 358.813 408.387 340.4 425.547 338.16Z" fill="#489CBF" stroke="#1E86B2" stroke-width="0.333333"/>
<path d="M35.6933 342.906C45.08 340.053 56.5333 338.426 64.9733 344.173C66.8667 346.76 69.16 349.04 71.76 350.946C83.7467 364.773 79.5467 392.24 61.0667 397.64C53.4267 397.573 45.7733 397.546 38.2533 396.12C23.1867 391.133 2.32 383.4 1 365.613C7.42667 352.306 22.4667 346.96 35.6933 342.906Z" fill="#25AAE1" stroke="#25AAE1" stroke-width="0.333333"/>
<path d="M360.12 341.96C370.68 341.133 375.773 355.52 373.067 364.2C370.68 375.2 378.813 391.08 367.307 398.426C359.68 404.013 346.293 396.866 349.067 386.88C351.64 373.04 340.8 347.026 360.12 341.96Z" fill="#3A2D4B" stroke="#3A2D4B" stroke-width="0.333333"/>
<path d="M64.9734 344.173C68.3334 344.413 71.4667 347.6 71.7601 350.946C69.1601 349.04 66.8667 346.76 64.9734 344.173Z" fill="#25AAE1" stroke="#25AAE1" stroke-width="0.333333"/>
<path d="M274.347 389.56C257.693 378.573 263.2 347.426 283.947 345.613C276.893 350.333 266.64 357.067 270.267 366.893C272.013 374 274 386.04 283.8 385.613C287.72 385.773 291.747 385.8 295.707 385.64C306.227 384.147 303.907 368.187 310.68 361.773C313.2 364.773 311.48 375.747 308.973 381.547C304.96 395.64 284.587 397.8 274.347 389.56Z" fill="#B3E3F8" stroke="#B3E3F8" stroke-width="0.333333"/>
<path d="M283.947 345.613C295.613 342.52 307.4 350.893 310.68 361.773C303.907 368.187 306.227 384.147 295.707 385.64C300.96 377.08 308.987 358.733 294.053 355.173C286.16 352.227 272.747 357.76 276.04 368.013C277.84 374.12 277.667 382.08 283.8 385.613C274 386.04 272.013 374 270.267 366.893C266.64 357.067 276.893 350.333 283.947 345.613Z" fill="#B3E3F8" stroke="#B3E3F8" stroke-width="0.333333"/>
<path d="M410.08 361.493C416.333 340.88 451.16 339.72 456.24 361.92C455.12 369.44 441.96 366.453 448.987 377.64C442.053 380.12 433.84 375.32 427.627 379.106C428.813 387.706 440.733 383.173 446.693 384.586C436.627 391.053 413.627 387.16 415.4 371.053C414.053 367.64 409.307 365.973 410.08 361.493Z" fill="#B3E3F8" stroke="#B3E3F8" stroke-width="0.333333"/>
<path d="M276.04 368.013C272.747 357.76 286.16 352.227 294.053 355.173C308.987 358.733 300.96 377.08 295.707 385.64C291.747 385.8 287.72 385.773 283.8 385.613C277.667 382.08 277.84 374.12 276.04 368.013Z" fill="#B3E3F8" stroke="#B3E3F8" stroke-width="0.333333"/>
<path d="M430.84 355.306C437.76 353.36 449.253 358.28 447.68 366.706C438.733 367.8 429.693 368.76 421.067 365.386C420.107 359.826 426.4 356.84 430.84 355.306Z" fill="#B3E3F8" stroke="#B3E3F8" stroke-width="0.333333"/>
<path d="M87.6401 380.213C85.8801 377.413 84.5734 364.84 87.6801 361.493C87.6934 367.733 87.6934 373.96 87.6401 380.213Z" fill="#867889" stroke="#867889" stroke-width="0.333333"/>
<path d="M446.707 391.2C427.853 404.866 400.16 381.813 410.08 361.493C409.307 365.973 414.053 367.64 415.4 371.053C413.627 387.16 436.627 391.053 446.693 384.587C449.2 383.107 449.2 380.213 448.987 377.64C441.96 366.453 455.12 369.44 456.24 361.92C457.707 369.533 457.04 384.986 446.707 391.2Z" fill="#B3E3F8" stroke="#B3E3F8" stroke-width="0.333333"/>
<path d="M46.84 363.333C55.5333 359.866 70.0533 364.04 66.3333 376.12C62.3467 388.4 40.4133 387.8 35.68 376.107C34.96 369.053 40.8533 365.333 46.84 363.333Z" fill="#B3E3F8" stroke="#B3E3F8" stroke-width="0.333333"/>
<path d="M427.627 379.106C433.84 375.32 442.053 380.12 448.987 377.64C449.2 380.213 449.2 383.106 446.693 384.586C440.733 383.173 428.813 387.706 427.627 379.106Z" fill="#B3E3F8" stroke="#B3E3F8" stroke-width="0.333333"/>
<path d="M38.2534 396.12C45.7734 397.546 53.4268 397.573 61.0668 397.64C56.2934 399.44 43.8668 400.8 38.2534 396.12Z" fill="#25AAE1" stroke="#25AAE1" stroke-width="0.333333"/>
<path d="M202.76 433.946C204.613 426.866 214.907 433.986 219.613 431.986C212.72 465.866 174.893 488.84 141.173 482.76C141.08 482.213 140.907 481.093 140.813 480.533C169.72 485.546 193.387 458.72 202.76 433.946Z" fill="#5D4C6B" stroke="#5D4C6B" stroke-width="0.333333"/>
<path d="M280 431.067C300.373 430.64 320.773 430.813 341.147 430.986C336.76 456.04 315.427 475.853 291.387 482.693C287.467 482.733 283.613 482.853 279.72 482.893C276.48 479.52 278.613 470.413 278.72 464.56C280.053 454.32 279.8 443.986 279.573 433.706C279.68 433.053 279.893 431.733 280 431.067Z" fill="#3B2D4B" stroke="#3B2D4B" stroke-width="0.333333"/>
<path d="M359.64 432.133C382.093 428.586 408.093 432.106 431.693 430.906C410.2 433.853 383.28 431.56 359.64 432.133Z" fill="#D8D2DF" stroke="#D8D2DF" stroke-width="0.333333"/>
<path d="M278.787 432.88L279.573 433.706C279.8 443.986 280.053 454.32 278.72 464.56C278.4 454.013 277.773 443.4 278.787 432.88Z" fill="#A39BAB" stroke="#A39BAB" stroke-width="0.333333"/>
<path d="M140.24 435.773C141.667 445.293 141.253 455.013 140.053 464.56C139.88 454.973 138.88 445.293 140.24 435.773Z" fill="#8B8295" stroke="#8B8295" stroke-width="0.333333"/>
<path d="M279.72 482.893C283.613 482.853 287.467 482.733 291.387 482.693C294.173 482.746 296.947 482.84 299.733 482.893C296.867 485.266 282.413 485.213 279.72 482.893Z" fill="#B0AAB7" stroke="#B0AAB7" stroke-width="0.333333"/>
<path d="M225.573 565.026C250.427 562.906 275.427 564.546 300.253 566.053C337.44 570.466 376.24 572.626 410.387 589.506C417.427 592.613 423.787 597.706 427.36 604.64C429.12 616.293 417.067 622.773 408.56 627.68C378.467 641.426 345.04 645.013 312.52 648.933C264.867 651.946 216.773 652.573 169.187 647.84C137.667 642.96 104 639.946 76.6933 621.92C71.44 618.266 66.3333 612.72 66.84 605.933C72.8933 591.773 89.1867 586.826 102.507 581.773C142.333 570.133 184.267 566.666 225.573 565.026Z" fill="#D2C9CA" stroke="#D2C9CA" stroke-width="0.333333"/>
</svg>
