<svg width="1045" height="382" viewBox="0 0 1045 382" fill="none" xmlns="http://www.w3.org/2000/svg">
<path d="M0.966248 15.0003C1.61104 14.0891 2.73132 13.2233 2.82333 12.2594C3.41361 6.07508 7.2942 2.90527 12.8146 1.81545C19.2861 0.537863 26.1668 -1.22049 31.0513 5.53557C33.6504 9.13053 38.9745 10.693 39.0179 17.0354C39.0216 62.0982 39.0216 106.315 39.0216 150.532C39.5351 150.694 40.0485 150.857 40.5619 151.019C41.7132 149.703 42.8645 148.388 44.0158 147.072C50.303 142.397 56.8744 138.042 62.7168 132.864C64.6517 131.15 67.1647 131.14 68.493 129.721C71.8576 126.126 77.9282 127.343 80.5169 122.396C80.9649 121.54 84.0022 122.307 85.6647 121.771C92.3475 119.615 98.8385 116.82 106.085 116.887C106.997 116.895 107.922 115.403 109.196 114.298C109.723 114.422 110.957 114.71 112.748 115.365C116.504 116.113 119.701 116.494 123.372 116.915C130.264 116.928 136.682 116.902 143.536 116.924C146.569 115.993 150.212 119.273 152 114.999C155.57 115.764 159.161 116.445 162.706 117.313C168.852 118.819 175.046 120.201 181.072 122.104C184.644 123.232 188.1 124.984 191.31 126.944C196.62 130.184 201.298 134.791 206.95 137.061C215.605 140.538 220.322 148.159 227.001 153.652C231.411 157.28 237.648 161.196 238.622 165.903C240.08 172.953 247.882 174.879 248.446 182.236C248.747 186.152 252.809 189.728 254.977 193.569C256.434 196.151 258.151 198.812 258.693 201.64C259.888 207.883 260.129 214.318 263.006 220.999C263.055 224.195 263.11 226.557 263.104 229.39C263.016 240.662 262.943 251.463 263.019 262.264C263.028 263.522 263.855 264.775 264.302 266.03C263.355 270.413 264.606 275.4 260.234 278.881C259.402 279.544 260.365 282.147 259.922 283.69C259.298 285.865 257.978 287.832 257.241 289.986C256.35 292.592 256.336 295.673 254.909 297.881C252.383 301.789 252.982 306.982 248.696 310.315C246.307 312.172 245.81 316.286 243.904 318.991C242.082 321.58 239.542 323.666 237.312 325.966C236.91 326.381 236.087 326.805 236.121 327.161C236.81 334.331 229.332 335.732 226.612 340.552C224.989 343.426 222.009 345.576 219.481 347.877C218.444 348.82 217.042 349.754 215.715 349.909C212.117 350.331 210.66 353.615 207.962 355.155C205.927 356.316 203.645 357.057 201.656 358.283C200.144 359.217 199.057 360.848 197.536 361.76C195.087 363.23 192.533 364.652 189.843 365.561C186.994 366.523 184.295 367.554 181.588 368.975C175.336 372.258 168.701 374.09 161.408 374.705C158.835 374.922 155.357 376.926 151.052 376.997C142.414 377.041 134.685 377.131 126.507 377.126C122.353 377.073 118.649 377.115 114.945 377.157C106.555 375.727 97.9084 375.121 89.8559 372.609C83.3322 370.574 77.5272 366.24 71.3961 362.939C68.3295 361.289 65.1825 359.776 62.1883 358.005C58.7898 355.994 55.501 353.794 52.2028 351.618C49.3872 349.761 46.2401 348.2 43.9237 345.837C39.5698 341.395 33.6866 338.438 31.7048 331.561C30.7951 328.404 27.3032 325.905 24.7642 323.322C19.981 318.456 17.608 312.289 14.9231 306.23C13.3388 302.655 11.1425 299.356 9.38361 295.851C8.69109 294.471 8.49419 292.851 7.97872 291.373C5.56237 284.443 3.14647 277.532 2.89327 270.062C2.8557 268.954 1.6701 267.885 1.47526 266.387C2.23386 263.007 2.53281 260.038 2.89651 256.6C2.97371 177.434 2.99878 98.736 2.91376 20.0385C2.91195 18.3584 1.6437 16.6797 0.966248 15.0003ZM143.822 340.994C146.486 340.068 150.135 343.105 152.77 338.712C153.575 338.142 154.309 337.282 155.2 337.067C156.618 336.724 159.044 337.35 159.475 336.63C162.774 331.104 170.097 335.168 173.763 330.318C174.933 328.77 177.901 328.715 179.717 327.488C182.411 325.67 184.17 322.655 187.758 321.878C189.297 321.545 190.682 320.111 191.943 318.964C194.027 317.069 196.258 315.22 197.884 312.961C201.23 308.311 208.441 306.489 208.101 299.119C208.086 298.788 208.54 298.265 208.895 298.113C215.363 295.346 215.76 288.077 219.515 283.262C221.912 280.188 221.009 275.131 223.309 270.662C226.341 264.774 223.346 256.53 226.716 249.405C228.312 246.028 226.887 241.224 226.994 236.207C226.779 232.863 228.183 229.015 224.007 226.049C223.251 222.798 222.85 219.409 221.649 216.332C220.11 212.389 217.852 208.733 216.043 204.887C214.319 201.22 213.598 196.707 210.997 193.898C202.99 185.25 194.689 176.774 185.703 169.178C181.135 165.317 174.939 163.29 169.321 160.79C163.722 158.297 158.084 155.065 152.18 154.275C142.59 152.991 132.769 153.434 122.17 153C119.109 153.648 116.048 154.295 112.335 154.851C107.965 153.663 105.102 158.39 100.812 157.764C99.3964 157.557 96.9194 157.509 96.5749 158.204C94.0146 163.373 87.6432 162.145 84.2494 165.862C83.5079 166.675 81.122 165.908 80.2609 166.702C75.0713 171.483 69.9657 176.375 65.1117 181.496C61.7001 185.095 58.6294 189.035 55.6025 192.974C53.4513 195.773 51.6266 198.823 49.6566 201.762C49.1041 202.586 48.2144 203.352 48.0573 204.246C47.1244 209.555 41.92 213.673 43.7126 219.755C43.7793 219.981 43.1086 220.523 42.6949 220.777C38.2053 223.534 39.8306 227.302 40.2625 231.359C39.8393 238.949 39.3583 246.536 39.0496 254.13C38.9978 255.403 39.6928 256.707 40.0779 258.889C38.4406 264.594 42.6297 268.96 43.6387 274.068C44.1124 276.466 45.425 278.715 46.4711 280.98C47.9188 284.113 49.3729 287.251 51.0049 290.29C53.9002 295.681 56.2489 301.557 60.0609 306.221C66.2277 313.767 73.6408 320.086 82.1797 325.166C88.3252 328.822 94.2851 332.394 101.345 334.125C105.382 335.114 109.123 337.31 113.319 339.691C116.574 340.075 119.83 340.459 124.007 340.947C130.314 340.923 136.622 340.899 143.822 340.994Z" fill="white"/>
<path d="M936.947 231.115C944.206 238.516 952.329 245.287 958.379 253.571C961.668 258.073 964.457 262.964 968.493 266.977C976.015 274.457 985.398 280.919 990.427 289.825C996.084 299.844 1005.12 305.948 1011.88 314.439C1014.79 318.098 1018.25 321.316 1021.36 324.83C1022.41 326.021 1023.14 327.497 1023.99 328.862C1024.82 330.201 1025.4 331.777 1026.46 332.879C1031.44 338.012 1036.68 342.891 1041.52 348.149C1042.89 349.642 1043.21 352.104 1044.01 354.932C1044.12 359.171 1044.22 362.6 1044.33 366.028C1038.86 375.965 1029.21 380.341 1018.99 377.516C1011.61 375.475 1002.63 366.488 999.808 359.107C998.973 356.921 996.643 355.264 994.879 353.483C986.348 344.865 977.748 336.316 969.237 327.678C967.092 325.5 967.503 322.262 964.693 319.732C955.621 311.568 947.463 302.376 939.11 293.434C937.669 291.89 937.138 289.533 935.926 287.727C934.556 285.688 933.044 283.697 931.329 281.944C924.162 274.617 916.859 267.423 909.683 260.105C906.993 257.363 904.739 254.677 903.302 250.613C901.984 246.884 896.831 244.511 894.619 242.615C890.638 244.107 887.797 244.799 885.363 246.199C883.317 247.376 881.885 249.572 879.926 250.956C878.027 252.298 875.739 253.077 873.748 254.307C872.66 254.979 871.963 256.297 870.865 256.938C867.854 258.695 864.66 260.142 861.68 261.945C860.803 262.475 860.396 263.782 859.012 264.909C853.809 264.561 855.059 267.95 855.053 270.072C854.979 299.342 854.982 328.613 855.048 357.883C855.052 359.62 855.752 361.355 856.128 363.091C857.339 367.65 853.502 369.591 851.218 372.206C844.253 380.181 829.409 380.394 822.18 372.493C820.607 370.773 820.164 368.02 819.108 364.929C819.01 250.051 819.005 135.986 818.991 21.9207C818.991 20.2599 818.878 18.5992 818.818 16.9385C819.335 7.37567 830.146 -0.59428 839.443 1.824C843.075 2.76871 846.682 3.85909 850.2 5.15603C851.003 5.45181 851.409 6.86495 851.962 7.78507C853.258 9.94065 854.532 12.1091 855.9 15.0141C855.658 17.5159 855.044 19.2756 855.043 21.0359C854.994 85.3274 854.998 149.619 855.023 213.91C855.024 215.456 855.347 217.002 855.591 219.181C857.24 218.097 858.169 217.485 859.099 216.874C863.752 218.305 864.579 212.837 867.966 211.94C868.908 211.691 869.84 211.219 870.642 210.657C873.782 208.459 876.848 206.154 879.991 203.958C880.796 203.396 881.847 203.192 882.668 202.647C884.991 201.105 887.233 199.442 889.544 197.88C893.551 195.17 897.583 192.497 901.609 189.815C905.633 187.135 909.672 184.477 913.686 181.783C918.991 178.225 923.964 174.159 930.465 172.659C932.027 172.298 933.473 170.452 934.506 168.965C937.977 163.965 945.908 164.872 948.222 158.452C952.615 158.834 954.801 155.575 957.838 153.247C962.618 149.581 968.781 148.147 972.545 142.503C974.297 139.876 978.905 139.271 982.011 137.404C986.294 134.83 990.363 131.904 994.555 129.177C999.485 125.969 1004.1 122.402 1010.03 120.721C1012.68 119.967 1014.61 116.632 1017.1 114.235C1017.72 114.387 1018.96 114.689 1020.77 115.304C1025 117.128 1028.68 118.959 1032 114.961C1035.95 118.74 1039.89 122.519 1043.91 127.017C1044.04 131.521 1044.08 135.306 1044.13 139.091C1042.55 141.624 1038.71 142.824 1039.75 147.034C1039.91 147.68 1037.63 149.578 1036.28 149.819C1032.15 150.558 1029.67 153.218 1027.15 156.166C1026.28 157.183 1024.72 157.827 1023.35 158.152C1020.07 158.933 1017.75 160.865 1015.84 163.493C1015.47 164.012 1014.87 164.795 1014.42 164.765C1010.94 164.534 1009.1 166.643 1006.71 168.816C1003.08 172.109 998.714 174.963 994.173 176.785C989.562 178.636 986.429 182.284 982.452 184.495C977.988 186.975 974.241 190.25 969.998 192.809C966.083 195.17 962.566 198.304 958.718 200.241C953.535 202.849 949.441 206.689 944.617 209.505C941.23 211.483 937.454 212.656 934.669 216.572C932.09 217.63 930.068 218.306 928.045 218.982C928.871 221.001 929.324 223.308 930.611 224.969C932.395 227.272 934.805 229.09 936.947 231.115Z" fill="white"/>
<path d="M552.08 114.277C558.984 115.852 563.29 121.374 564.137 127.911C564.903 133.826 566.83 139.59 568.401 146.064C570.648 143.971 573.368 141.559 575.947 139.003C578.834 136.142 581.367 132.871 584.508 130.342C585.934 129.195 589.554 130.074 590.279 128.881C592.702 124.89 599.097 127.626 600.585 122.262C600.796 121.499 603.801 121.532 605.504 121.159C610.31 120.108 615.155 119.193 619.893 117.894C621.68 117.404 623.218 116.007 625.859 114.434C625.733 114.403 626.966 114.701 628.755 115.368C632.985 117.112 636.69 118.915 640 115C640 115 640.494 114.994 640.92 115.321C647.294 115.974 653.242 116.321 659.195 116.552C659.446 116.561 659.738 115.491 660.011 114.923C660.011 114.923 660.503 114.992 660.91 115.353C664.887 115.702 668.457 115.689 672.028 115.676C674.032 116.119 676.051 116.502 678.037 117.018C683.697 118.487 689.513 119.565 694.947 121.636C700.513 123.757 705.789 126.711 711.037 129.583C726.647 138.126 737.785 151.858 749.42 164.641C753.613 169.248 756.896 175.951 760.545 181.458C764.111 186.84 761.844 194.027 767.45 197.982C767.581 198.074 767.755 198.193 767.787 198.328C768.871 202.935 769.941 207.545 771.007 212.989C771.057 216.192 771.112 218.561 771.103 221.392C771.026 223.794 770.813 225.759 771.053 227.667C771.323 229.816 772 231.913 772.5 234.033C772.599 234.473 772.697 234.912 772.521 235.858C771.832 238.238 771.06 240.11 771.055 241.983C770.97 280.605 770.958 319.227 771.005 357.849C771.007 359.601 771.702 361.352 772.074 363.104C773.541 367.905 768.965 369.813 767.08 372.899C765.761 375.059 762.926 376.294 760.103 377.919C755.805 376.813 752.153 375.549 749 378.999C745.819 377.251 742.476 375.74 739.497 373.698C735.397 370.887 735.097 366.2 735.069 361.871C734.922 338.724 735.001 315.576 734.999 292.428C734.998 271.612 734.992 250.796 734.993 229.088C734.776 224.858 736.182 221.009 732.082 218.885C731.786 211.829 728.264 205.987 725.595 199.687C723.18 193.987 717.704 190.63 715.778 185.66C713.273 179.195 708.654 175.416 703.906 171.704C698.719 167.647 692.721 164.546 686.841 161.48C681.56 158.728 676.075 156.256 670.457 154.306C667.295 153.208 663.674 153.042 660.271 153.102C649.988 153.285 639.498 152.707 629.533 154.674C625.368 155.496 619.431 155.967 616.731 158.551C612.321 162.771 606.381 163.982 601.94 168.416C598.641 171.711 593.042 173.885 589.752 177.91C587.636 180.498 583.186 181.569 583.749 186.428C583.886 187.611 581.246 188.973 580.179 190.464C576.563 195.517 574.862 201.933 571.507 206.646C567.524 212.243 568.381 217.461 567.982 223.03C567.571 228.776 567.055 234.534 567.043 240.287C566.961 278.942 567.192 317.599 566.746 356.249C566.693 360.853 562.892 365.327 561.319 370.026C559.827 374.484 554.868 375.166 552.211 378.518C548.017 376.722 544.353 375.381 540.996 378.939C537.062 375.204 533.129 371.47 529.277 367.089C529.905 364.491 530.924 362.54 530.93 360.588C531.026 325.59 531 290.592 531 255.593C531 214.762 531.03 173.931 530.912 133.1C530.906 131.06 529.617 129.024 528.925 126.986C527.632 123.234 531.504 117.187 535.838 117.167C538.605 117.154 539.882 115.957 541.602 114.469C545.529 118.183 550.383 117.915 552.08 114.277Z" fill="white"/>
<path d="M337.074 274.005C339.735 282.322 342.122 290.742 345.175 298.913C346.648 302.855 349.416 306.305 351.517 310.024C353.383 313.325 355.107 316.707 356.953 320.02C358.483 322.765 359.848 325.653 361.747 328.124C363.655 330.606 366.363 332.469 368.313 334.926C372.285 339.935 375.982 345.161 379.872 351.019C380.002 356.852 380.052 361.964 380.103 367.077C372.114 378.998 357.698 380.08 348.118 370.64C343.852 366.437 339.558 362.257 335.447 357.905C329.267 351.362 324.554 343.85 320.744 335.679C318.88 331.679 315.86 328.226 313.912 324.257C311.34 319.018 309.652 313.334 306.947 308.176C304.189 302.916 307.136 295.795 301.299 291.669C301.094 291.524 301.084 291.058 301.044 290.734C300.348 285.114 299.661 279.493 298.974 273.017C298.938 269.799 298.899 267.435 298.919 264.601C298.928 252.398 298.879 240.664 298.884 228.499C298.322 225.038 297.704 222.01 297.087 218.981C298.391 214.699 299.699 210.418 300.998 206.135C301.645 204.005 302.42 201.9 302.883 199.73C303.694 195.927 303.955 191.972 305.106 188.286C306.252 184.615 308.258 181.217 309.79 177.658C310.67 175.614 311.198 173.41 312.162 171.412C315.506 164.472 319.922 158.074 323.492 151.366C326.446 145.817 332.018 142.307 333.957 137.021C337.382 127.68 345.291 123.078 351.661 116.806C352.728 115.755 354.648 115.571 356.768 115.304C361.018 117.239 364.673 118.812 368.001 114.979C372.525 118.118 377.34 120.954 379.854 126.996C379.338 131.228 377.074 134.896 380.895 137.997C382.546 143.511 377.7 145.686 375.085 148.87C372.953 151.466 369.878 153.285 367.736 155.874C362.818 161.821 357.858 167.792 353.623 174.22C351.29 177.761 351.5 183.537 348.605 186.027C343.214 190.662 347.049 198.178 341.53 202.842C339.047 204.94 339.809 210.799 338.923 214.913C338.666 216.108 337.802 217.171 336.795 218.865C335.955 222.639 335.537 225.842 335.075 229.488C335.081 232.307 335.131 234.685 335.182 237.062C335.13 242.052 335.078 247.041 335.016 252.95C335.05 257.549 335.093 261.228 335.077 265.355C335.798 268.513 333.011 272.118 337.074 274.005Z" fill="#25AAE1"/>
<path d="M456.009 246.918C457.586 247.613 459.101 248.625 460.75 248.944C465.958 249.952 466.726 254.126 467.846 258.946C467.632 261.647 467.053 263.591 467.044 265.537C466.967 282.968 466.958 300.4 467.03 317.832C467.037 319.587 467.713 321.34 468.079 323.095C464.274 326.989 460.469 330.883 456.158 334.508C451.957 332.494 448.332 331.693 445 335C442.374 333.508 439.181 332.521 437.277 330.386C435.224 328.083 433.811 324.836 433.095 321.773C428.516 302.173 431.652 282.257 431.281 262.492C431.148 255.403 437.343 247.099 444.836 247.128C449.132 249.326 452.663 250.829 456.009 246.918Z" fill="#25AAE1"/>
<path d="M445 211.02C437.218 209.105 432.2 203.331 427.36 197.682C423.453 193.121 422.208 187.356 423.336 181.295C423.837 178.598 424.193 175.835 425.078 173.261C425.808 171.141 426.961 169.046 428.376 167.304C434.3 160.013 441.795 155.623 451.439 157.14C455.399 157.763 459.116 159.932 462.94 161.409C464.265 161.921 465.751 162.232 466.856 163.051C468.996 164.634 471.239 166.266 472.836 168.341C474.338 170.293 475.063 172.843 475.984 175.851C475.944 181.407 476.049 186.241 476.154 191.074C474.094 194.57 472.643 198.7 469.826 201.408C465.991 205.096 461.113 207.699 456.166 210.514C451.956 208.496 448.33 207.677 445 211.02Z" fill="#25AAE1"/>
<path d="M468.399 322.895C467.713 321.34 467.037 319.587 467.03 317.832C466.958 300.4 466.967 282.968 467.044 265.537C467.053 263.591 467.632 261.647 468.024 259.278C469.07 260.956 470.847 263.047 470.875 265.161C471.099 282.281 471.071 299.406 470.891 316.528C470.869 318.591 469.477 320.64 468.399 322.895Z" fill="#25AAE1"/>
<path d="M143.101 116.876C136.682 116.902 130.264 116.928 123.406 116.544C123.001 115.138 123.036 114.143 123.072 113.148C129.384 113.105 135.696 113.063 142.491 113.457C143.016 114.888 143.058 115.882 143.101 116.876Z" fill="white"/>
<path d="M659.847 114.552C659.738 115.491 659.446 116.561 659.195 116.551C653.242 116.321 647.294 115.974 641.165 115.287C641.377 114.425 641.782 113.477 642.162 113.487C648.004 113.645 653.843 113.928 659.847 114.552Z" fill="white"/>
<path d="M380.411 366.867C380.052 361.964 380.002 356.852 380.032 351.321C383.974 354.6 384.274 362.391 380.411 366.867Z" fill="#25AAE1"/>
<path d="M749.155 379.368C752.153 375.549 755.805 376.813 759.802 378.123C758.689 381.467 753.894 382.079 749.155 379.368Z" fill="white"/>
<path d="M541.162 379.301C544.353 375.381 548.017 376.722 551.847 378.635C548.678 383.002 544.985 381.044 541.162 379.301Z" fill="white"/>
<path d="M445.18 335.351C448.332 331.693 451.957 332.494 455.825 334.587C452.708 338.74 449.039 337.29 445.18 335.351Z" fill="#25AAE1"/>
<path d="M639.848 114.635C636.69 118.915 632.985 117.112 629.155 115.368C632.339 111.443 636.003 112.632 639.848 114.635Z" fill="white"/>
<path d="M672.026 115.296C668.457 115.689 664.887 115.702 661.158 115.348C664.074 112.182 668.601 112.156 672.026 115.296Z" fill="white"/>
<path d="M367.825 114.631C364.673 118.812 361.018 117.239 357.175 115.274C360.359 111.664 363.975 112.474 367.825 114.631Z" fill="#25AAE1"/>
<path d="M1031.85 114.597C1028.68 118.959 1025 117.128 1021.16 115.262C1024.35 111.417 1028.01 112.73 1031.85 114.597Z" fill="white"/>
<path d="M445.179 211.372C448.33 207.677 451.956 208.496 455.823 210.609C452.704 214.737 449.034 213.271 445.179 211.372Z" fill="#25AAE1"/>
<path d="M455.832 246.571C452.663 250.829 449.132 249.326 445.237 247.091C448.294 243.754 451.938 244.419 455.832 246.571Z" fill="#25AAE1"/>
<path d="M381.269 137.864C377.074 134.896 379.338 131.228 380.016 127.305C384.273 129.983 383.945 133.716 381.269 137.864Z" fill="#25AAE1"/>
<path d="M551.712 114.069C550.383 117.915 545.529 118.183 542.012 114.442C545.118 113.987 548.231 113.923 551.712 114.069Z" fill="white"/>
<path d="M122.63 113.092C123.036 114.143 123.001 115.138 122.932 116.504C119.701 116.494 116.504 116.113 113.153 115.365C116.062 114.345 119.125 113.69 122.63 113.092Z" fill="white"/>
<path d="M143.536 116.924C143.059 115.882 143.016 114.888 142.951 113.521C145.85 113.521 148.772 113.894 151.847 114.633C150.212 119.273 146.569 115.993 143.536 116.924Z" fill="white"/>
</svg>
