<svg width="285" height="365" viewBox="0 0 285 365" fill="none" xmlns="http://www.w3.org/2000/svg">
<path d="M123.07 17.5506C124.376 8.11064 133.456 0.590633 142.95 1.0173C149.016 0.923966 154.736 4.08397 158.616 8.60397C166.243 17.724 163.296 34.084 151.616 38.364C149.736 43.7773 150.87 49.524 151.163 55.084C150.83 55.4973 150.163 56.3373 149.83 56.7506C145.176 56.9506 140.523 56.9773 135.87 56.8173C135.563 56.404 134.936 55.5773 134.63 55.164C134.483 49.6573 134.883 44.1373 134.336 38.644C127.016 34.4973 121.23 26.2306 123.07 17.5506Z" fill="#25AAE1" stroke="#25AAE1" stroke-width="0.333333"/>
<path d="M122.296 84.1106C148.91 79.7506 177.11 84.0039 200.883 96.8839C219.696 108.004 235.736 125.537 241.136 147.137C244.243 159.764 245.563 173.484 241.336 186.004C237.563 197.471 227.243 205.657 216.003 209.231C203.683 213.551 190.47 213.537 177.576 213.564C151.79 213.511 126.003 213.551 100.216 213.497C84.6029 213.484 67.9096 211.297 55.2962 201.297C46.2829 194.684 41.9896 183.271 41.9629 172.351C40.6296 150.071 49.0962 127.431 64.8962 111.657C80.1496 96.1239 101.043 87.4706 122.296 84.1106Z" fill="#25AAE1" stroke="#25AAE1" stroke-width="0.333333"/>
<path d="M113.443 102.431C135.923 97.9107 159.563 98.5507 181.51 105.417C191.47 108.031 200.843 113.151 208.23 120.337C210.123 121.831 210.51 124.284 208.936 126.177C203.803 126.284 198.75 127.351 193.656 127.911C187.523 120.884 176.176 120.484 169.296 126.644C151.376 125.831 133.39 126.631 115.443 126.351C107.83 119.711 95.6962 122.311 90.2562 130.431C84.8429 130.391 78.9896 131.644 74.0162 128.844C74.0696 126.684 74.1362 124.551 74.2296 122.404C84.8162 111.737 99.1496 106.124 113.443 102.431Z" fill="#EDEEEE" stroke="#EDEEEE" stroke-width="0.333333"/>
<path d="M17.1895 113.337C21.2562 109.377 26.8695 107.924 32.3362 107.204C30.6962 111.071 27.7495 114.177 25.9895 117.977C21.0295 128.004 17.8562 138.817 15.6562 149.751C12.9362 162.684 12.2562 176.164 14.9895 189.151C7.44286 188.124 2.32286 180.964 1.58953 173.737C0.629526 165.324 1.09618 156.817 1.24285 148.377C1.50951 135.151 7.69619 122.404 17.1895 113.337Z" fill="#0B112B" stroke="#0B112B" stroke-width="0.333333"/>
<path d="M253.523 107.351C264.629 107.617 271.99 117.084 277.696 125.457C286.056 138.617 284.816 154.791 284.429 169.671C283.989 178.244 279.283 187.191 270.416 189.417C274.483 161.177 267.989 131.831 253.523 107.351Z" fill="#0B112B" stroke="#0B112B" stroke-width="0.333333"/>
<path d="M90.2562 130.431C95.6962 122.311 107.83 119.711 115.443 126.351C119.283 131.044 122.496 136.684 122.496 142.924C122.576 150.564 123.256 158.604 120.19 165.817C117.363 171.751 111.176 176.831 104.27 175.924C97.8295 176.644 91.6829 172.364 88.9895 166.711C84.5095 155.044 86.0695 141.937 90.2562 130.431Z" fill="#0B112B" stroke="#0B112B" stroke-width="0.333333"/>
<path d="M169.296 126.644C176.176 120.484 187.523 120.884 193.656 127.911C200.123 137.377 200.43 149.391 198.91 160.351C197.83 167.111 193.496 173.537 186.71 175.524C181.896 175.844 176.376 176.657 172.256 173.551C167.176 170.377 164.323 164.591 163.536 158.804C162.87 147.884 162.083 135.777 169.296 126.644Z" fill="#0B112B" stroke="#0B112B" stroke-width="0.333333"/>
<path d="M68.4562 261.844C74.5895 255.164 80.2562 247.977 86.9762 241.897C90.6962 241.711 94.4295 241.884 98.1495 241.804C96.4695 252.684 94.6295 263.564 93.0562 274.471C102.11 275.124 111.176 274.671 120.243 274.817C120.416 277.724 120.55 280.644 120.79 283.564C111.136 283.351 101.456 283.324 91.7895 283.444C92.5095 290.911 88.6828 298.737 81.6828 301.857C70.0028 307.484 54.5895 297.151 55.0828 284.311C55.3095 274.977 63.0962 268.617 68.4562 261.844Z" fill="#0B112B" stroke="#0B112B" stroke-width="0.333333"/>
<path d="M187.523 241.911C191.336 241.951 195.15 241.537 198.963 241.857C206.496 248.937 213.016 257.057 219.896 264.777C225.176 271.124 231.83 278.244 230.67 287.177C229.71 297.671 218.51 305.551 208.296 303.044C199.95 300.751 193.936 292.297 194.043 283.684C184.51 283.297 174.856 282.924 165.363 283.804C165.296 281.151 165.016 278.511 164.883 275.871L164.83 274.604C174.256 274.911 183.696 274.711 193.123 274.604C192.083 263.577 189.403 252.791 187.523 241.911Z" fill="#0B112B" stroke="#0B112B" stroke-width="0.333333"/>
<path d="M120.243 274.817C122.789 265.457 130.109 256.324 140.349 255.497C151.763 253.991 163.936 262.964 164.829 274.604L164.883 275.871C164.483 279.511 164.456 283.191 164.309 286.844C161.443 293.884 155.536 299.884 147.936 301.524C135.896 304.857 122.589 295.697 120.789 283.564C120.549 280.644 120.416 277.724 120.243 274.817Z" fill="#25AAE1" stroke="#25AAE1" stroke-width="0.333333"/>
<path d="M100.11 310.271C111.07 317.551 124.296 320.537 137.203 322.044C137.363 331.257 136.896 340.497 137.283 349.697C138.296 353.137 141.483 357.564 137.563 360.417C131.216 364.164 123.39 364.697 116.176 364.577C110.443 363.964 103.296 363.124 99.9229 357.831C99.7896 353.751 100.776 349.711 100.416 345.631C99.5895 333.857 100.763 322.044 100.11 310.271Z" fill="#0B112B" stroke="#0B112B" stroke-width="0.333333"/>
<path d="M148.75 322.111C161.776 320.417 175.883 318.817 186.283 309.964C185.883 322.751 186.056 335.551 185.816 348.337C185.576 352.017 187.35 355.724 185.87 359.311C178.056 364.084 168.416 364.724 159.536 363.431C155.123 362.404 149.47 361.151 147.723 356.417C149.67 345.124 148.496 333.537 148.75 322.111Z" fill="#0B112B" stroke="#0B112B" stroke-width="0.333333"/>
</svg>
