<?xml version="1.0" encoding="UTF-8" standalone="no"?>
<!-- Created with Inkscape (http://www.inkscape.org/) -->

<svg
   version="1.1"
   id="svg2"
   width="1122.52"
   height="225.33333"
   viewBox="0 0 1122.52 225.33333"
   sodipodi:docname="chase-seeklogo.ai"
   xmlns:inkscape="http://www.inkscape.org/namespaces/inkscape"
   xmlns:sodipodi="http://sodipodi.sourceforge.net/DTD/sodipodi-0.dtd"
   xmlns="http://www.w3.org/2000/svg"
   xmlns:svg="http://www.w3.org/2000/svg">
  <defs
     id="defs6">
    <clipPath
       clipPathUnits="userSpaceOnUse"
       id="clipPath16">
      <path
         d="M 0,169 H 841.89 V 0 H 0 Z"
         id="path14" />
    </clipPath>
  </defs>
  <sodipodi:namedview
     id="namedview4"
     pagecolor="#ffffff"
     bordercolor="#000000"
     borderopacity="0.25"
     inkscape:showpageshadow="2"
     inkscape:pageopacity="0.0"
     inkscape:pagecheckerboard="0"
     inkscape:deskcolor="#d1d1d1" />
  <g
     id="g8"
     inkscape:groupmode="layer"
     inkscape:label="chase-seeklogo"
     transform="matrix(1.3333333,0,0,-1.3333333,0,225.33333)">
    <g
       id="g10">
      <g
         id="g12"
         clip-path="url(#clipPath16)">
        <g
           id="g18"
           transform="translate(401.459,26.5566)">
          <path
             d="m 0,0 c 4.256,6.646 8.003,12.742 12.076,18.613 0.667,0.963 2.761,1.303 4.198,1.309 19.07,0.085 38.139,0.048 57.207,0.061 9.628,0.006 11.745,2.137 11.765,11.757 0.004,2.267 0.015,4.534 -0.005,6.801 -0.068,7.86 -2.182,10.026 -9.955,10.04 C 59.818,48.609 44.343,48.343 28.885,48.742 24.107,48.865 19.078,50.071 14.692,51.99 7.817,54.996 3.94,61.095 2.244,68.259 0.163,77.05 0.067,86.024 2.077,94.831 c 2.489,10.902 11.042,18.331 22.239,19.425 5.555,0.542 11.182,0.453 16.777,0.469 20.136,0.057 40.271,0.039 60.407,0.04 0.915,0 1.83,-0.086 3.611,-0.175 -2.928,-4.651 -5.953,-8.664 -8.119,-13.096 -2.568,-5.252 -6.228,-6.681 -11.949,-6.546 -17.059,0.403 -34.134,0.146 -51.203,0.119 -7.473,-0.011 -9.523,-2.052 -9.599,-9.461 -0.028,-2.667 -0.058,-5.336 0.03,-8.001 0.197,-5.926 2.448,-8.228 8.362,-8.256 14.535,-0.07 29.071,0.002 43.605,-0.061 3.056,-0.015 6.138,-0.17 9.16,-0.594 12.452,-1.741 20.757,-9.01 22.448,-21.451 1.116,-8.217 1.185,-16.854 -0.024,-25.047 C 105.762,8.226 95.631,0.344 79.764,0.106 53.503,-0.286 27.233,0 0,0"
             style="fill:#000000;fill-opacity:1;fill-rule:evenodd;stroke:none"
             id="path20" />
        </g>
        <g
           id="g22"
           transform="translate(554.8223,121.6318)">
          <path
             d="M 0,0 V -26.229 H 62.711 V -45.561 H 0.203 v -29.536 h 4.662 c 18.936,0 37.871,-0.045 56.806,0.052 2.544,0.014 4.138,-0.644 5.482,-2.929 3.286,-5.58 6.871,-10.984 10.637,-16.932 H -23.207 v 4.295 c 0,35.338 0.029,70.674 -0.053,106.011 -0.007,2.939 0.515,4.239 3.882,4.225 31.068,-0.12 62.14,-0.068 93.21,-0.08 0.908,-0.001 1.818,-0.152 3.522,-0.303 C 73.242,12.812 69.502,6.742 65.455,0.884 64.886,0.059 62.82,0.038 61.446,0.034 42.511,-0.018 23.575,0 4.64,0 Z"
             style="fill:#000000;fill-opacity:1;fill-rule:evenodd;stroke:none"
             id="path24" />
        </g>
        <g
           id="g26"
           transform="translate(160.8882,95.9316)">
          <path
             d="m 0,0 h 63.7 v 6.542 c 10e-4,11.6 0.075,23.201 -0.051,34.8 -0.03,2.833 0.617,4.084 3.747,3.975 C 73.617,45.1 79.85,45.253 86.319,45.253 V -69.238 H 63.784 v 48.936 H 0.204 V -69.203 H -22.43 V 44.94 H 0 Z"
             style="fill:#000000;fill-opacity:1;fill-rule:evenodd;stroke:none"
             id="path28" />
        </g>
        <g
           id="g30"
           transform="translate(347.0073,69.8232)">
          <path
             d="M 0,0 C -6.97,15.919 -13.746,31.395 -20.923,47.786 -28.079,31.322 -34.814,15.823 -41.691,0 Z m -86.407,-43.354 c 0.855,2.004 1.418,3.458 2.084,4.865 16.769,35.411 33.579,70.802 50.268,106.252 1.256,2.667 2.692,3.808 5.701,3.669 5.325,-0.244 10.676,0.091 15.999,-0.181 1.367,-0.07 3.337,-1.177 3.898,-2.35 C 9.206,32 26.729,-4.971 44.263,-41.936 c 0.106,-0.222 0.063,-0.515 0.149,-1.361 -8.078,0 -16.106,-0.068 -24.129,0.114 -0.738,0.017 -1.663,1.531 -2.12,2.525 -2.783,6.055 -5.548,12.121 -8.113,18.27 -0.915,2.193 -2.157,2.924 -4.503,2.911 -17.607,-0.088 -35.214,-0.089 -52.82,0.002 -2.353,0.012 -3.589,-0.736 -4.503,-2.919 -2.575,-6.144 -5.263,-12.248 -8.186,-18.233 -0.593,-1.215 -2.383,-2.563 -3.663,-2.606 -7.323,-0.248 -14.658,-0.121 -22.782,-0.121"
             style="fill:#000000;fill-opacity:1;fill-rule:evenodd;stroke:none"
             id="path32" />
        </g>
        <g
           id="g34"
           transform="translate(124.3472,26.5352)">
          <path
             d="m 0,0 c -25.585,0 -50.254,-0.449 -74.899,0.139 -20.495,0.49 -33.004,13.86 -33.291,34.372 -0.215,15.328 -0.223,30.665 0.002,45.993 0.293,19.96 12.118,33.118 31.95,33.783 24.769,0.831 49.582,0.318 74.377,0.368 0.359,0 0.718,-0.237 1.561,-0.532 -4.005,-6.3 -7.812,-12.496 -11.907,-18.496 -0.593,-0.87 -2.565,-1.107 -3.902,-1.113 -16.265,-0.073 -32.53,-0.048 -48.794,-0.051 -1.201,0 -2.4,-0.006 -3.6,-0.035 -11.24,-0.262 -15.798,-4.693 -15.904,-15.904 -0.13,-13.863 -0.126,-27.73 -0.01,-41.594 0.096,-11.366 4.69,-16.003 16.157,-16.111 16.664,-0.156 33.331,-0.188 49.992,0.053 3.867,0.056 6.027,-1.162 7.89,-4.45 C -7.315,11.017 -3.76,5.891 0,0"
             style="fill:#000000;fill-opacity:1;fill-rule:evenodd;stroke:none"
             id="path36" />
        </g>
        <g
           id="g38"
           transform="translate(821.0293,117.1904)">
          <path
             d="m 0,0 h -3.97 c -28.9,0 -57.801,0.063 -86.7,-0.078 -3.79,-0.019 -5.107,0.973 -5.004,4.899 0.258,9.849 0.072,19.709 0.091,29.564 0.01,5.532 1.629,7.244 7.029,7.258 13.984,0.036 27.968,0.071 41.951,-0.064 1.702,-0.017 3.828,-0.606 5.019,-1.719 C -28.054,27.229 -14.664,14.447 -1.248,1.694 -0.897,1.36 -0.66,0.906 0,0"
             style="fill:#4c79c8;fill-opacity:1;fill-rule:evenodd;stroke:none"
             id="path40" />
        </g>
        <g
           id="g42"
           transform="translate(784.9365,14.3779)">
          <path
             d="m 0,0 c -0.085,1.688 -0.191,2.841 -0.191,3.992 -0.01,28.944 0.062,57.887 -0.09,86.829 -0.022,3.91 1.175,5.017 4.997,4.921 9.73,-0.244 19.471,-0.068 29.208,-0.087 5.635,-0.01 6.969,-1.256 6.982,-6.712 C 40.941,74.672 40.997,60.398 40.822,46.13 40.799,44.197 40.006,41.813 38.717,40.43 26.624,27.455 14.348,14.65 2.113,1.808 1.601,1.269 0.979,0.832 0,0"
             style="fill:#4c79c8;fill-opacity:1;fill-rule:evenodd;stroke:none"
             id="path44" />
        </g>
        <g
           id="g46"
           transform="translate(682.4072,50.2236)">
          <path
             d="m 0,0 h 4.394 c 28.504,0 57.01,0.004 85.514,-0.003 5.249,-0.001 5.255,-0.02 5.258,-5.34 0.005,-9.591 0.025,-19.181 -0.01,-28.771 -0.019,-5.239 -1.73,-6.966 -6.927,-6.976 -14.252,-0.028 -28.506,-0.06 -42.757,0.061 -1.575,0.013 -3.545,0.574 -4.648,1.609 C 27.614,-27.026 14.532,-14.498 1.429,-1.992 1.067,-1.648 0.832,-1.173 0,0"
             style="fill:#4c79c8;fill-opacity:1;fill-rule:evenodd;stroke:none"
             id="path48" />
        </g>
        <g
           id="g50"
           transform="translate(717.5234,152.9185)">
          <path
             d="M 0,0 C 0.095,-1.805 0.219,-3.076 0.22,-4.347 0.23,-32.878 0.153,-61.41 0.312,-89.94 c 0.023,-4.037 -1.112,-5.312 -5.189,-5.198 -9.858,0.279 -19.73,0.062 -29.596,0.109 -4.932,0.023 -6.358,1.49 -6.368,6.509 -0.028,14.266 -0.067,28.532 0.065,42.796 0.015,1.697 0.59,3.823 1.699,5.009 12.292,13.145 24.737,26.145 37.152,39.174 C -1.499,-1.094 -0.957,-0.759 0,0"
             style="fill:#4c79c8;fill-opacity:1;fill-rule:evenodd;stroke:none"
             id="path52" />
        </g>
      </g>
    </g>
  </g>
</svg>
