<?xml version="1.0" encoding="UTF-8" standalone="no"?>
<!-- Created with Inkscape (http://www.inkscape.org/) -->

<svg
   version="1.1"
   id="svg2"
   width="349.70001"
   height="211.57733"
   viewBox="0 0 349.70001 211.57733"
   sodipodi:docname="citibank-seeklogo.ai"
   xmlns:inkscape="http://www.inkscape.org/namespaces/inkscape"
   xmlns:sodipodi="http://sodipodi.sourceforge.net/DTD/sodipodi-0.dtd"
   xmlns="http://www.w3.org/2000/svg"
   xmlns:svg="http://www.w3.org/2000/svg">
  <defs
     id="defs6">
    <clipPath
       clipPathUnits="userSpaceOnUse"
       id="clipPath16">
      <path
         d="M 0,158.683 H 262.275 V 0 H 0 Z"
         id="path14" />
    </clipPath>
  </defs>
  <sodipodi:namedview
     id="namedview4"
     pagecolor="#ffffff"
     bordercolor="#000000"
     borderopacity="0.25"
     inkscape:showpageshadow="2"
     inkscape:pageopacity="0.0"
     inkscape:pagecheckerboard="0"
     inkscape:deskcolor="#d1d1d1" />
  <g
     id="g8"
     inkscape:groupmode="layer"
     inkscape:label="citibank-seeklogo"
     transform="matrix(1.3333333,0,0,-1.3333333,0,211.57733)">
    <g
       id="g10">
      <g
         id="g12"
         clip-path="url(#clipPath16)">
        <g
           id="g18"
           transform="translate(74.4532,34.7832)">
          <path
             d="m 0,0 c -5.159,-6.52 -13.161,-10.689 -22.114,-10.689 -15.611,0 -28.243,12.648 -28.243,28.242 0,15.611 12.632,28.242 28.243,28.242 8.478,0 16.087,-3.727 21.246,-9.652 L 9.721,49.609 c -8.155,8.136 -19.409,13.142 -31.835,13.142 -24.957,0 -45.199,-20.241 -45.199,-45.198 0,-24.958 20.242,-45.182 45.199,-45.182 12.478,0 23.765,5.056 31.936,13.211 z"
             style="fill:#21254f;fill-opacity:1;fill-rule:nonzero;stroke:none"
             id="path20" />
        </g>
        <path
           d="M 112.393,8.146 H 93.327 v 87.557 h 19.066 z"
           style="fill:#21254f;fill-opacity:1;fill-rule:nonzero;stroke:none"
           id="path22" />
        <path
           d="m 216.362,7.688 h -19.065 v 87.556 h 19.065 z"
           style="fill:#21254f;fill-opacity:1;fill-rule:nonzero;stroke:none"
           id="path24" />
        <g
           id="g26"
           transform="translate(164.6758,7.2558)">
          <path
             d="m 0,0 c -16.39,0 -20.31,14.01 -20.71,21.89 h -0.12 v 50.04 h -16.76 v 16.05 h 16.76 v 16.99 L -3.84,115.3 -4.3,102.28 V 87.98 H 12.91 V 71.93 H -4.3 V 27.52 c -0.109,-0.621 -0.16,-1.26 -0.16,-1.911 0,-0.649 0.051,-1.29 0.16,-1.91 v -1 c 0.651,-3.88 3.26,-7.099 6.78,-8.609 1.38,-0.59 2.901,-0.92 4.5,-0.92 3.571,0 6.76,1.63 8.861,4.189 0.47,0.58 0.889,1.201 1.239,1.861 0.011,0.01 0.011,0.019 0.021,0.019 C 17.101,19.239 17.44,0 0,0"
             style="fill:#21254f;fill-opacity:1;fill-rule:nonzero;stroke:none"
             id="path28" />
        </g>
        <g
           id="g30"
           transform="translate(160.376,34.7753)">
          <path
             d="m 0,0 v -3.82 c -0.109,0.62 -0.16,1.261 -0.16,1.91 0,0.65 0.051,1.29 0.16,1.91"
             style="fill:#21254f;fill-opacity:1;fill-rule:nonzero;stroke:none"
             id="path32" />
        </g>
        <g
           id="g34"
           transform="translate(157.9551,149.8823)">
          <path
             d="m 0,0 c -32.345,0 -60.844,-16.479 -77.56,-41.504 h 26.966 c 13.04,12.752 30.915,20.633 50.594,20.633 19.679,0 37.554,-7.881 50.594,-20.633 H 77.561 C 60.844,-16.479 32.346,0 0,0"
             style="fill:#e30613;fill-opacity:1;fill-rule:nonzero;stroke:none"
             id="path36" />
        </g>
        <g
           id="g38"
           transform="translate(244.625,115.7031)">
          <path
             d="M 0,0 H 1.18 C 1.308,0 1.555,0.043 1.921,0.132 2.105,0.172 2.257,0.273 2.374,0.436 2.49,0.6 2.551,0.788 2.551,0.999 2.551,1.312 2.457,1.553 2.271,1.721 2.087,1.888 1.739,1.972 1.229,1.972 H 0 Z M -2.81,-5.77 V 3.931 H 1.851 C 2.717,3.931 3.377,3.85 3.836,3.693 4.292,3.533 4.658,3.239 4.94,2.808 5.219,2.378 5.36,1.854 5.36,1.237 5.36,0.7 5.252,0.235 5.038,-0.155 4.825,-0.545 4.529,-0.863 4.155,-1.105 3.916,-1.259 3.588,-1.387 3.173,-1.487 c 0.333,-0.121 0.575,-0.24 0.728,-0.359 0.103,-0.08 0.251,-0.249 0.448,-0.511 0.195,-0.26 0.325,-0.46 0.391,-0.602 L 6.094,-5.77 H 2.935 L 1.438,-2.805 C 1.25,-2.422 1.082,-2.173 0.932,-2.058 0.73,-1.908 0.503,-1.832 0.247,-1.832 H 0 V -5.77 Z"
             style="fill:#21254f;fill-opacity:1;fill-rule:nonzero;stroke:none"
             id="path40" />
        </g>
        <g
           id="g42"
           transform="translate(245.5264,106.6709)">
          <path
             d="m 0,0 c -4.41,0 -7.99,3.579 -7.99,7.989 0,4.411 3.58,7.983 7.99,7.983 4.408,0 7.982,-3.572 7.982,-7.983 C 7.982,3.579 4.408,0 0,0 m 0,17.778 c -5.406,0 -9.788,-4.383 -9.788,-9.789 0,-5.405 4.382,-9.789 9.788,-9.789 5.405,0 9.789,4.384 9.789,9.789 0,5.406 -4.384,9.789 -9.789,9.789"
             style="fill:#21254f;fill-opacity:1;fill-rule:nonzero;stroke:none"
             id="path44" />
        </g>
        <g
           id="g46"
           transform="translate(160.376,34.7753)">
          <path
             d="m 0,0 v -3.82 c -0.109,0.62 -0.16,1.261 -0.16,1.91 0,0.65 0.051,1.29 0.16,1.91"
             style="fill:#21254f;fill-opacity:1;fill-rule:nonzero;stroke:none"
             id="path48" />
        </g>
      </g>
    </g>
  </g>
</svg>
