<svg width="260" height="220" viewBox="0 0 260 220" fill="none" xmlns="http://www.w3.org/2000/svg">
<path d="M110.772 219.193C126.921 219.193 140.012 216.356 140.012 212.856C140.012 209.356 126.921 206.519 110.772 206.519C94.6234 206.519 81.5322 209.356 81.5322 212.856C81.5322 216.356 94.6234 219.193 110.772 219.193Z" fill="#12203F"/>
<path d="M214.509 212.856C230.657 212.856 243.748 210.019 243.748 206.519C243.748 203.019 230.657 200.182 214.509 200.182C198.36 200.182 185.269 203.019 185.269 206.519C185.269 210.019 198.36 212.856 214.509 212.856Z" fill="#12203F"/>
<path d="M167.988 206.519C209.893 206.519 243.863 203.682 243.863 200.182C243.863 196.682 209.893 193.845 167.988 193.845C126.083 193.845 92.1123 196.682 92.1123 200.182C92.1123 203.682 126.083 206.519 167.988 206.519Z" fill="#12203F"/>
<path d="M75.8756 202.205C117.781 202.205 151.751 199.368 151.751 195.869C151.751 192.369 117.781 189.532 75.8756 189.532C33.9707 189.532 0 192.369 0 195.869C0 199.368 33.9707 202.205 75.8756 202.205Z" fill="#12203F"/>
<path d="M58.0455 119.681C84.6612 119.681 106.237 98.0502 106.237 71.3666C106.237 44.683 84.6612 23.0516 58.0455 23.0516C31.4298 23.0516 9.85352 44.683 9.85352 71.3666C9.85352 98.0502 31.4298 119.681 58.0455 119.681Z" fill="#ACDAFF"/>
<path d="M58.0452 113.215C81.0989 113.215 99.7876 94.479 99.7876 71.3665C99.7876 48.254 81.0989 29.5176 58.0452 29.5176C34.9915 29.5176 16.3027 48.254 16.3027 71.3665C16.3027 94.479 34.9915 113.215 58.0452 113.215Z" fill="#E6FFFF"/>
<path opacity="0.57" d="M72.9766 72.9958C78.7986 64.1756 79.416 48.2809 76.49 39.8146C71.1573 36.6742 64.9605 34.844 58.3318 34.7914C38.1839 34.6329 21.7217 50.8789 21.5636 71.0789C21.518 76.9204 22.8474 82.4485 25.2385 87.3658C25.5219 87.4061 25.8224 87.3801 26.0875 87.4908C39.4125 93.0605 62.0305 89.5792 72.9766 72.9958Z" fill="#FFFAFF"/>
<path d="M58.2632 43.1578C58.965 43.1632 59.5435 42.5921 59.549 41.8885L59.6103 34.0555C59.6157 33.3518 59.0461 32.7719 58.3442 32.7664C57.6424 32.7609 57.0639 33.332 57.0584 34.0357L56.9971 41.8686C56.9923 42.5723 57.5613 43.1523 58.2632 43.1578Z" fill="#ACDAFF"/>
<path d="M57.7387 109.965C58.4406 109.971 59.0191 109.4 59.0246 108.696L59.0859 100.863C59.0913 100.16 58.5217 99.5796 57.8198 99.5741C57.118 99.5687 56.5395 100.14 56.534 100.843L56.4727 108.676C56.4679 109.38 57.0369 109.96 57.7387 109.965Z" fill="#ACDAFF"/>
<path d="M86.1719 71.5878C86.1665 72.2914 86.7361 72.8714 87.438 72.8769L95.251 72.9384C95.9529 72.9439 96.5314 72.3727 96.5368 71.6691C96.5423 70.9655 95.9726 70.3855 95.2708 70.38L87.4577 70.3185C86.7559 70.3137 86.1774 70.8842 86.1719 71.5878Z" fill="#ACDAFF"/>
<path d="M19.5352 71.0631C19.5297 71.7668 20.0994 72.3468 20.8012 72.3522L28.6143 72.4137C29.3161 72.4192 29.8947 71.8481 29.9001 71.1444C29.9056 70.4408 29.3359 69.8608 28.634 69.8553L20.821 69.7939C20.1192 69.7884 19.5406 70.3595 19.5352 71.0631Z" fill="#ACDAFF"/>
<path d="M75.3928 43.0451C76.0973 43.0451 76.6684 42.4726 76.6684 41.7663C76.6684 41.06 76.0973 40.4874 75.3928 40.4874C74.6883 40.4874 74.1172 41.06 74.1172 41.7663C74.1172 42.4726 74.6883 43.0451 75.3928 43.0451Z" fill="#ACDAFF"/>
<path d="M40.6809 102.245C41.3854 102.245 41.9565 101.672 41.9565 100.966C41.9565 100.26 41.3854 99.6871 40.6809 99.6871C39.9764 99.6871 39.4053 100.26 39.4053 100.966C39.4053 101.672 39.9764 102.245 40.6809 102.245Z" fill="#ACDAFF"/>
<path d="M87.8332 55.7116C88.5377 55.7116 89.1088 55.1391 89.1088 54.4328C89.1088 53.7265 88.5377 53.1539 87.8332 53.1539C87.1287 53.1539 86.5576 53.7265 86.5576 54.4328C86.5576 55.1391 87.1287 55.7116 87.8332 55.7116Z" fill="#ACDAFF"/>
<path d="M28.2473 89.5794C28.9518 89.5794 29.5229 89.0069 29.5229 88.3006C29.5229 87.5943 28.9518 87.0217 28.2473 87.0217C27.5428 87.0217 26.9717 87.5943 26.9717 88.3006C26.9717 89.0069 27.5428 89.5794 28.2473 89.5794Z" fill="#ACDAFF"/>
<path d="M87.5637 90.0457C88.2682 90.0457 88.8393 89.4732 88.8393 88.7669C88.8393 88.0606 88.2682 87.488 87.5637 87.488C86.8592 87.488 86.2881 88.0606 86.2881 88.7669C86.2881 89.4732 86.8592 90.0457 87.5637 90.0457Z" fill="#ACDAFF"/>
<path d="M28.5158 55.2442C29.2203 55.2442 29.7914 54.6717 29.7914 53.9654C29.7914 53.2591 29.2203 52.6865 28.5158 52.6865C27.8113 52.6865 27.2402 53.2591 27.2402 53.9654C27.2402 54.6717 27.8113 55.2442 28.5158 55.2442Z" fill="#ACDAFF"/>
<path d="M74.9309 102.515C75.6354 102.515 76.2065 101.942 76.2065 101.236C76.2065 100.53 75.6354 99.957 74.9309 99.957C74.2264 99.957 73.6553 100.53 73.6553 101.236C73.6553 101.942 74.2264 102.515 74.9309 102.515Z" fill="#ACDAFF"/>
<path d="M41.1506 42.7763C41.8551 42.7763 42.4262 42.2038 42.4262 41.4975C42.4262 40.7912 41.8551 40.2186 41.1506 40.2186C40.4461 40.2186 39.875 40.7912 39.875 41.4975C39.875 42.2038 40.4461 42.7763 41.1506 42.7763Z" fill="#ACDAFF"/>
<path d="M70.9943 61.7482C74.8102 60.2556 92.6175 52.5763 92.6175 52.5763L92.6829 52.6986L92.8124 52.9404L92.8778 53.0627C92.8778 53.0627 76.6705 63.7253 73.3254 66.0944C69.9804 68.4636 58.1191 72.169 58.1191 72.169L57.9031 71.7659L57.7736 71.5241L57.5576 71.121C57.5576 71.121 67.1791 63.2409 70.9943 61.7482Z" fill="#FFBC00"/>
<path d="M45.9357 73.9621C43.0152 73.5085 29.1547 72.0233 29.1547 72.0233L29.1526 71.8846L29.1485 71.61L29.1465 71.4713C29.1465 71.4713 42.9566 69.5701 45.8621 69.0284C48.7677 68.4867 57.5415 70.7253 57.5415 70.7253L57.5483 71.1831L57.5524 71.4577L57.5592 71.9154C57.5592 71.9154 48.8562 74.4164 45.9357 73.9621Z" fill="#FFBC00"/>
<path d="M58.0441 73.9245C59.4534 73.9245 60.5959 72.7791 60.5959 71.3661C60.5959 69.9532 59.4534 68.8077 58.0441 68.8077C56.6347 68.8077 55.4922 69.9532 55.4922 71.3661C55.4922 72.7791 56.6347 73.9245 58.0441 73.9245Z" fill="#ACDAFF"/>
<path d="M32.7096 123.613L21.3587 191.78C21.2279 192.565 21.8316 193.279 22.6254 193.279C23.2298 193.279 23.7525 192.857 23.8806 192.265L38.7421 123.613H32.7096Z" fill="#ACDAFF"/>
<path d="M43.6833 119.518L35.6856 188.163C35.5936 188.953 36.2314 189.637 37.0246 189.598C37.6283 189.568 38.1298 189.12 38.2286 188.523L49.709 119.221L43.6833 119.518Z" fill="#ACDAFF"/>
<path d="M90.6087 123.613L101.96 191.78C102.09 192.565 101.487 193.279 100.693 193.279C100.088 193.279 99.5658 192.857 99.4377 192.265L84.5762 123.613H90.6087Z" fill="#ACDAFF"/>
<path d="M79.6344 119.518L87.6328 188.163C87.7248 188.953 87.087 189.637 86.2938 189.598C85.6901 189.568 85.1886 189.12 85.0898 188.523L73.6094 119.221L79.6344 119.518Z" fill="#ACDAFF"/>
<path d="M100.213 125.199H24.2474C22.5207 125.199 21.1074 123.783 21.1074 122.052C21.1074 120.32 22.5207 118.904 24.2474 118.904H100.213C101.94 118.904 103.353 120.32 103.353 122.052C103.353 123.783 101.94 125.199 100.213 125.199Z" fill="#2099FF"/>
<path d="M25.1827 177.796L24.9892 177.727C25.0124 177.663 27.2569 171.206 25.9643 163.563C24.7725 156.517 20.2398 146.988 5.41504 141.612L5.48455 141.418C12.0704 143.806 17.2055 147.204 20.7461 151.518C23.5807 154.971 25.4049 159.016 26.168 163.537C27.4668 171.23 25.2052 177.731 25.1827 177.796Z" fill="#89C661"/>
<path d="M7.4996 142.309C7.4996 142.309 3.60126 142.899 1.59178 141.1C-0.418372 139.302 3.00639 138.434 7.4996 142.309Z" fill="#89C661"/>
<path d="M11.5365 144.229C11.5365 144.229 10.3161 139.059 8.42175 138.041C6.52675 137.023 6.26032 140.707 11.5365 144.229Z" fill="#89C661"/>
<path d="M10.9199 143.874C10.9199 143.874 5.67377 143.125 4.03635 144.521C2.3996 145.918 5.72284 147.512 10.9199 143.874Z" fill="#89C661"/>
<path d="M14.1406 145.856C14.1406 145.856 8.89448 145.106 7.25705 146.503C5.62031 147.899 8.94354 149.494 14.1406 145.856Z" fill="#89C661"/>
<path d="M17.3877 148.154C17.3877 148.154 12.1415 147.404 10.5041 148.801C8.86738 150.197 12.1906 151.791 17.3877 148.154Z" fill="#89C661"/>
<path d="M20.529 151.329C20.529 151.329 15.3591 150.161 13.6161 151.421C11.8724 152.682 15.058 154.538 20.529 151.329Z" fill="#89C661"/>
<path d="M23.4014 155.546C23.4014 155.546 18.5961 153.305 16.6261 154.167C14.6562 155.029 17.3771 157.519 23.4014 155.546Z" fill="#89C661"/>
<path d="M25.491 160.711C25.491 160.711 21.6533 157.046 19.5117 157.231C17.37 157.415 19.1525 160.647 25.491 160.711Z" fill="#89C661"/>
<path d="M26.4046 166.748C26.4046 166.748 24.0081 162.01 21.9277 161.466C19.8474 160.923 20.4511 164.567 26.4046 166.748Z" fill="#89C661"/>
<path d="M26.1721 172.679C26.1721 172.679 24.9265 167.515 23.0274 166.507C21.1283 165.498 20.8789 169.182 26.1721 172.679Z" fill="#89C661"/>
<path d="M15.1477 146.479C15.1477 146.479 15.6629 141.936 13.9191 139.505C12.1747 137.074 11.5867 139.862 12.2572 141.429C12.927 142.997 15.1477 146.479 15.1477 146.479Z" fill="#89C661"/>
<path d="M17.7968 148.584C17.7968 148.584 19.0226 144.179 17.6837 141.503C16.3447 138.826 15.3246 141.485 15.7389 143.139C16.1532 144.793 17.7968 148.584 17.7968 148.584Z" fill="#89C661"/>
<path d="M20.2563 151.064C20.2563 151.064 22.4668 147.064 21.7833 144.149C21.0999 141.234 19.4924 143.584 19.5129 145.29C19.5333 146.995 20.2563 151.064 20.2563 151.064Z" fill="#89C661"/>
<path d="M22.6567 154.257C22.6567 154.257 24.8672 150.257 24.1837 147.342C23.5003 144.427 21.8928 146.776 21.9133 148.482C21.9344 150.187 22.6567 154.257 22.6567 154.257Z" fill="#89C661"/>
<path d="M24.7452 158.623C24.7452 158.623 27.4518 154.943 27.1486 151.963C26.8454 148.985 24.9497 151.107 24.7507 152.8C24.5524 154.495 24.7452 158.623 24.7452 158.623Z" fill="#89C661"/>
<path d="M26.1572 164.423C26.1572 164.423 29.5118 161.324 29.7776 158.341C30.044 155.359 27.7803 157.082 27.2652 158.707C26.7494 160.332 26.1572 164.423 26.1572 164.423Z" fill="#89C661"/>
<path d="M26.3926 169.691C26.3926 169.691 30.2991 167.33 31.1584 164.463C32.0169 161.595 29.4548 162.826 28.6235 164.314C27.7922 165.803 26.3926 169.691 26.3926 169.691Z" fill="#89C661"/>
<path d="M50.3493 167.63L50.5429 167.561C50.5197 167.497 48.2751 161.039 49.5678 153.398C50.7595 146.351 55.2923 136.823 70.117 131.446L70.0475 131.252C63.4617 133.64 58.3266 137.038 54.786 141.353C51.9513 144.806 50.1272 148.849 49.364 153.371C48.0653 161.065 50.3262 167.566 50.3493 167.63Z" fill="#89C661"/>
<path d="M68.0332 132.143C68.0332 132.143 71.9316 132.733 73.941 130.935C75.9512 129.137 72.5264 128.268 68.0332 132.143Z" fill="#89C661"/>
<path d="M63.9941 134.063C63.9941 134.063 65.2145 128.893 67.1089 127.875C69.0039 126.858 69.2703 130.542 63.9941 134.063Z" fill="#89C661"/>
<path d="M64.6133 133.709C64.6133 133.709 69.8594 132.96 71.4969 134.356C73.1336 135.752 69.8104 137.347 64.6133 133.709Z" fill="#89C661"/>
<path d="M61.3896 135.69C61.3896 135.69 66.6358 134.941 68.2732 136.337C69.9107 137.733 66.5868 139.328 61.3896 135.69Z" fill="#89C661"/>
<path d="M58.1445 137.988C58.1445 137.988 63.3907 137.239 65.0281 138.635C66.6656 140.032 63.3416 141.625 58.1445 137.988Z" fill="#89C661"/>
<path d="M55.0029 141.163C55.0029 141.163 60.1728 139.995 61.9158 141.255C63.6596 142.517 60.474 144.372 55.0029 141.163Z" fill="#89C661"/>
<path d="M52.1309 145.381C52.1309 145.381 56.9362 143.141 58.9061 144.002C60.8761 144.864 58.1552 147.354 52.1309 145.381Z" fill="#89C661"/>
<path d="M50.0381 150.545C50.0381 150.545 53.8758 146.881 56.0175 147.065C58.1591 147.249 56.3766 150.481 50.0381 150.545Z" fill="#89C661"/>
<path d="M49.124 156.584C49.124 156.584 51.5205 151.845 53.6009 151.301C55.6812 150.758 55.0775 154.402 49.124 156.584Z" fill="#89C661"/>
<path d="M49.3594 162.513C49.3594 162.513 50.605 157.349 52.5041 156.341C54.4032 155.333 54.6526 159.017 49.3594 162.513Z" fill="#89C661"/>
<path d="M60.3836 136.314C60.3836 136.314 59.8684 131.77 61.6121 129.339C63.3566 126.909 63.9446 129.696 63.2741 131.264C62.6043 132.832 60.3836 136.314 60.3836 136.314Z" fill="#89C661"/>
<path d="M57.7364 138.419C57.7364 138.419 56.5106 134.014 57.8495 131.337C59.1885 128.661 60.2086 131.319 59.7943 132.974C59.38 134.628 57.7364 138.419 57.7364 138.419Z" fill="#89C661"/>
<path d="M55.2763 140.899C55.2763 140.899 53.0658 136.899 53.7493 133.984C54.4328 131.069 56.0402 133.419 56.0198 135.125C55.9993 136.83 55.2763 140.899 55.2763 140.899Z" fill="#89C661"/>
<path d="M52.874 144.091C52.874 144.091 50.6635 140.092 51.347 137.177C52.0304 134.262 53.6379 136.611 53.6174 138.317C53.5963 140.022 52.874 144.091 52.874 144.091Z" fill="#89C661"/>
<path d="M50.7854 148.459C50.7854 148.459 48.0789 144.778 48.3821 141.799C48.6853 138.82 50.581 140.942 50.78 142.636C50.9783 144.33 50.7854 148.459 50.7854 148.459Z" fill="#89C661"/>
<path d="M49.3725 154.257C49.3725 154.257 46.0179 151.158 45.7522 148.176C45.4858 145.193 47.7494 146.916 48.2645 148.541C48.7804 150.167 49.3725 154.257 49.3725 154.257Z" fill="#89C661"/>
<path d="M49.1388 159.525C49.1388 159.525 45.2323 157.165 44.373 154.297C43.5138 151.429 46.0766 152.661 46.9079 154.149C47.7392 155.638 49.1388 159.525 49.1388 159.525Z" fill="#89C661"/>
<path d="M204.094 200.945H121.108C115.235 200.945 106.109 196.518 106.79 190.63L132.136 13.7573C132.817 7.86929 138.131 3.09545 144.004 3.09545L221.911 0.0506592C231.385 0.0506592 237.071 7.86861 236.39 13.7573L215.962 190.283C215.281 196.171 209.967 200.945 204.094 200.945Z" fill="#144182"/>
<path d="M197.979 197.85H114.995C109.121 197.85 104.912 193.077 105.594 187.188L126.022 10.6619C126.703 4.77383 132.017 0 137.891 0H220.875C226.748 0 230.957 4.77315 230.276 10.6619L209.848 187.188C209.167 193.076 203.853 197.85 197.979 197.85Z" fill="#2099FF"/>
<path d="M197.959 194.149H115.871C111.401 194.149 108.199 190.516 108.717 186.035L128.948 11.2099C129.467 6.72849 133.511 3.09619 137.98 3.09619H220.068C224.538 3.09619 227.74 6.72917 227.222 11.2099L206.991 186.035C206.472 190.516 202.429 194.149 197.959 194.149Z" fill="#C4E9FD"/>
<path d="M164.371 189.75H147.261C145.28 189.75 143.847 188.124 144.077 186.139C144.307 184.153 146.116 182.527 148.097 182.527H165.207C167.188 182.527 168.621 184.153 168.392 186.139C168.161 188.124 166.352 189.75 164.371 189.75Z" fill="#2099FF"/>
<path d="M141.685 11.4406C142.836 10.3516 142.985 8.63539 142.017 7.60747C141.05 6.57955 139.332 6.62913 138.181 7.71822C137.03 8.8073 136.881 10.5235 137.849 11.5514C138.816 12.5793 140.534 12.5297 141.685 11.4406Z" fill="#2099FF"/>
<path d="M148.237 10.7005C148.93 10.0444 149.02 9.01038 148.437 8.39105C147.854 7.77172 146.82 7.80156 146.126 8.4577C145.432 9.11384 145.343 10.1478 145.926 10.7672C146.509 11.3865 147.543 11.3566 148.237 10.7005Z" fill="#2099FF"/>
<path d="M203.507 178.4H113.283L131.984 16.7958H222.208L203.507 178.4Z" fill="white"/>
<path d="M209.717 41.7307H138.784C136.605 41.7307 135.044 39.96 135.296 37.7753L136.729 25.3939C136.982 23.2092 138.953 21.4385 141.132 21.4385H212.065C214.244 21.4385 215.806 23.2092 215.553 25.3939L214.12 37.7753C213.867 39.96 211.896 41.7307 209.717 41.7307Z" fill="#E6F2FF"/>
<path d="M148.408 63.9742H132.263L134.135 47.7877H150.281L148.408 63.9742Z" fill="#E6F2FF"/>
<path d="M169.299 63.9742H153.153L155.027 47.7877H171.173L169.299 63.9742Z" fill="#C4E9FD"/>
<path d="M190.193 63.9742H174.047L175.92 47.7877H192.066L190.193 63.9742Z" fill="#E6F2FF"/>
<path d="M211.085 63.9742H194.939L196.813 47.7877H212.959L211.085 63.9742Z" fill="#E6F2FF"/>
<path d="M146.014 84.6734H129.868L131.741 68.4869H147.887L146.014 84.6734Z" fill="#E6F2FF"/>
<path d="M166.907 84.6734H150.761L152.634 68.4869H168.78L166.907 84.6734Z" fill="#E6F2FF"/>
<path d="M187.798 84.6734H171.652L173.526 68.4869H189.672L187.798 84.6734Z" fill="#E6F2FF"/>
<path d="M208.693 84.6734H192.547L194.42 68.4869H210.566L208.693 84.6734Z" fill="#E6F2FF"/>
<path d="M143.618 105.374H127.473L129.346 89.1864H145.491L143.618 105.374Z" fill="#E6F2FF"/>
<path d="M164.511 105.374H148.365L150.238 89.1864H166.384L164.511 105.374Z" fill="#E6F2FF"/>
<path d="M185.402 105.374H169.257L171.13 89.1864H187.275L185.402 105.374Z" fill="#E6F2FF"/>
<path d="M206.297 105.374H190.151L192.025 89.1864H208.17L206.297 105.374Z" fill="#E6F2FF"/>
<path d="M141.223 126.073H125.078L126.951 109.886H143.097L141.223 126.073Z" fill="#E6F2FF"/>
<path d="M162.116 126.073H145.971L147.843 109.886H163.989L162.116 126.073Z" fill="#E6F2FF"/>
<path d="M183.008 126.073H166.862L168.736 109.886H184.881L183.008 126.073Z" fill="#E6F2FF"/>
<path d="M203.901 126.073H187.755L189.628 109.886H205.774L203.901 126.073Z" fill="#E6F2FF"/>
<path d="M137.245 159.55C137.392 158.281 138.542 157.249 139.808 157.249H154.397C155.767 157.249 157.036 156.46 157.707 155.19C158.378 153.921 158.263 152.529 157.406 151.557L151.742 145.134C151.188 144.504 150.393 144.158 149.504 144.158H131.759C130.784 144.158 129.984 143.537 129.77 142.614L129.019 139.377C128.853 138.664 129.05 137.902 129.556 137.286C130.064 136.67 130.787 136.317 131.541 136.317H156.018C156.625 136.317 157.171 136.553 157.554 136.981L166.717 147.225C166.796 146.774 166.887 146.324 166.979 145.88L158.362 136.247C157.807 135.627 157.017 135.286 156.136 135.286H131.659C130.568 135.286 129.52 135.797 128.786 136.689C128.051 137.581 127.766 138.684 128.006 139.717L128.758 142.954C129.069 144.291 130.226 145.19 131.639 145.19H149.383C149.997 145.19 150.546 145.429 150.929 145.864L156.593 152.288C157.3 153.089 157.163 154.11 156.8 154.796C156.437 155.483 155.645 156.217 154.514 156.217H139.925C138.091 156.217 136.426 157.713 136.214 159.551L135.821 162.943C135.609 164.782 136.927 166.277 138.761 166.277H154.88C156.146 166.277 157.057 167.31 156.905 168.618C156.759 169.888 155.609 170.921 154.343 170.921H122.098L121.979 171.952H154.223C156.057 171.952 157.722 170.457 157.939 168.579C158.152 166.741 156.833 165.246 155 165.246H138.88C137.614 165.246 136.704 164.213 136.85 162.943L137.245 159.55Z" fill="#E6F2FF"/>
<path d="M172.71 138.922C172.406 141.554 166.846 148.539 166.846 148.539C166.846 148.539 162.902 141.554 163.206 138.922C163.51 136.291 165.885 134.158 168.51 134.158C171.134 134.158 173.015 136.291 172.71 138.922Z" fill="#C4E9FD"/>
<path d="M169.636 140.464C170.722 139.436 170.863 137.817 169.95 136.847C169.037 135.878 167.417 135.925 166.33 136.952C165.244 137.98 165.103 139.599 166.016 140.569C166.929 141.539 168.549 141.492 169.636 140.464Z" fill="white"/>
<path d="M126.699 174.186C128.397 172.58 128.617 170.05 127.19 168.534C125.764 167.019 123.231 167.092 121.534 168.698C119.836 170.304 119.616 172.834 121.043 174.35C122.469 175.865 125.002 175.792 126.699 174.186Z" fill="#C4E9FD"/>
<path d="M125.449 172.858C126.325 172.03 126.439 170.723 125.702 169.941C124.966 169.159 123.659 169.196 122.783 170.025C121.907 170.854 121.793 172.16 122.53 172.943C123.266 173.725 124.573 173.687 125.449 172.858Z" fill="white"/>
<path d="M86.6443 97.36C86.6443 97.36 95.1265 84.9821 96.4709 82.0363C97.8153 79.0906 97.9618 76.5855 95.8542 75.0552C93.7466 73.525 89.8619 72.3247 86.4283 77.1751C82.9954 82.0261 76.6487 96.9242 76.3891 101.585C76.1295 106.246 97.1537 120.359 99.0221 121.271C101.081 120.731 101.955 117.648 101.955 117.648C101.955 117.648 88.3799 100.37 86.6443 97.36Z" fill="#C4E9FD"/>
<path d="M93.6045 199.769C93.6045 199.769 94.0304 202.215 92.6362 205.902C91.2421 209.59 91.1651 210.755 92.6362 211.57C94.1074 212.385 95.1533 212.618 99.2575 211.57C103.362 210.522 107.931 208.231 107.931 208.231C107.931 208.231 103.478 205.398 102.394 204.194C101.31 202.99 99.0251 198.682 99.0639 198.061C99.1028 197.44 93.6045 199.769 93.6045 199.769Z" fill="#F79E77"/>
<path d="M104.765 206.103C103.114 207.207 101.536 208.413 99.421 208.11C97.7229 207.685 97.0865 205.982 96.0249 204.706C95.293 204.119 94.1578 203.937 93.1752 204.229C93.0362 204.752 92.8597 205.311 92.6362 205.903C91.2421 209.59 91.1651 210.755 92.6362 211.57C94.1074 212.385 95.1533 212.618 99.2575 211.57C103.362 210.522 107.931 208.231 107.931 208.231C107.931 208.231 106.295 207.191 104.765 206.103Z" fill="#0C2C51"/>
<path d="M143.391 72.3957L148.53 74.6139C150.235 72.4961 151.515 70.9003 152.351 70.7268C154.527 71.0192 155.46 70.0962 156.042 69.3509C156.624 68.6063 155.897 68.1793 155.991 67.8938C156.592 67.007 155.573 66.6586 155.736 66.4489C156.368 65.7098 156.251 65.3094 155.87 65.1072C155.489 64.905 154.847 64.7171 154.965 64.3455C155.083 63.9739 156.647 62.9833 158.006 62.3377C159.366 61.6922 160.861 60.6565 160.033 60.112C159.206 59.5676 151.483 63.2873 150.038 64.8743C148.593 66.4612 148.965 68.1506 147.152 69.8988C146.494 70.5335 145.037 71.4721 143.391 72.3957Z" fill="#FFB797"/>
<path d="M98.9724 199.018C98.9724 199.018 99.3335 204.039 97.7336 208.128C96.133 212.217 96.5977 214.028 99.4889 214.857C102.38 215.686 103.981 213.718 107.75 213.822C111.518 213.926 116.526 213.511 117.817 210.044C119.107 206.576 113.082 208.125 109.435 207.04C105.787 205.954 107.409 199.536 107.409 199.536L98.9724 199.018Z" fill="#FFAE83"/>
<path d="M109.537 206.967C109.21 208.066 112.184 209.226 111.306 209.813C108.122 212.153 104.302 208.111 100.694 206.834C99.9584 206.466 99.0821 206.453 98.2276 206.63C98.0879 207.136 97.9251 207.639 97.7336 208.128C96.133 212.218 96.5977 214.029 99.4889 214.857C102.38 215.685 103.981 213.719 107.75 213.822C111.518 213.926 118.647 213.21 119.938 209.743C121.215 206.309 113.194 207.989 109.537 206.967Z" fill="#0F3163"/>
<path d="M119.498 208.085C119.477 208.167 119.454 208.249 119.421 208.337C118.131 211.805 111.002 212.52 107.233 212.417C103.464 212.313 101.864 214.28 98.9724 213.452C97.9802 213.167 97.2811 212.764 96.8457 212.195C96.9697 213.572 97.8256 214.379 99.4909 214.856C102.382 215.684 103.983 213.717 107.751 213.821C111.52 213.925 118.649 213.209 119.939 209.741C120.236 208.948 120.029 208.429 119.498 208.085Z" fill="#0C2C51"/>
<path d="M105.064 134.63C103.09 133.693 101.764 132.301 100.903 130.76C99.1981 127.707 99.3344 124.066 99.9524 122.208C100.882 119.413 104.599 112.374 104.599 112.374L95.4606 110.679C95.4606 110.679 91.3564 117.783 89.2652 123.373C87.1739 128.964 88.8781 134.864 89.8846 139.289C90.891 143.715 93.447 156.37 92.3629 161.106C91.2787 165.842 89.2652 173.062 89.8076 178.574C90.35 184.087 93.06 197.208 92.983 200.158C93.8974 200.568 94.7928 200.707 95.62 200.687C98.086 200.628 99.9524 199.148 99.9524 199.148C99.9524 199.148 100.572 176.555 102.895 166.617C105.218 156.679 107.542 138.202 105.064 134.63Z" fill="#0A2256"/>
<path d="M105.064 134.63C103.091 133.693 101.764 132.301 100.904 130.76C97.0366 128.928 99.733 121.813 99.4195 117.421C97.8884 121.661 92.0303 129.302 100.035 138.825C102.884 141.477 100.104 162.289 97.6608 171.675C95.4714 179.633 96.4281 192.414 96.8152 200.546C98.6631 200.166 99.9524 199.148 99.9524 199.148C99.9524 199.148 100.572 176.555 102.895 166.617C105.219 156.68 107.543 138.202 105.064 134.63Z" fill="#0F3163"/>
<path d="M119.677 112.27C119.677 112.27 122.361 122.519 121.536 133.492C120.71 144.464 113.378 162.891 112.553 166.928C111.727 170.966 110.591 182.575 109.558 187.795C108.526 193.015 108.01 197.88 108.577 199.226C106.151 201.814 99.6971 201.504 98.2518 199.226C98.7683 188.564 98.5101 179.403 100.524 172.208C102.537 165.013 101.298 163.15 102.124 158.646C102.95 154.143 103.776 140.22 104.19 138.564C104.603 136.908 100.473 136.079 98.9755 133.388C97.4784 130.696 94.3807 124.226 102.951 111.028C112.087 110.718 119.677 112.27 119.677 112.27Z" fill="#0A2256"/>
<path d="M119.677 112.27C119.677 112.27 112.087 110.718 102.949 111.028C102.778 111.293 102.618 111.55 102.456 111.809C109.993 111.906 115.765 113.086 115.765 113.086C115.765 113.086 118.449 123.335 117.624 134.307C116.798 145.28 110.943 163.401 110.117 167.438C109.291 171.475 108.964 182.559 107.932 187.779C107.041 192.28 106.878 197.88 107.214 200.202C107.738 199.939 108.209 199.621 108.577 199.227C108.01 197.881 108.525 193.016 109.558 187.796C110.591 182.576 111.727 170.966 112.552 166.929C113.378 162.892 120.71 144.466 121.536 133.492C122.361 122.519 119.677 112.27 119.677 112.27Z" fill="#0A2256"/>
<path d="M114.976 50.3661C114.976 50.3661 115.75 59.579 114.718 62.4257C113.686 65.2724 112.653 67.343 112.085 67.9121C111.518 68.4811 108.784 67.4462 108.241 67.9121C107.697 68.378 107.749 73.7092 107.749 73.7092L100.159 73.3984C100.159 73.3984 101.037 63.7715 101.708 61.1318C102.379 58.4921 114.202 50.1591 114.976 50.3661Z" fill="#FFAE83"/>
<path d="M97.0126 73.218C97.0126 73.218 102.898 70.2675 107.7 72.597C112.501 74.9258 120.013 84.7085 121.175 86.5721C122.337 88.4358 123.111 92.6282 121.175 96.432C119.239 100.236 119.936 111.416 120.942 113.357C112.811 115.764 100.188 114.211 94.3803 111.649C97.6327 106.913 99.3369 105.128 97.0133 99.9256C94.6897 94.7234 91.9014 79.9723 97.0126 73.218Z" fill="#29AEE9"/>
<path d="M117.516 97.1496C119.452 93.3452 118.678 89.1527 117.516 87.2898C116.354 85.4262 108.843 75.6442 104.041 73.3146C102.383 72.5099 100.599 72.3425 98.969 72.4586C97.7752 72.8385 97.01 73.2183 97.01 73.2183C91.8987 79.9726 94.6864 94.7245 97.01 99.9259C99.3329 105.127 97.6294 106.913 94.377 111.649C99.2641 113.805 108.977 115.246 116.778 114.215C116.948 114.169 117.118 114.124 117.284 114.075C116.277 112.134 115.58 100.954 117.516 97.1496Z" fill="#29AEE9"/>
<path d="M126.671 84.4757C126.671 84.4757 114.417 75.8394 111.493 74.4601C108.569 73.0808 106.072 72.9073 104.523 75.0039C102.974 77.1005 101.736 80.9821 106.537 84.4757C111.338 87.9693 126.129 94.4913 130.776 94.8015C135.422 95.1123 149.723 74.1868 150.653 72.3232C150.136 70.2526 147.071 69.344 147.071 69.344C147.071 69.344 129.691 82.7678 126.671 84.4757Z" fill="#C4E9FD"/>
<path d="M106.536 84.4759C106.373 84.3571 106.233 84.245 106.083 84.1302C106.227 84.2457 106.378 84.3612 106.536 84.4759Z" fill="#FF69A6"/>
<path d="M104.222 77.0316C105.771 74.9351 108.268 75.1093 111.192 76.4879C114.115 77.8671 125.903 85.5894 125.903 85.5894C128.923 83.8816 147.068 69.3435 147.068 69.3435C147.068 69.3435 129.69 82.768 126.67 84.4759C126.67 84.4759 114.415 75.8396 111.491 74.4603C108.567 73.081 106.071 72.9075 104.522 75.0041C103.798 75.9851 103.141 77.3568 103.139 78.8966C103.355 78.2634 103.759 77.6581 104.222 77.0316Z" fill="#C4E9FD"/>
<path d="M114.409 46.0186C110.899 42.499 104.393 41.1532 104.393 41.1532C98.8731 39.2739 94.5843 44.4658 93.3448 49.1242C92.106 53.7826 92.7152 59.2027 90.8154 65.3237C89.8546 68.307 76.1058 89.6567 94.1304 105.12C98.7122 107.389 102.219 108.388 107.172 104.558C101.954 92.1201 103.603 80.1842 104.655 76.6052C105.672 73.1444 107.763 73.0159 109.681 73.7305C109.768 73.7646 109.854 73.7981 109.944 73.8343C109.765 73.4839 109.534 73.0808 109.261 72.6388C108.295 69.7518 109.205 63.7634 111.182 61.649C113.505 59.1644 114.59 55.1277 114.977 52.1772C115.519 55.6708 114.28 57.8446 113.428 59.0872C116.758 56.5254 117.92 49.5382 114.409 46.0186Z" fill="#144182"/>
<path d="M92.3022 92.3039C90.2669 78.0213 95.9655 63.3302 101.257 49.864C102.841 45.7365 107.381 43.8332 112.002 44.1523C108.543 42.0133 104.393 41.1532 104.393 41.1532C98.8731 39.2739 94.5843 44.4658 93.3448 49.1242C92.106 53.7826 92.7152 59.2027 90.8154 65.3237C89.8546 68.307 76.1058 89.6567 94.1304 105.12C97.8346 106.955 100.836 107.958 104.467 106.252C102.919 105.975 101.106 104.961 100.721 104.648C96.651 101.792 93.1165 97.2007 92.3022 92.3039Z" fill="#0F3163"/>
<path d="M201.519 105.257C201.519 105.257 193.711 82.0871 200.739 75.4326C207.767 68.778 199.045 59.3335 201.111 53.1818C203.177 47.03 210.743 43.3752 214.041 54.6608C217.34 65.9464 218.276 66.2955 226.568 66.8153C234.86 67.3352 234.222 84.073 232.755 91.7741C231.289 99.4752 239.433 87.3104 241.896 95.5765C244.358 103.843 232.427 120.888 219.876 129.771C207.325 138.654 191.976 113.389 193.03 107.07C194.085 100.75 198.692 109.209 201.519 105.257Z" fill="#89C661"/>
<path d="M202.624 72.936C202.188 73.8009 201.579 74.6364 200.739 75.4323C193.711 82.0868 201.519 105.257 201.519 105.257C198.691 109.209 194.085 100.75 193.031 107.069C191.977 113.388 207.326 138.654 219.877 129.77C220.551 129.294 221.223 128.789 221.891 128.267C220.435 108.502 213.777 89.555 202.624 72.936Z" fill="#89C661"/>
<path d="M215.608 131.968C215.482 132.107 215.289 132.179 215.092 132.141C214.79 132.083 214.592 131.791 214.65 131.488C214.71 131.173 220.497 99.4754 205.874 53.5249C205.78 53.2318 205.942 52.9169 206.235 52.8246C206.527 52.7304 206.841 52.893 206.933 53.186C221.649 99.4276 215.803 131.381 215.741 131.698C215.722 131.803 215.674 131.895 215.608 131.968Z" fill="white"/>
<path d="M210.265 67.1539L202.869 61.1791C202.63 60.9865 202.593 60.6353 202.785 60.3956C202.978 60.1599 203.328 60.1182 203.567 60.3115L209.965 65.4802L213.338 59.8149C213.497 59.5471 213.836 59.4637 214.1 59.6216C214.364 59.7794 214.45 60.1216 214.293 60.386L210.265 67.1539Z" fill="white"/>
<path d="M228.351 71.6971C228.339 71.7101 228.327 71.7224 228.314 71.7347L213.925 84.931L202.493 77.1445C202.239 76.9717 202.174 76.6247 202.346 76.3698C202.518 76.113 202.865 76.0494 203.119 76.2223L213.823 83.5128L227.564 70.9115C227.791 70.7038 228.142 70.7195 228.349 70.947C228.544 71.1608 228.542 71.4867 228.351 71.6971Z" fill="white"/>
<path d="M231.469 90.0957C231.463 90.1019 231.457 90.108 231.452 90.1142L216.204 105.528L201.149 93.4957C200.909 93.3038 200.869 92.9526 201.061 92.7122C201.265 92.4683 201.602 92.4321 201.842 92.6234L216.117 104.032L230.662 89.3292C230.878 89.1106 231.23 89.1092 231.448 89.3258C231.66 89.5369 231.668 89.8764 231.469 90.0957Z" fill="white"/>
<path d="M238.025 100.96C238.02 100.966 238.015 100.972 238.009 100.977L216.238 123.152L197.576 110.069C197.324 109.893 197.262 109.545 197.438 109.293C197.617 109.043 197.961 108.978 198.213 109.155L216.105 121.699L237.217 100.195C237.432 99.9759 237.784 99.9725 238.003 100.189C238.216 100.399 238.224 100.74 238.025 100.96Z" fill="white"/>
<path d="M198.304 156.715C198.304 156.715 181.244 148.156 181.493 140.581C181.742 133.006 171.712 132.574 169.481 128.018C167.25 123.461 169.445 117.255 177.475 121.702C185.505 126.149 186.215 125.827 191.106 121.539C195.996 117.251 204.833 126.899 208.248 131.985C211.663 137.071 209.506 125.82 215.412 129.051C221.319 132.283 224.053 148.335 221.961 160.195C219.868 172.056 197.47 166.496 194.584 162.405C191.701 158.315 198.905 160.47 198.304 156.715Z" fill="#89C661"/>
<path d="M181.173 138.155C181.406 138.876 181.527 139.677 181.497 140.582C181.248 148.156 198.308 156.716 198.308 156.716C198.907 160.471 191.703 158.316 194.588 162.407C197.473 166.498 219.872 172.058 221.965 160.198C222.077 159.561 222.173 158.91 222.258 158.251C210.595 148.076 196.493 141.229 181.173 138.155Z" fill="#89C661"/>
<path d="M220.8 163.773C220.806 163.92 220.739 164.066 220.608 164.154C220.408 164.289 220.138 164.235 220.005 164.035C219.865 163.828 205.673 143.028 172.319 125.579C172.106 125.468 172.023 125.204 172.135 124.991C172.246 124.777 172.509 124.695 172.722 124.807C206.287 142.366 220.587 163.339 220.727 163.549C220.773 163.618 220.797 163.696 220.8 163.773Z" fill="white"/>
<path d="M182.239 130.727L174.851 131.491C174.613 131.516 174.399 131.341 174.374 131.102C174.352 130.865 174.523 130.648 174.762 130.624L181.154 129.963L179.916 124.956C179.857 124.719 180 124.485 180.233 124.427C180.467 124.369 180.702 124.512 180.76 124.746L182.239 130.727Z" fill="white"/>
<path d="M194.78 123.268C194.78 123.282 194.78 123.296 194.78 123.309L194.035 138.58L183.41 140.566C183.175 140.609 182.947 140.454 182.903 140.217C182.858 139.979 183.015 139.752 183.252 139.708L193.2 137.849L193.912 123.267C193.924 123.026 194.128 122.841 194.367 122.853C194.592 122.864 194.769 123.046 194.78 123.268Z" fill="white"/>
<path d="M206.615 131.766C206.615 131.772 206.616 131.779 206.616 131.786L206.612 148.761L191.644 150.389C191.404 150.415 191.19 150.242 191.164 150.003C191.143 149.754 191.31 149.548 191.549 149.522L205.741 147.979L205.745 131.786C205.745 131.545 205.94 131.35 206.18 131.35C206.414 131.35 206.605 131.535 206.615 131.766Z" fill="white"/>
<path d="M216.218 134.18C216.218 134.186 216.219 134.192 216.219 134.198L216.305 158.53L198.756 161.564C198.519 161.605 198.294 161.446 198.253 161.209C198.215 160.971 198.371 160.746 198.607 160.705L215.432 157.796L215.349 134.201C215.348 133.961 215.542 133.765 215.782 133.764C216.016 133.763 216.208 133.948 216.218 134.18Z" fill="white"/>
<path d="M242.825 145.662C242.825 145.662 257.423 126.067 252.804 117.553C248.184 109.04 259.4 102.777 259.341 96.2864C259.282 89.7959 253.223 83.9666 246.591 93.6672C239.96 103.368 238.963 103.409 230.919 101.322C222.877 99.2349 218.298 115.344 217.308 123.121C216.317 130.898 212.342 116.799 207.441 123.89C202.541 130.98 208.603 150.898 217.783 163.249C226.962 175.6 249.377 156.36 250.333 150.026C251.288 143.691 244.289 150.298 242.825 145.662Z" fill="#89C661"/>
<path d="M251.784 114.594C251.93 115.551 252.251 116.536 252.803 117.553C257.422 126.067 242.824 145.661 242.824 145.661C244.288 150.298 251.287 143.69 250.332 150.026C249.377 156.361 226.961 175.6 217.782 163.249C217.289 162.586 216.807 161.897 216.333 161.193C223.838 142.858 236.035 126.919 251.784 114.594Z" fill="#89C661"/>
<path d="M221.155 166.666C221.232 166.837 221.393 166.966 221.593 166.991C221.897 167.03 222.176 166.814 222.214 166.508C222.255 166.191 226.571 134.257 254.702 95.1295C254.882 94.8795 254.827 94.5304 254.576 94.3514C254.326 94.1711 253.979 94.2278 253.8 94.4778C225.49 133.853 221.152 166.047 221.111 166.368C221.097 166.473 221.114 166.576 221.155 166.666Z" fill="white"/>
<path d="M246.31 106.719L255.19 103.341C255.477 103.233 255.622 102.91 255.513 102.623C255.402 102.339 255.083 102.19 254.796 102.3L247.112 105.221L245.661 98.7862C245.592 98.4822 245.295 98.2971 244.996 98.3647C244.696 98.4324 244.508 98.7316 244.575 99.0315L246.31 106.719Z" fill="white"/>
<path d="M227.712 105.408C227.719 105.424 227.727 105.44 227.736 105.455L237.326 122.479L250.604 118.635C250.899 118.55 251.07 118.24 250.984 117.945C250.9 117.647 250.59 117.478 250.295 117.564L237.862 121.162L228.703 104.906C228.552 104.638 228.213 104.544 227.945 104.695C227.695 104.838 227.597 105.148 227.712 105.408Z" fill="white"/>
<path d="M219.052 121.927C219.055 121.935 219.059 121.943 219.063 121.95L228.782 141.348L246.82 134.597C247.108 134.489 247.254 134.168 247.147 133.88C247.028 133.584 246.719 133.445 246.431 133.552L229.329 139.953L220.056 121.449C219.918 121.174 219.584 121.063 219.31 121.201C219.042 121.336 218.93 121.657 219.052 121.927Z" fill="white"/>
<path d="M209.452 130.213C209.455 130.22 209.458 130.227 209.461 130.234L223.289 158.09L245.081 151.463C245.374 151.374 245.541 151.063 245.452 150.768C245.359 150.474 245.051 150.307 244.758 150.395L223.866 156.749L210.458 129.737C210.321 129.462 209.987 129.349 209.712 129.486C209.444 129.62 209.331 129.942 209.452 130.213Z" fill="white"/>
<path d="M194.572 164.939H237.549L228.611 207.595H200.903L194.572 164.939Z" fill="#29AEE9"/>
<path d="M233.857 182.562H197.188L197.851 187.024H232.923L233.857 182.562Z" fill="#C4E9FD"/>
<path d="M232.519 188.95H198.137L198.468 191.181H232.052L232.519 188.95Z" fill="#C4E9FD"/>
<path d="M238.758 164.232H193.281V170.293H238.758V164.232Z" fill="#C4E9FD"/>
</svg>
