<svg width="260" height="168" viewBox="0 0 260 168" fill="none" xmlns="http://www.w3.org/2000/svg">
<path d="M128.032 148.611C127.409 148.597 126.79 148.554 126.191 148.484L126.234 148.12C126.82 148.189 127.429 148.231 128.04 148.244L128.032 148.611ZM129.876 148.57L129.852 148.204C130.44 148.166 131.047 148.104 131.657 148.017L131.708 148.38C131.089 148.468 130.472 148.532 129.876 148.57ZM124.371 148.177C124.212 148.141 124.053 148.104 123.895 148.064C123.461 147.954 123.022 147.822 122.591 147.671L122.712 147.325C123.133 147.473 123.561 147.602 123.985 147.708C124.139 147.747 124.294 147.784 124.45 147.819L124.371 148.177ZM133.52 148.058L133.444 147.699C134.017 147.576 134.611 147.431 135.208 147.264L135.306 147.618C134.702 147.785 134.101 147.933 133.52 148.058ZM137.063 147.073L136.946 146.726C137.507 146.536 138.081 146.324 138.654 146.097L138.788 146.438C138.21 146.667 137.63 146.881 137.063 147.073ZM120.886 146.953C120.333 146.68 119.792 146.372 119.278 146.036L119.478 145.729C119.98 146.056 120.508 146.358 121.048 146.624L120.886 146.953ZM140.48 145.721L140.33 145.386C140.881 145.138 141.433 144.873 141.971 144.599L142.137 144.926C141.593 145.202 141.036 145.469 140.48 145.721ZM117.793 144.93C117.317 144.528 116.868 144.096 116.458 143.645L116.729 143.397C117.128 143.837 117.565 144.258 118.029 144.65L117.793 144.93ZM143.757 144.057L143.577 143.737C144.102 143.44 144.628 143.127 145.141 142.805L145.335 143.116C144.817 143.44 144.286 143.756 143.757 144.057ZM115.309 142.187C114.982 141.704 114.69 141.2 114.442 140.687C114.098 140.75 113.751 140.807 113.402 140.859L113.349 140.496C113.954 140.407 114.555 140.299 115.137 140.175L115.213 140.534C115.081 140.562 114.948 140.589 114.814 140.616C115.045 141.082 115.313 141.541 115.612 141.981L115.309 142.187ZM146.87 142.107L146.663 141.804C147.161 141.461 147.658 141.103 148.141 140.738L148.361 141.031C147.874 141.399 147.372 141.76 146.87 142.107ZM107.902 141.188L107.58 141.18C107.074 141.165 106.564 141.139 106.066 141.103L106.093 140.737C106.586 140.773 107.09 140.799 107.591 140.814L107.909 140.822L107.902 141.188ZM109.74 141.179L109.729 140.813C110.337 140.794 110.947 140.758 111.544 140.706L111.575 141.071C110.972 141.124 110.355 141.16 109.74 141.179ZM104.239 140.926C103.633 140.851 103.022 140.76 102.422 140.656L102.485 140.295C103.079 140.398 103.684 140.488 104.283 140.562L104.239 140.926ZM100.621 140.297C100.028 140.164 99.4279 140.014 98.8387 139.852L98.9357 139.498C99.5193 139.659 100.113 139.808 100.701 139.939L100.621 140.297ZM117 140.087L116.899 139.735C117.488 139.565 118.069 139.375 118.623 139.168L118.751 139.512C118.187 139.721 117.598 139.915 117 140.087ZM149.804 139.892L149.571 139.609C150.038 139.225 150.502 138.824 150.952 138.42L151.197 138.693C150.742 139.101 150.274 139.504 149.804 139.892ZM97.0793 139.322C96.5029 139.134 95.92 138.928 95.3466 138.711L95.476 138.368C96.044 138.583 96.6218 138.787 97.1927 138.973L97.0793 139.322ZM113.737 138.83C113.635 138.464 113.552 138.09 113.49 137.72C113.451 137.483 113.42 137.239 113.4 136.995L113.765 136.965C113.784 137.199 113.813 137.432 113.851 137.659C113.911 138.017 113.991 138.378 114.09 138.732L113.737 138.83ZM120.451 138.8L120.296 138.468C120.847 138.21 121.387 137.927 121.903 137.629L122.086 137.946C121.562 138.25 121.011 138.538 120.451 138.8ZM93.6431 138.02C93.0835 137.778 92.5218 137.521 91.9729 137.253L92.1323 136.923C92.6761 137.188 93.2331 137.444 93.7875 137.683L93.6431 138.02ZM152.538 137.436L152.283 137.173C152.713 136.753 153.143 136.316 153.56 135.872L153.826 136.124C153.405 136.571 152.972 137.013 152.538 137.436ZM123.639 136.945L123.425 136.648C123.91 136.297 124.369 135.903 124.789 135.476L125.05 135.734C124.616 136.175 124.141 136.583 123.639 136.945ZM90.3385 136.413C89.8009 136.121 89.264 135.813 88.7433 135.5L88.9316 135.186C89.448 135.497 89.9801 135.801 90.5129 136.091L90.3385 136.413ZM113.798 135.172L113.435 135.129C113.506 134.52 113.637 133.906 113.822 133.306L114.171 133.414C113.992 133.993 113.867 134.585 113.798 135.172ZM155.058 134.759L154.781 134.52C155.18 134.058 155.572 133.586 155.946 133.116L156.232 133.344C155.855 133.819 155.46 134.295 155.058 134.759ZM87.1893 134.518C86.6817 134.181 86.1738 133.828 85.6801 133.469L85.8951 133.172C86.3844 133.528 86.888 133.878 87.3912 134.212L87.1893 134.518ZM126.23 134.291L125.926 134.087C126.277 133.559 126.544 133.023 126.72 132.496L127.067 132.612C126.881 133.17 126.6 133.735 126.23 134.291ZM84.2176 132.355C83.74 131.975 83.2649 131.579 82.8052 131.179L83.0447 130.901C83.5004 131.299 83.9718 131.691 84.445 132.068L84.2176 132.355ZM157.346 131.881L157.051 131.665C157.409 131.173 157.76 130.67 158.095 130.169L158.399 130.373C158.062 130.878 157.708 131.385 157.346 131.881ZM114.85 131.749L114.525 131.581C114.811 131.025 115.145 130.495 115.518 130.006L115.809 130.229C115.449 130.701 115.126 131.212 114.85 131.749ZM126.96 130.764C126.928 130.312 126.815 129.873 126.624 129.459C126.568 129.34 126.507 129.224 126.44 129.113L126.754 128.924C126.827 129.046 126.895 129.173 126.955 129.305C127.165 129.759 127.289 130.242 127.324 130.738L126.96 130.764ZM81.4451 129.942C81.0015 129.52 80.5623 129.084 80.1406 128.646L80.4039 128.391C80.8219 128.825 81.2571 129.257 81.6971 129.675L81.4451 129.942ZM117.026 128.911L116.782 128.638C117.256 128.215 117.765 127.848 118.296 127.547L118.476 127.867C117.968 128.155 117.48 128.506 117.026 128.911ZM159.387 128.822L159.075 128.631C159.392 128.109 159.7 127.579 159.99 127.052L160.31 127.229C160.018 127.76 159.707 128.296 159.387 128.822ZM125.235 127.862C124.766 127.544 124.226 127.3 123.63 127.136L123.727 126.783C124.361 126.957 124.938 127.218 125.44 127.559L125.235 127.862ZM78.895 127.293C78.4913 126.835 78.0926 126.362 77.7105 125.886L77.995 125.656C78.3739 126.127 78.7688 126.596 79.1689 127.05L78.895 127.293ZM120.117 127.177L120.017 126.824C120.556 126.672 121.11 126.582 121.663 126.555C121.732 126.552 121.799 126.55 121.867 126.549L121.873 126.916C121.808 126.917 121.744 126.919 121.679 126.922C121.155 126.946 120.629 127.032 120.117 127.177ZM161.164 125.599L160.837 125.436C161.107 124.891 161.369 124.336 161.614 123.786L161.948 123.934C161.701 124.49 161.437 125.05 161.164 125.599ZM76.5903 124.428C76.2301 123.936 75.8757 123.428 75.5378 122.919L75.8424 122.716C76.177 123.22 76.5281 123.723 76.8851 124.211L76.5903 124.428ZM162.658 122.237L162.318 122.103C162.541 121.537 162.753 120.961 162.948 120.39L163.294 120.51C163.097 121.085 162.883 121.666 162.658 122.237ZM74.5566 121.363C74.2417 120.837 73.9367 120.298 73.6496 119.761L73.9718 119.588C74.2563 120.119 74.5584 120.653 74.8703 121.174L74.5566 121.363ZM163.853 118.756L163.502 118.653C163.673 118.071 163.832 117.479 163.976 116.891L164.332 116.979C164.186 117.571 164.025 118.169 163.853 118.756ZM72.8194 118.118C72.5565 117.563 72.3049 116.997 72.0712 116.435L72.4087 116.294C72.6402 116.851 72.8893 117.412 73.1497 117.96L72.8194 118.118ZM164.729 115.182L164.37 115.11L164.4 114.956L164.76 115.022L164.729 115.182ZM71.4074 114.717C71.2012 114.141 71.0073 113.552 70.8311 112.967L71.181 112.861C71.3559 113.44 71.5475 114.023 71.7516 114.593L71.4074 114.717Z" fill="#C4E9FD"/>
<path d="M125.896 32.8726C125.73 32.4869 125.558 32.103 125.383 31.722L125.714 31.568C125.892 31.9519 126.064 32.3387 126.231 32.7274L125.896 32.8726ZM124.586 30.0806C124.312 29.5434 124.024 29.0015 123.727 28.4706L124.047 28.2917C124.345 28.8266 124.636 29.3726 124.911 29.9141L124.586 30.0806ZM122.809 26.8933C122.496 26.3763 122.168 25.8575 121.834 25.3512L122.139 25.1492C122.476 25.6596 122.806 26.182 123.122 26.703L122.809 26.8933ZM120.803 23.8454C120.455 23.3556 120.09 22.8617 119.719 22.3777L120.009 22.1544C120.383 22.6417 120.75 23.1392 121.102 23.6327L120.803 23.8454ZM37.995 22.8705L37.7002 22.6534C38.0597 22.1621 38.4349 21.6701 38.8149 21.1913L39.1012 21.4193C38.7242 21.8948 38.3523 22.3829 37.995 22.8705ZM118.583 20.95C118.197 20.4833 117.798 20.0165 117.397 19.563L117.67 19.3195C118.075 19.7764 118.476 20.246 118.864 20.7165L118.583 20.95ZM40.262 20.0118L39.9844 19.7731C40.3801 19.3115 40.7912 18.8495 41.2063 18.4L41.4743 18.6493C41.0625 19.0951 40.6544 19.5535 40.262 20.0118ZM116.163 18.2185C115.746 17.7807 115.316 17.3429 114.883 16.918L115.139 16.6559C115.575 17.0841 116.008 17.5248 116.427 17.9659L116.163 18.2185ZM42.7371 17.3319L42.4782 17.0731C42.9076 16.6416 43.3515 16.2115 43.7977 15.7946L44.0471 16.0626C43.6039 16.4769 43.1632 16.9037 42.7371 17.3319ZM113.559 15.6622C113.113 15.2538 112.654 14.8468 112.193 14.4531L112.43 14.174C112.894 14.5707 113.357 14.9803 113.806 15.3917L113.559 15.6622ZM45.4021 14.8424L45.1629 14.5652C45.6215 14.1671 46.0951 13.7704 46.5709 13.3861L46.8002 13.6714C46.3281 14.053 45.8578 14.4468 45.4021 14.8424ZM110.786 13.2915C110.315 12.9153 109.828 12.541 109.341 12.1788L109.559 11.884C110.05 12.2488 110.539 12.6253 111.014 13.0044L110.786 13.2915ZM48.2393 12.5513L48.0199 12.2576C48.5055 11.8931 49.0062 11.5309 49.5076 11.1811L49.7164 11.4821C49.2187 11.8297 48.7217 12.1894 48.2393 12.5513ZM107.858 11.1162C107.36 10.7719 106.85 10.4317 106.341 10.1054L106.538 9.79666C107.05 10.1252 107.564 10.468 108.066 10.8145L107.858 11.1162ZM51.2304 10.4662L51.0322 10.1578C51.542 9.82856 52.0665 9.50188 52.5909 9.18803L52.7785 9.50262C52.2577 9.81463 51.7369 10.1387 51.2304 10.4662ZM104.789 9.14734C104.268 8.83752 103.735 8.53357 103.206 8.24319L103.381 7.92164C103.914 8.21386 104.451 8.52001 104.975 8.83202L104.789 9.14734ZM54.3591 8.59333L54.1828 8.27215C54.7138 7.97884 55.2595 7.68956 55.8048 7.412L55.9701 7.73905C55.4281 8.01477 54.8865 8.30222 54.3591 8.59333ZM101.593 7.39477C101.053 7.12272 100.501 6.85617 99.951 6.60282L100.104 6.26991C100.658 6.52509 101.214 6.79348 101.757 7.06736L101.593 7.39477ZM57.6088 6.94087L57.4545 6.60832C58.0045 6.35204 58.5688 6.10052 59.1313 5.86146L59.2743 6.19914C58.7155 6.43673 58.1548 6.68605 57.6088 6.94087ZM98.2829 5.8688C97.7219 5.63414 97.1525 5.40719 96.5897 5.1949L96.7188 4.85172C97.2856 5.06548 97.8594 5.29426 98.4241 5.53038L98.2829 5.8688ZM60.9635 5.51462L60.8326 5.17217C61.402 4.95292 61.982 4.74063 62.5562 4.54191L62.6754 4.88839C62.1052 5.08601 61.5293 5.29683 60.9635 5.51462ZM94.8734 4.58224C94.3003 4.38902 93.7159 4.20386 93.1366 4.03191L93.2405 3.68029C93.8242 3.85372 94.413 4.04034 94.9901 4.23466L94.8734 4.58224ZM64.4078 4.32156L64.3003 3.97104C64.8836 3.79139 65.4764 3.6198 66.0634 3.46067L66.1588 3.81485C65.5762 3.97288 64.9871 4.14337 64.4078 4.32156ZM91.3805 3.545C90.7935 3.39358 90.197 3.25205 89.6083 3.12373L89.6858 2.76551C90.2793 2.89457 90.8802 3.03757 91.4716 3.19009L91.3805 3.545ZM67.9259 3.36938L67.8429 3.01227C68.4368 2.87331 69.0402 2.74352 69.6371 2.62582L69.7073 2.9855C69.1156 3.10246 68.5162 3.23152 67.9259 3.36938ZM87.821 2.76955C87.2264 2.66322 86.6211 2.56679 86.0217 2.4832L86.0722 2.12022C86.676 2.20455 87.286 2.30171 87.8854 2.40877L87.821 2.76955ZM71.5015 2.66542L71.4437 2.30354C72.0497 2.20638 72.6608 2.11949 73.2606 2.04542L73.3052 2.40914C72.7098 2.48283 72.1031 2.56899 71.5015 2.66542ZM84.2122 2.26651C83.6124 2.20638 83.0017 2.15688 82.3968 2.11985L82.4195 1.75394C83.0291 1.79134 83.6446 1.8412 84.2487 1.9017L84.2122 2.26651ZM75.1173 2.21738L75.0855 1.8522C75.6933 1.79904 76.3091 1.75651 76.9162 1.72571L76.9349 2.09199C76.3322 2.12242 75.7207 2.16458 75.1173 2.21738ZM80.5774 2.04212C79.9699 2.02746 79.3625 2.02526 78.7557 2.03332L78.7506 1.66668C79.3621 1.65825 79.9739 1.66118 80.5861 1.67548L80.5774 2.04212Z" fill="#C4E9FD"/>
<path d="M236.487 95.3702C235.874 95.3607 235.255 95.3237 234.646 95.2606L234.683 94.8961C235.283 94.9577 235.891 94.994 236.493 95.0036L236.487 95.3702ZM238.329 95.3214L238.304 94.9555C238.905 94.9145 239.511 94.8474 240.107 94.7568L240.162 95.1191C239.556 95.2111 238.939 95.2793 238.329 95.3214ZM241.971 94.7689L241.887 94.4122C242.47 94.275 243.058 94.1115 243.635 93.9264L243.747 94.2758C243.16 94.4639 242.562 94.6296 241.971 94.7689ZM245.478 93.6444L245.339 93.3049C245.9 93.075 246.455 92.8213 246.991 92.5514L247.155 92.8789C246.612 93.1531 246.047 93.4105 245.478 93.6444ZM248.767 91.985L248.578 91.6715C249.095 91.3573 249.604 91.02 250.09 90.6687L250.304 90.9657C249.81 91.3228 249.293 91.6656 248.767 91.985ZM251.754 89.8262L251.517 89.5468C251.977 89.1545 252.425 88.7391 252.847 88.3119L253.107 88.5704C252.677 89.0042 252.222 89.4269 251.754 89.8262ZM254.348 87.2039L254.067 86.9689C254.454 86.5044 254.824 86.0186 255.166 85.5247L255.466 85.7337C255.118 86.2367 254.741 86.7313 254.348 87.2039ZM256.449 84.1688L256.131 83.9874C256.428 83.4656 256.706 82.9219 256.958 82.3708L257.29 82.5237C257.034 83.0843 256.751 83.6379 256.449 84.1688ZM257.987 80.8129L257.643 80.6886C257.846 80.1244 258.029 79.5407 258.186 78.9544L258.539 79.0501C258.379 79.6459 258.193 80.2391 257.987 80.8129ZM258.947 77.2484L258.588 77.1813C258.697 76.5892 258.784 75.9835 258.847 75.3818L259.21 75.42C259.147 76.0312 259.058 76.6464 258.947 77.2484ZM259.33 73.5768L258.964 73.5673C258.97 73.3671 258.972 73.1666 258.972 72.9664C258.972 72.562 258.962 72.1524 258.94 71.7491L259.305 71.7297C259.327 72.1396 259.338 72.5554 259.338 72.9664C259.338 73.1699 259.335 73.3733 259.33 73.5768ZM258.774 69.9379C258.696 69.3406 258.593 68.7379 258.467 68.1465L258.825 68.0698C258.953 68.6708 259.057 69.2831 259.137 69.8902L258.774 69.9379ZM258.017 66.3858C257.842 65.804 257.643 65.2261 257.423 64.6681L257.764 64.5339C257.986 65.1011 258.189 65.6885 258.367 66.2802L258.017 66.3858ZM246.941 64.7169C246.299 64.7073 245.676 64.6017 245.089 64.4034L245.207 64.0562C245.757 64.2424 246.342 64.3414 246.947 64.3506L246.941 64.7169ZM248.801 64.4591L248.695 64.1082C249.017 64.0103 249.324 63.8835 249.609 63.7306C249.835 63.6092 250.059 63.4717 250.275 63.3221L250.483 63.6232C250.256 63.7812 250.02 63.926 249.781 64.054C249.475 64.2179 249.146 64.3539 248.801 64.4591ZM243.44 63.4846C242.937 63.0556 242.56 62.5397 242.318 61.9516L242.656 61.8119C242.876 62.3458 243.219 62.8143 243.677 63.2052L243.44 63.4846ZM256.688 63.0079C256.418 62.4642 256.123 61.9293 255.811 61.4182L256.124 61.2268C256.441 61.747 256.741 62.2915 257.015 62.8448L256.688 63.0079ZM251.875 62.3762L251.602 62.1324C251.981 61.7052 252.335 61.2165 252.655 60.6794L252.969 60.8675C252.637 61.4244 252.27 61.9318 251.875 62.3762ZM242.412 60.1059L242.049 60.0667C242.114 59.4562 242.319 58.852 242.658 58.2716L242.974 58.4571C242.661 58.9924 242.472 59.5472 242.412 60.1059ZM254.791 59.92C254.514 59.556 254.223 59.2084 253.926 58.8832C253.884 58.9917 253.841 59.0988 253.797 59.2044L253.459 59.0636C253.524 58.9081 253.586 58.7493 253.647 58.5873C253.635 58.5748 253.623 58.5627 253.611 58.5503L253.689 58.4736C253.82 58.1121 253.943 57.737 254.053 57.3521L254.404 57.4529C254.302 57.8104 254.189 58.1602 254.069 58.4986C254.418 58.8707 254.759 59.2729 255.082 59.6971L254.791 59.92ZM252.261 57.3579C251.765 56.984 251.252 56.6672 250.736 56.416L250.897 56.0864C251.433 56.3478 251.966 56.6771 252.481 57.0646L252.261 57.3579ZM244.105 57.1042L243.865 56.8278C244.341 56.4124 244.873 56.0714 245.446 55.8144L245.595 56.1491C245.055 56.3911 244.554 56.7126 244.105 57.1042ZM249.056 55.8254C248.692 55.7458 248.321 55.6959 247.952 55.678C247.733 55.667 247.514 55.6728 247.296 55.6926L247.262 55.3275C247.498 55.3055 247.734 55.2996 247.97 55.3117C248.358 55.3308 248.75 55.3832 249.134 55.4671L249.056 55.8254ZM254.831 55.6549L254.471 55.5856C254.585 54.9964 254.675 54.3918 254.74 53.7883L255.103 53.8275C255.038 54.4409 254.946 55.0558 254.831 55.6549ZM255.226 51.984L254.86 51.9741C254.866 51.7765 254.868 51.5792 254.868 51.3816C254.868 50.9746 254.857 50.5625 254.835 50.1563L255.2 50.1365C255.222 50.549 255.234 50.968 255.234 51.3816C255.234 51.5822 255.231 51.7831 255.226 51.984ZM254.666 48.3458C254.587 47.7489 254.483 47.1461 254.357 46.5544L254.715 46.4777C254.843 47.079 254.949 47.6913 255.029 48.2974L254.666 48.3458ZM253.908 44.7923C253.736 44.2111 253.539 43.6322 253.322 43.0716L253.664 42.9396C253.883 43.509 254.083 44.0971 254.259 44.6878L253.908 44.7923ZM252.602 41.4034C252.338 40.8556 252.051 40.3159 251.748 39.7997L252.063 39.6138C252.371 40.1388 252.663 40.687 252.931 41.2439L252.602 41.4034ZM250.765 38.2726C250.717 38.2044 250.669 38.1373 250.62 38.0698C250.315 37.6489 249.99 37.2335 249.656 36.8353L249.936 36.5989C250.276 37.0036 250.606 37.426 250.916 37.8539C250.966 37.9228 251.015 37.9917 251.064 38.061L250.765 38.2726ZM248.431 35.4956C248.009 35.0703 247.561 34.6549 247.101 34.2608L247.338 33.9817C247.806 34.3821 248.261 34.8045 248.69 35.2371L248.431 35.4956ZM245.676 33.1366C245.189 32.7828 244.681 32.4437 244.166 32.1287L244.357 31.8156C244.88 32.1357 245.396 32.4803 245.89 32.8396L245.676 33.1366ZM242.582 31.2425C242.045 30.9694 241.491 30.7138 240.934 30.4836L241.074 30.1444C241.639 30.3787 242.203 30.6379 242.748 30.9159L242.582 31.2425ZM239.232 29.857C238.657 29.6711 238.07 29.5072 237.485 29.369L237.569 29.0119C238.163 29.1523 238.76 29.3188 239.344 29.5076L239.232 29.857ZM235.705 29.0262C235.108 28.9363 234.502 28.8715 233.902 28.833L233.926 28.467C234.535 28.5063 235.152 28.5726 235.759 28.6636L235.705 29.0262Z" fill="#C4E9FD"/>
<path d="M24.788 132.142L24.7814 131.776C25.3837 131.765 25.993 131.73 26.592 131.672L26.6271 132.037C26.0186 132.096 25.4002 132.131 24.788 132.142ZM22.9455 132.101C22.3322 132.063 21.7156 131.999 21.1126 131.911L21.1652 131.548C21.7588 131.634 22.3651 131.697 22.9685 131.735L22.9455 132.101ZM28.4528 131.792L28.3906 131.431C28.9841 131.328 29.5813 131.202 30.1661 131.056L30.2546 131.412C29.6611 131.56 29.0547 131.688 28.4528 131.792ZM19.3012 131.569C18.7062 131.431 18.1086 131.266 17.5246 131.08L17.6354 130.731C18.2099 130.914 18.7983 131.076 19.3838 131.212L19.3012 131.569ZM32.0239 130.901L31.9102 130.552C32.4836 130.364 33.0571 130.154 33.6144 129.926L33.7527 130.265C33.1873 130.496 32.6058 130.71 32.0239 130.901ZM15.7925 130.452C15.2304 130.223 14.6658 129.968 14.1139 129.692L14.277 129.364C14.8205 129.635 15.3767 129.887 15.93 130.112L15.7925 130.452ZM35.4324 129.51L35.2715 129.181C35.8112 128.915 36.3499 128.627 36.8722 128.323L37.0558 128.64C36.5258 128.948 35.9798 129.241 35.4324 129.51ZM12.4971 128.808C11.9719 128.495 11.4512 128.158 10.949 127.808L11.1579 127.507C11.6527 127.852 12.1661 128.184 12.6836 128.493L12.4971 128.808ZM38.6148 127.658L38.4096 127.354C38.9103 127.014 39.4033 126.653 39.8754 126.281L40.1014 126.569C39.6227 126.947 39.1224 127.313 38.6148 127.658ZM9.47633 126.7C9.00054 126.314 8.53242 125.908 8.08516 125.491L8.33458 125.222C8.77562 125.634 9.23679 126.035 9.706 126.415L9.47633 126.7ZM41.5079 125.378L41.2622 125.106C41.7105 124.698 42.1472 124.27 42.5601 123.835L42.8252 124.087C42.4061 124.53 41.9629 124.963 41.5079 125.378ZM6.78213 124.187C6.36448 123.739 5.95745 123.271 5.57199 122.796L5.85578 122.564C6.23575 123.033 6.63731 123.495 7.0491 123.936L6.78213 124.187ZM44.0442 122.704L43.7611 122.472C44.1436 122.003 44.5119 121.515 44.8553 121.021L45.1552 121.231C44.8067 121.732 44.4329 122.228 44.0442 122.704ZM4.46169 121.324C4.10877 120.82 3.77086 120.299 3.45744 119.776L3.77086 119.587C4.07988 120.103 4.41268 120.616 4.76084 121.113L4.46169 121.324ZM46.1485 119.676L45.8328 119.49C46.1379 118.968 46.4242 118.428 46.6846 117.886L47.0141 118.045C46.7497 118.596 46.4582 119.144 46.1485 119.676ZM2.56693 118.161C2.28972 117.613 2.03043 117.049 1.79601 116.484L2.13356 116.343C2.36469 116.9 2.62033 117.456 2.89315 117.996L2.56693 118.161ZM1.15272 114.754C0.960725 114.169 0.789938 113.572 0.645116 112.978L1.00059 112.891C1.14321 113.476 1.31108 114.063 1.50052 114.639L1.15272 114.754ZM0.280135 111.168C0.208455 110.721 0.150307 110.267 0.106056 109.819C0.0899648 109.657 0.0757023 109.494 0.0636338 109.332L0.428249 109.304C0.440317 109.464 0.454214 109.624 0.46994 109.783C0.513094 110.224 0.57051 110.67 0.641092 111.11L0.280135 111.168ZM0.365712 107.488L0 107.485C0.00365712 106.876 0.0321821 106.255 0.0848446 105.64L0.449094 105.672C0.397528 106.277 0.369369 106.888 0.365712 107.488ZM0.674738 103.867L0.314146 103.808C0.413254 103.204 0.536499 102.596 0.681321 101.999L1.03679 102.085C0.8938 102.674 0.772018 103.273 0.674738 103.867ZM1.52941 100.334L1.18125 100.221C1.3674 99.6406 1.57841 99.0566 1.80808 98.4857L2.14746 98.6224C1.92108 99.1856 1.71299 99.7613 1.52941 100.334ZM2.88474 96.9601L2.55633 96.7991C2.82439 96.2481 3.11513 95.6999 3.4205 95.1698L3.73721 95.3531C3.43623 95.8755 3.14951 96.416 2.88474 96.9601ZM21.4764 96.0468L21.4508 95.6809C22.0352 95.6394 22.6288 95.5364 23.2147 95.3751L23.3116 95.7289C22.7023 95.8964 22.085 96.0035 21.4764 96.0468ZM19.623 96.0383C19.0178 95.9925 18.4012 95.903 17.7904 95.7722L17.8669 95.4132C18.4611 95.5408 19.0616 95.6277 19.6504 95.6721L19.623 96.0383ZM16.0087 95.2709C15.4338 95.0697 14.8596 94.8299 14.3019 94.5586L14.4617 94.2286C15.007 94.4944 15.568 94.7283 16.1297 94.9252L16.0087 95.2709ZM25.0524 95.0689L24.8915 94.7397C25.4419 94.4695 25.9524 94.1505 26.4088 93.7923L26.6341 94.0808C26.1575 94.4548 25.6254 94.7873 25.0524 95.0689ZM4.69867 93.8088L4.39549 93.6038C4.7367 93.0956 5.10058 92.5933 5.4769 92.1101L5.76508 92.3356C5.39389 92.8122 5.03512 93.3079 4.69867 93.8088ZM12.6876 93.6566C12.1702 93.3285 11.6637 92.9677 11.1816 92.5831L11.4095 92.296C11.8809 92.6722 12.3768 93.0256 12.8829 93.3464L12.6876 93.6566ZM27.9539 92.7528L27.6628 92.5306C28.034 92.0415 28.3138 91.5183 28.4948 90.9764L28.8415 91.093C28.648 91.6734 28.3493 92.2315 27.9539 92.7528ZM9.79889 91.3574C9.36661 90.935 8.94312 90.4796 8.54047 90.0052L8.81914 89.7676C9.21484 90.2332 9.63029 90.6798 10.0545 91.0945L9.79889 91.3574ZM6.93134 90.9412L6.65961 90.6956C7.07067 90.2384 7.50148 89.7918 7.93961 89.3691L8.19304 89.6334C7.7615 90.0499 7.33691 90.4899 6.93134 90.9412ZM28.7387 89.2393C28.7131 88.6603 28.58 88.0843 28.3434 87.527L28.6799 87.3837C28.9337 87.9813 29.0763 88.5998 29.1041 89.2228L28.7387 89.2393ZM7.4064 88.5478C7.05605 88.0568 6.71557 87.5377 6.39411 87.0049L6.70679 86.815C7.0235 87.3401 7.35886 87.8515 7.70372 88.3344L7.4064 88.5478ZM9.54581 88.4198L9.31212 88.1375C9.78718 87.7423 10.2783 87.3639 10.772 87.0119L10.9838 87.3111C10.4974 87.6572 10.0139 88.0304 9.54581 88.4198ZM12.5011 86.3149L12.3128 86.0007C12.8398 85.6836 13.3832 85.3847 13.9285 85.1134L14.0912 85.4419C13.5551 85.7088 13.0201 86.0025 12.5011 86.3149ZM27.4101 86.0231C27.0331 85.5758 26.5909 85.1725 26.0961 84.8238L26.3064 84.5239C26.8268 84.8905 27.2924 85.3154 27.6895 85.7866L27.4101 86.0231ZM5.49811 85.3924C5.22346 84.8549 4.95905 84.2936 4.71256 83.7242L5.04792 83.5783C5.29149 84.1407 5.55224 84.6947 5.8236 85.2252L5.49811 85.3924ZM15.7465 84.6995L15.6108 84.3589C15.7999 84.2833 15.99 84.21 16.1817 84.1396C16.5777 83.9937 16.9716 83.8621 17.3523 83.7473L17.4576 84.0985C17.0839 84.2111 16.6969 84.3409 16.3078 84.4839C16.1195 84.5532 15.9326 84.6254 15.7465 84.6995ZM24.5254 83.9863C24.3732 83.9284 24.2193 83.876 24.0642 83.8294C23.6572 83.707 23.23 83.6135 22.7945 83.5519L22.8457 83.1889C23.2995 83.2531 23.7449 83.3502 24.1692 83.4782C24.3326 83.5273 24.495 83.5827 24.6552 83.6439L24.5254 83.9863ZM19.2134 83.6699L19.1476 83.3095C19.7788 83.1937 20.398 83.1236 20.9886 83.1005L21.0028 83.4668C20.4298 83.4892 19.8274 83.5574 19.2134 83.6699ZM4.03088 82.0116C3.82279 81.4385 3.62786 80.8497 3.45232 80.2612L3.80267 80.1564C3.97639 80.7379 4.16838 81.3197 4.37428 81.8858L4.03088 82.0116ZM2.97726 78.4804C2.83683 77.8854 2.71139 77.2778 2.60497 76.6754L2.96483 76.6117C3.07015 77.2075 3.19376 77.808 3.33273 78.3961L2.97726 78.4804ZM2.33653 74.8518C2.26449 74.2472 2.2089 73.6294 2.17087 73.016L2.53585 72.9929C2.57351 73.5993 2.62874 74.2101 2.69969 74.8081L2.33653 74.8518ZM2.10833 71.1732L2.10796 70.9848C2.10796 70.4344 2.12223 69.8775 2.14965 69.3305L2.515 69.3492C2.48757 69.8903 2.47368 70.4407 2.47368 70.9848L2.47404 71.171L2.10833 71.1732ZM2.65763 67.5324L2.29411 67.4932C2.35957 66.8831 2.44332 66.2686 2.54279 65.6666L2.90339 65.7263C2.80501 66.3218 2.72236 66.9293 2.65763 67.5324ZM3.25191 63.9378L2.89498 63.8572C3.02919 63.2599 3.18279 62.659 3.35138 62.0712L3.70283 62.1724C3.53643 62.7536 3.38466 63.3472 3.25191 63.9378ZM4.25689 60.4371L3.91202 60.315C3.95261 60.1999 3.99357 60.0855 4.03563 59.9707C4.20386 59.5099 4.38598 59.0472 4.57579 58.5955L4.91297 58.7381C4.725 59.1847 4.54543 59.6419 4.37903 60.0972C4.33734 60.2102 4.29638 60.3235 4.25689 60.4371ZM5.66744 57.0805L5.33939 56.9184C5.60929 56.3696 5.89857 55.8211 6.19955 55.2891L6.51772 55.4698C6.22039 55.9956 5.93404 56.5375 5.66744 57.0805ZM7.4587 53.9105L7.15113 53.7117C7.48247 53.197 7.83209 52.6855 8.19122 52.1916L8.48708 52.4076C8.13197 52.8956 7.78601 53.4016 7.4587 53.9105ZM9.59811 50.9648L9.31505 50.7328C9.70124 50.2594 10.1065 49.7908 10.519 49.3395L10.7885 49.5874C10.3804 50.0336 9.97991 50.497 9.59811 50.9648ZM12.0546 48.2788L11.7993 48.0163C12.2367 47.5891 12.6917 47.169 13.1521 46.7675L13.392 47.0443C12.9367 47.441 12.4869 47.8564 12.0546 48.2788ZM14.7971 45.8883L14.5733 45.5983C15.0575 45.2228 15.557 44.8576 16.0591 44.5123L16.2658 44.8147C15.7699 45.1557 15.2754 45.5169 14.7971 45.8883ZM17.7948 43.8285L17.6057 43.5143C18.1305 43.1971 18.6696 42.8928 19.2083 42.6097L19.3783 42.9346C18.8459 43.2147 18.313 43.5154 17.7948 43.8285Z" fill="#C4E9FD"/>
<path d="M177.059 167.634H152.299C148.427 160.091 150.657 141.033 159.105 163.621C159.575 146.798 165.114 146.915 166.1 162.326C168.962 138.21 187.385 114.799 172.835 163.621C179.171 153.856 181.401 161.647 177.059 167.634Z" fill="#89C661"/>
<path d="M85.8026 167.634H106.798C112.48 153.763 104.101 152.837 99.96 165.735C100.827 150.383 94.4703 150.769 93.0258 166.218C86.5728 137.734 71.6451 128.015 85.8026 167.634Z" fill="#89C661"/>
<path d="M6.84582 167.634H14.9529C13.775 145.397 5.87558 142.201 10.8994 166.099C7.40024 156.998 2.2031 159.444 6.84582 167.634Z" fill="#89C661"/>
<path d="M241.279 167.634H233.172C234.35 145.397 242.249 142.201 237.225 166.099C240.725 156.998 245.922 159.444 241.279 167.634Z" fill="#89C661"/>
<path d="M245.521 140.434H245.509C244.872 140.434 244.253 140.312 243.669 140.072L243.808 139.732C244.348 139.954 244.92 140.067 245.509 140.067L245.521 140.434ZM247.371 140.062L247.231 139.723C247.774 139.496 248.262 139.167 248.68 138.747L248.939 139.007C248.487 139.461 247.96 139.816 247.371 140.062ZM242.095 139.024C241.641 138.573 241.286 138.045 241.038 137.456L241.376 137.314C241.604 137.859 241.933 138.346 242.353 138.764L242.095 139.024ZM249.987 137.432L249.649 137.292C249.874 136.748 249.988 136.17 249.988 135.575V135.529L250.353 135.52V135.579C250.353 136.219 250.231 136.843 249.987 137.432ZM240.662 135.601L240.662 135.568C240.662 134.942 240.782 134.325 241.019 133.743L241.358 133.881C241.139 134.419 241.029 134.989 241.029 135.575L240.662 135.601ZM249.63 133.814C249.399 133.272 249.068 132.786 248.646 132.37L248.902 132.108C249.359 132.558 249.717 133.083 249.967 133.671L249.63 133.814ZM242.319 132.421L242.059 132.163C242.508 131.707 243.034 131.349 243.62 131.101L243.763 131.439C243.221 131.668 242.735 131.999 242.319 132.421ZM247.186 131.41C246.653 131.194 246.089 131.084 245.508 131.084L245.47 131.085V130.718L245.503 130.718H245.504C246.136 130.718 246.747 130.836 247.324 131.07L247.186 131.41Z" fill="#C4E9FD"/>
<path d="M175.597 7.77788L175.588 7.41124C176.169 7.39694 176.738 7.23158 177.234 6.93276L177.423 7.24698C176.872 7.57843 176.241 7.76211 175.597 7.77788ZM173.747 7.33827C173.18 7.03433 172.699 6.58555 172.354 6.04108L172.663 5.84456C172.974 6.33587 173.409 6.74064 173.92 7.01489L173.747 7.33827ZM178.75 5.88306L178.432 5.70194C178.717 5.19817 178.868 4.62363 178.868 4.03994C178.868 3.92774 178.863 3.81702 178.852 3.70739L179.217 3.67219C179.228 3.79318 179.234 3.91564 179.234 4.03957C179.234 4.68706 179.067 5.32429 178.75 5.88306ZM171.78 4.22436C171.777 4.16313 171.775 4.1019 171.775 4.03994C171.775 3.44854 171.909 2.88317 172.173 2.35924L172.5 2.52423C172.262 2.99646 172.141 3.50647 172.141 4.03994C172.141 4.09567 172.143 4.15103 172.145 4.20639L171.78 4.22436ZM178.255 2.09745C177.92 1.62155 177.466 1.23877 176.942 0.99055L177.099 0.659103C177.679 0.93482 178.182 1.35903 178.554 1.88626L178.255 2.09745ZM173.635 1.2362L173.432 0.931521C173.966 0.572942 174.588 0.358454 175.229 0.311157L175.256 0.676702C174.678 0.718866 174.117 0.912455 173.635 1.2362Z" fill="#C4E9FD"/>
<path d="M8.64554 143.72L8.63677 143.354C9.21788 143.34 9.7873 143.174 10.2832 142.875L10.4715 143.189C9.92115 143.521 9.28956 143.704 8.64554 143.72ZM6.79577 143.281C6.22928 142.977 5.74764 142.528 5.40278 141.984L5.71144 141.788C6.02266 142.279 6.45749 142.683 6.96839 142.958L6.79577 143.281ZM11.7991 141.826L11.4809 141.645C11.7662 141.141 11.9172 140.566 11.9172 139.982C11.9172 139.87 11.9117 139.76 11.9011 139.65L12.265 139.615C12.2767 139.735 12.2829 139.858 12.2829 139.982C12.2829 140.629 12.1154 141.266 11.7991 141.826ZM4.82861 140.167C4.82568 140.106 4.82422 140.044 4.82422 139.981C4.82422 139.391 4.9577 138.826 5.22102 138.302L5.54796 138.466C5.31025 138.939 5.18993 139.449 5.18993 139.982C5.18993 140.038 5.19103 140.094 5.19395 140.149L4.82861 140.167ZM11.3035 138.039C10.9682 137.564 10.5147 137.181 9.991 136.933L10.1475 136.601C10.7279 136.877 11.2308 137.301 11.6023 137.828L11.3035 138.039ZM6.68423 137.178L6.48053 136.874C7.0152 136.515 7.63691 136.3 8.27873 136.254L8.30507 136.619C7.72651 136.661 7.16624 136.854 6.68423 137.178Z" fill="#C4E9FD"/>
<path d="M6.52543 13.6185L6.51665 13.2518C7.09777 13.2379 7.66718 13.0725 8.16309 12.7733L8.35143 13.0876C7.80103 13.4194 7.16945 13.6027 6.52543 13.6185ZM4.67566 13.1788C4.10917 12.8745 3.62752 12.4261 3.28266 11.8817L3.59132 11.6851C3.90254 12.1764 4.33737 12.5812 4.84827 12.8555L4.67566 13.1788ZM9.67896 11.7236L9.36079 11.5425C9.64641 11.0384 9.79709 10.4638 9.79709 9.88051C9.79709 9.76868 9.7916 9.65796 9.78099 9.5487L10.1449 9.51277C10.1566 9.63376 10.1628 9.75622 10.1628 9.88014C10.1628 10.5273 9.99567 11.1645 9.67896 11.7236ZM2.70849 10.0649C2.70556 10.0037 2.7041 9.94247 2.7041 9.88051C2.7041 9.28948 2.83759 8.72411 3.10127 8.20018L3.42785 8.36517C3.1905 8.83777 3.06981 9.34741 3.06981 9.88051C3.06981 9.93624 3.07128 9.99161 3.07384 10.047L2.70849 10.0649ZM9.18305 7.93803C8.84806 7.46249 8.39458 7.07971 7.87088 6.83113L8.02741 6.49968C8.60779 6.77503 9.11101 7.1996 9.48221 7.72684L9.18305 7.93803ZM4.56411 7.07678L4.36041 6.7721C4.89508 6.41315 5.51679 6.19903 6.15825 6.1521L6.18458 6.51764C5.60639 6.55981 5.04576 6.75303 4.56411 7.07678Z" fill="#C4E9FD"/>
<path d="M200.626 11.278C200.423 11.278 200.218 11.267 200.017 11.2454L200.056 10.8809C200.64 10.9436 201.242 10.9088 201.811 10.7772L201.893 11.1346C201.48 11.2296 201.054 11.278 200.626 11.278ZM198.207 10.731C197.636 10.4582 197.119 10.093 196.668 9.64606L196.926 9.38538C197.347 9.80372 197.831 10.1454 198.364 10.4002L198.207 10.731ZM203.629 10.4083L203.433 10.0985C203.933 9.78135 204.374 9.38538 204.743 8.9212L205.028 9.14962C204.634 9.64606 204.163 10.0692 203.629 10.4083ZM195.571 8.11495C195.293 7.54519 195.115 6.93692 195.041 6.30629L195.404 6.2634C195.473 6.85296 195.64 7.42163 195.9 7.95399L195.571 8.11495ZM205.938 7.49862L205.593 7.378C205.787 6.82033 205.885 6.23516 205.885 5.63937C205.885 5.21992 205.836 4.80342 205.74 4.40084L206.095 4.31541C206.199 4.74585 206.251 5.19133 206.252 5.63937C206.251 6.27623 206.146 6.90172 205.938 7.49862ZM195.49 4.50203L195.132 4.4232C195.268 3.80431 195.506 3.21621 195.84 2.67541L196.151 2.86826C195.839 3.37387 195.617 3.92347 195.49 4.50203ZM205.047 2.78063C204.726 2.2831 204.326 1.84569 203.859 1.48015L204.084 1.19123C204.584 1.58207 205.011 2.04991 205.354 2.58228L205.047 2.78063ZM197.313 1.54467L197.082 1.26016C197.575 0.859049 198.126 0.547034 198.72 0.332547L198.843 0.67756C198.289 0.877748 197.774 1.1696 197.313 1.54467ZM202.311 0.643095C201.77 0.459773 201.203 0.366645 200.626 0.366645L200.574 0.367011L200.571 0.000366444L200.626 0C201.242 0 201.849 0.0997275 202.428 0.295883L202.311 0.643095Z" fill="#C4E9FD"/>
<path d="M238.641 124.057H93.5448C91.525 124.057 89.8877 122.416 89.8877 120.391V17.5512C89.8877 15.5262 91.525 13.8848 93.5448 13.8848H238.641C240.661 13.8848 242.299 15.5262 242.299 17.5512V120.391C242.299 122.416 240.661 124.057 238.641 124.057Z" fill="#C4E9FD"/>
<path d="M242.299 21.4637H89.8877V17.5512C89.8877 15.5262 91.525 13.8848 93.5448 13.8848H238.641C240.661 13.8848 242.299 15.5262 242.299 17.5512V21.4637Z" fill="#29AEE9"/>
<path d="M238.642 124.24H93.5451C91.4276 124.24 89.7051 122.513 89.7051 120.39V17.5509C89.7051 15.4281 91.4276 13.7012 93.5451 13.7012H238.642C240.759 13.7012 242.482 15.4281 242.482 17.5509V120.39C242.482 122.513 240.759 124.24 238.642 124.24ZM93.5451 14.0678C91.6295 14.0678 90.0708 15.6305 90.0708 17.5509V120.39C90.0708 122.311 91.6295 123.874 93.5451 123.874H238.642C240.557 123.874 242.116 122.311 242.116 120.39V17.5509C242.116 15.6305 240.557 14.0678 238.642 14.0678H93.5451Z" fill="#29AEE9"/>
<path d="M238.641 17.6736C238.641 18.25 238.175 18.7174 237.6 18.7174C237.025 18.7174 236.559 18.25 236.559 17.6736C236.559 17.0972 237.025 16.6298 237.6 16.6298C238.175 16.6301 238.641 17.0972 238.641 17.6736Z" fill="#C4E9FD"/>
<path d="M234.981 17.6736C234.981 18.25 234.515 18.7174 233.94 18.7174C233.364 18.7174 232.898 18.25 232.898 17.6736C232.898 17.0972 233.365 16.6298 233.94 16.6298C234.515 16.6298 234.981 17.0972 234.981 17.6736Z" fill="#C4E9FD"/>
<path d="M231.323 17.6736C231.323 18.25 230.857 18.7174 230.281 18.7174C229.707 18.7174 229.24 18.25 229.24 17.6736C229.24 17.0972 229.706 16.6298 230.281 16.6298C230.857 16.6301 231.323 17.0972 231.323 17.6736Z" fill="#C4E9FD"/>
<path d="M167.522 56.6465C166.244 56.0624 165.234 55.2665 164.491 54.2597C163.747 53.2528 163.35 52.1284 163.3 50.8851H167.689C167.763 51.7558 168.178 52.4829 168.935 53.0666C169.692 53.6514 170.64 53.9429 171.781 53.9429C172.971 53.9429 173.894 53.7134 174.552 53.2532C175.208 52.7934 175.538 52.2035 175.538 51.482C175.538 50.7116 175.172 50.1393 174.44 49.7668C173.709 49.3935 172.549 48.9836 170.962 48.536C169.425 48.1136 168.173 47.7033 167.206 47.3051C166.239 46.9077 165.402 46.2983 164.695 45.4781C163.988 44.6576 163.634 43.5764 163.634 42.2337C163.634 41.14 163.957 40.1394 164.602 39.2316C165.246 38.3245 166.17 37.6096 167.373 37.0875C168.576 36.5654 169.959 36.3043 171.521 36.3043C173.851 36.3043 175.729 36.895 177.156 38.0756C178.581 39.2569 179.344 40.8669 179.444 42.9047H175.203C175.129 41.9851 174.757 41.2515 174.088 40.7048C173.418 40.1581 172.513 39.8842 171.372 39.8842C170.256 39.8842 169.401 40.0958 168.806 40.5182C168.211 40.9413 167.913 41.5008 167.913 42.1959C167.913 42.7433 168.111 43.2031 168.508 43.5756C168.905 43.9485 169.388 44.2411 169.959 44.4519C170.528 44.6635 171.372 44.9307 172.488 45.2534C173.976 45.6516 175.197 46.0552 176.151 46.4655C177.105 46.8758 177.93 47.4786 178.625 48.2742C179.319 49.0702 179.679 50.1265 179.704 51.4438C179.704 52.6127 179.381 53.6569 178.737 54.5764C178.092 55.4963 177.18 56.2172 176.003 56.7389C174.824 57.261 173.442 57.5221 171.855 57.5221C170.243 57.5224 168.799 57.2302 167.522 56.6465Z" fill="#EBB044"/>
<path d="M169.975 59.9622C169.773 59.9622 169.609 59.7979 169.609 59.5955V34.231C169.609 34.0286 169.773 33.8644 169.975 33.8644C170.177 33.8644 170.341 34.0286 170.341 34.231V59.5955C170.341 59.7979 170.177 59.9622 169.975 59.9622Z" fill="#EBB044"/>
<path d="M173.03 59.9622C172.828 59.9622 172.664 59.7979 172.664 59.5955V34.231C172.664 34.0286 172.828 33.8644 173.03 33.8644C173.232 33.8644 173.395 34.0286 173.395 34.231V59.5955C173.395 59.7979 173.232 59.9622 173.03 59.9622Z" fill="#EBB044"/>
<path d="M102.086 28.7355H96.6045V34.2311H102.086V28.7355Z" fill="#D82F3C"/>
<path d="M147.261 32.2169H106.733C106.33 32.2169 106.002 31.8884 106.002 31.4837C106.002 31.0789 106.33 30.7504 106.733 30.7504H147.26C147.665 30.7504 147.992 31.0789 147.992 31.4837C147.992 31.8884 147.665 32.2169 147.261 32.2169Z" fill="#D82F3C"/>
<path d="M102.086 38.4509H96.6045V43.9466H102.086V38.4509Z" fill="#518F60"/>
<path d="M147.261 41.9325H106.733C106.33 41.9325 106.002 41.604 106.002 41.1992C106.002 40.7945 106.33 40.4659 106.733 40.4659H147.26C147.665 40.4659 147.992 40.7945 147.992 41.1992C147.992 41.604 147.665 41.9325 147.261 41.9325Z" fill="#518F60"/>
<path d="M102.086 48.1665H96.6045V53.6621H102.086V48.1665Z" fill="#5766CC"/>
<path d="M147.261 51.648H106.733C106.33 51.648 106.002 51.3195 106.002 50.9147C106.002 50.5095 106.33 50.1814 106.733 50.1814H147.26C147.665 50.1814 147.992 50.5095 147.992 50.9147C147.992 51.3195 147.665 51.648 147.261 51.648Z" fill="#5766CC"/>
<path d="M102.086 57.8821H96.6045V63.3777H102.086V57.8821Z" fill="#EBB044"/>
<path d="M147.261 61.3634H106.733C106.33 61.3634 106.002 61.0353 106.002 60.6301C106.002 60.2254 106.33 59.8969 106.733 59.8969H147.26C147.665 59.8969 147.992 60.2254 147.992 60.6301C147.992 61.0349 147.665 61.3634 147.261 61.3634Z" fill="#EBB044"/>
<path d="M236.563 28.7885H197.082V33.0547H236.563V28.7885Z" fill="#29AEE9"/>
<path d="M236.563 37.666H197.082V41.9323H236.563V37.666Z" fill="#29AEE9"/>
<path d="M236.563 46.5436H197.082V50.8099H236.563V46.5436Z" fill="#29AEE9"/>
<path d="M102.083 73.3889L123.432 89.2412L146.668 70.723L166.312 80.2873L195.665 62.3096L214.111 74.3528L231.683 57.5227V115.507H102.083V73.3889Z" fill="#C4E9FD"/>
<path d="M123.437 89.7053L101.862 73.3459L102.303 72.7615L123.426 88.7773L146.624 70.2892L166.078 80.2337L195.67 61.8755L214.068 73.8871L231.431 57.2576L231.936 57.7881L214.154 74.8184L195.66 62.744L166.114 81.0745L146.711 71.1571L123.437 89.7053Z" fill="#EBB044"/>
<path d="M234.988 116.059H97.2056C97.0037 116.059 96.8398 115.895 96.8398 115.692C96.8398 115.489 97.0037 115.325 97.2056 115.325H234.988C235.19 115.325 235.354 115.489 235.354 115.692C235.354 115.895 235.19 116.059 234.988 116.059Z" fill="#29AEE9"/>
<path d="M166.097 116.059C165.895 116.059 165.731 115.895 165.731 115.692V78.5216C165.731 78.3192 165.895 78.1549 166.097 78.1549C166.299 78.1549 166.463 78.3192 166.463 78.5216V115.692C166.463 115.895 166.299 116.059 166.097 116.059Z" fill="#29AEE9"/>
<path d="M195.586 116.059C195.384 116.059 195.221 115.895 195.221 115.692V59.9263C195.221 59.7239 195.384 59.5597 195.586 59.5597C195.789 59.5597 195.952 59.7239 195.952 59.9263V115.692C195.952 115.895 195.788 116.059 195.586 116.059Z" fill="#29AEE9"/>
<path d="M231.683 116.059C231.481 116.059 231.317 115.895 231.317 115.692V55.2958C231.317 55.0935 231.481 54.9292 231.683 54.9292C231.885 54.9292 232.049 55.0935 232.049 55.2958V115.692C232.049 115.895 231.885 116.059 231.683 116.059Z" fill="#29AEE9"/>
<path d="M146.666 116.058C146.464 116.058 146.301 115.894 146.301 115.692V68.2823C146.301 68.0799 146.464 67.9156 146.666 67.9156C146.869 67.9156 147.032 68.0799 147.032 68.2823V115.692C147.032 115.894 146.868 116.058 146.666 116.058Z" fill="#29AEE9"/>
<path d="M123.433 116.059C123.231 116.059 123.067 115.895 123.067 115.692V86.9726C123.067 86.7702 123.231 86.606 123.433 86.606C123.635 86.606 123.799 86.7702 123.799 86.9726V115.692C123.799 115.895 123.635 116.059 123.433 116.059Z" fill="#29AEE9"/>
<path d="M102.084 116.059C101.883 116.059 101.719 115.895 101.719 115.692V71.256C101.719 71.0537 101.883 70.8894 102.084 70.8894C102.286 70.8894 102.45 71.0537 102.45 71.256V115.692C102.45 115.895 102.286 116.059 102.084 116.059Z" fill="#29AEE9"/>
<path d="M123.431 90.3617C124.049 90.3617 124.549 89.8599 124.549 89.2408C124.549 88.6218 124.049 88.12 123.431 88.12C122.814 88.12 122.313 88.6218 122.313 89.2408C122.313 89.8599 122.814 90.3617 123.431 90.3617Z" fill="#D82F3C"/>
<path d="M102.083 74.5095C102.7 74.5095 103.201 74.0077 103.201 73.3887C103.201 72.7696 102.7 72.2678 102.083 72.2678C101.465 72.2678 100.965 72.7696 100.965 73.3887C100.965 74.0077 101.465 74.5095 102.083 74.5095Z" fill="#D82F3C"/>
<path d="M146.665 71.8436C147.282 71.8436 147.783 71.3418 147.783 70.7228C147.783 70.1037 147.282 69.6019 146.665 69.6019C146.047 69.6019 145.547 70.1037 145.547 70.7228C145.547 71.3418 146.047 71.8436 146.665 71.8436Z" fill="#D82F3C"/>
<path d="M166.312 81.4077C166.93 81.4077 167.43 80.9059 167.43 80.2869C167.43 79.6678 166.93 79.166 166.312 79.166C165.695 79.166 165.194 79.6678 165.194 80.2869C165.194 80.9059 165.695 81.4077 166.312 81.4077Z" fill="#D82F3C"/>
<path d="M195.666 63.4305C196.283 63.4305 196.784 62.9287 196.784 62.3097C196.784 61.6907 196.283 61.1888 195.666 61.1888C195.048 61.1888 194.548 61.6907 194.548 62.3097C194.548 62.9287 195.048 63.4305 195.666 63.4305Z" fill="#D82F3C"/>
<path d="M232.803 57.5223C232.803 58.1412 232.303 58.6432 231.685 58.6432C231.068 58.6432 230.567 58.1412 230.567 57.5223C230.567 56.9034 231.068 56.4015 231.685 56.4015C232.303 56.4015 232.803 56.9034 232.803 57.5223Z" fill="#D82F3C"/>
<path d="M16.2274 63.6179H75.1191C77.139 63.6179 78.7762 61.9765 78.7762 59.9515V17.5512C78.7762 15.5262 77.139 13.8848 75.1191 13.8848H16.2274C14.2076 13.8848 12.5703 15.5262 12.5703 17.5512V59.9515C12.5703 61.9761 14.2076 63.6179 16.2274 63.6179Z" fill="#C4E9FD"/>
<path d="M78.7762 21.4637H12.5703V17.5512C12.5703 15.5262 14.2076 13.8848 16.2274 13.8848H75.1191C77.139 13.8848 78.7762 15.5262 78.7762 17.5512V21.4637Z" fill="#29AEE9"/>
<path d="M75.1194 63.801H16.2277C14.1102 63.801 12.3877 62.0737 12.3877 59.9512V17.5509C12.3877 15.4281 14.1102 13.7012 16.2277 13.7012H75.1194C77.2368 13.7012 78.9593 15.4281 78.9593 17.5509V59.9512C78.9593 62.0737 77.2365 63.801 75.1194 63.801ZM16.2277 14.0678C14.3121 14.0678 12.7534 15.6305 12.7534 17.5509V59.9512C12.7534 61.8717 14.3121 63.4344 16.2277 63.4344H75.1194C77.035 63.4344 78.5936 61.8717 78.5936 59.9512V17.5509C78.5936 15.6305 77.035 14.0678 75.1194 14.0678H16.2277Z" fill="#29AEE9"/>
<path d="M75.1185 17.6736C75.1185 18.25 74.6526 18.7174 74.0773 18.7174C73.5024 18.7174 73.0361 18.25 73.0361 17.6736C73.0361 17.0972 73.5024 16.6298 74.0773 16.6298C74.6522 16.6301 75.1185 17.0972 75.1185 17.6736Z" fill="#C4E9FD"/>
<path d="M71.4593 17.6736C71.4593 18.25 70.9934 18.7174 70.4181 18.7174C69.8432 18.7174 69.377 18.25 69.377 17.6736C69.377 17.0972 69.8432 16.6298 70.4181 16.6298C70.9934 16.6301 71.4593 17.0972 71.4593 17.6736Z" fill="#C4E9FD"/>
<path d="M67.8011 17.6736C67.8011 18.25 67.3348 18.7174 66.7599 18.7174C66.185 18.7174 65.7188 18.25 65.7188 17.6736C65.7188 17.0972 66.185 16.6298 66.7599 16.6298C67.3352 16.6301 67.8011 17.0972 67.8011 17.6736Z" fill="#C4E9FD"/>
<path d="M40.6873 50.2336H42.1835C42.8421 50.2336 43.3761 50.7689 43.3761 51.4289V56.8178H39.4951V51.4289C39.4948 50.7689 40.0287 50.2336 40.6873 50.2336Z" fill="#29AEE9"/>
<path d="M33.1535 46.2836H34.6497C35.3083 46.2836 35.8419 46.8189 35.8419 47.4792V56.8187H31.9609V47.4792C31.9613 46.8189 32.4952 46.2836 33.1535 46.2836Z" fill="#29AEE9"/>
<path d="M25.635 42.6918H27.1311C27.7897 42.6918 28.3237 43.2271 28.3237 43.8874V56.8182H24.4424V43.8874C24.4424 43.2271 24.9763 42.6918 25.635 42.6918Z" fill="#29AEE9"/>
<path d="M18.1151 32.6353H19.6112C20.2698 32.6353 20.8038 33.1706 20.8038 33.8305V56.8177H16.9229V33.8305C16.9229 33.1706 17.4568 32.6353 18.1151 32.6353Z" fill="#29AEE9"/>
<path d="M45.2483 45.1716C45.3324 45.1716 45.4107 45.1177 45.4373 45.0334C45.471 44.9285 45.4132 44.8163 45.309 44.7826C38.9485 42.7371 27.5939 36.0538 24.2008 26.8291C24.1628 26.7257 24.0476 26.6729 23.9456 26.711C23.8424 26.7491 23.7898 26.8639 23.8278 26.9669C27.2699 36.3244 38.7562 43.0934 45.1876 45.162C45.2077 45.1686 45.2282 45.1716 45.2483 45.1716Z" fill="#E8EBFC"/>
<path d="M22.9961 28.7226L23.3669 28.8663L24.0727 27.0335L25.845 27.8727L26.0143 27.512L23.8559 26.4901L22.9961 28.7226Z" fill="#92A9D1"/>
<path d="M69.0094 39.5097C68.0037 40.474 66.6359 41.0643 65.1328 41.0643C62.9971 41.0643 61.1393 39.8727 60.1848 38.1128L57.9941 39.3007C59.3692 41.8379 62.0499 43.5611 65.1328 43.5611C67.3052 43.5611 69.2727 42.7068 70.7246 41.3136L69.0094 39.5097ZM65.1328 29.7899C66.5262 29.7899 67.8025 30.2959 68.7826 31.1392L70.3991 29.2436C68.9838 28.0264 67.1442 27.2931 65.1328 27.2931C63.6115 27.2931 62.1889 27.7111 60.971 28.4444L62.2474 30.5856C63.0922 30.0796 64.0759 29.7899 65.1328 29.7899Z" fill="#29AEE9"/>
<path d="M73.2429 35.4247C73.2429 37.7419 72.2775 39.8354 70.7232 41.313L69.008 39.5091C70.0832 38.4825 70.7524 37.0342 70.7524 35.4247C70.7524 33.7088 69.9881 32.1725 68.7812 31.1386L70.3977 29.243C72.1385 30.7316 73.2429 32.9498 73.2429 35.4247Z" fill="#E8EBFC"/>
<path d="M59.5042 35.4251C59.5042 36.4004 59.7492 37.3134 60.1807 38.1126L57.9901 39.3006C57.3684 38.1493 57.0137 36.8294 57.0137 35.4251C57.0137 32.459 58.5972 29.8631 60.967 28.4442L62.2434 30.5854C60.6013 31.5717 59.5042 33.3683 59.5042 35.4251Z" fill="#E8EBFC"/>
<path d="M74.8737 46.6212H55.3743C55.2733 46.6212 55.1914 46.539 55.1914 46.4378C55.1914 46.3366 55.2733 46.2545 55.3743 46.2545H74.8737C74.9746 46.2545 75.0565 46.3366 75.0565 46.4378C75.0565 46.539 74.975 46.6212 74.8737 46.6212Z" fill="#29AEE9"/>
<path d="M74.8737 48.455H55.3743C55.2733 48.455 55.1914 48.3729 55.1914 48.2717C55.1914 48.1705 55.2733 48.0884 55.3743 48.0884H74.8737C74.9746 48.0884 75.0565 48.1705 75.0565 48.2717C75.0565 48.3729 74.975 48.455 74.8737 48.455Z" fill="#29AEE9"/>
<path d="M74.8737 50.8041H55.3743C55.2733 50.8041 55.1914 50.722 55.1914 50.6208C55.1914 50.5196 55.2733 50.4375 55.3743 50.4375H74.8737C74.9746 50.4375 75.0565 50.5196 75.0565 50.6208C75.0565 50.722 74.975 50.8041 74.8737 50.8041Z" fill="#29AEE9"/>
<path d="M74.8737 52.6365H55.3743C55.2733 52.6365 55.1914 52.5544 55.1914 52.4532C55.1914 52.352 55.2733 52.2699 55.3743 52.2699H74.8737C74.9746 52.2699 75.0565 52.352 75.0565 52.4532C75.0565 52.5544 74.975 52.6365 74.8737 52.6365Z" fill="#29AEE9"/>
<path d="M74.8737 54.9852H55.3743C55.2733 54.9852 55.1914 54.903 55.1914 54.8019C55.1914 54.7007 55.2733 54.6185 55.3743 54.6185H74.8737C74.9746 54.6185 75.0565 54.7007 75.0565 54.8019C75.0565 54.903 74.975 54.9852 74.8737 54.9852Z" fill="#29AEE9"/>
<path d="M74.8737 56.8176H55.3743C55.2733 56.8176 55.1914 56.7354 55.1914 56.6343C55.1914 56.5331 55.2733 56.4509 55.3743 56.4509H74.8737C74.9746 56.4509 75.0565 56.5331 75.0565 56.6343C75.0565 56.7354 74.975 56.8176 74.8737 56.8176Z" fill="#29AEE9"/>
<path d="M16.2274 124.057H75.1191C77.139 124.057 78.7762 122.416 78.7762 120.391V77.9903C78.7762 75.9653 77.139 74.3239 75.1191 74.3239H16.2274C14.2076 74.3239 12.5703 75.9653 12.5703 77.9903V120.391C12.5703 122.416 14.2076 124.057 16.2274 124.057Z" fill="#C4E9FD"/>
<path d="M78.7762 81.9034H12.5703V77.9909C12.5703 75.9659 14.2076 74.3245 16.2274 74.3245H75.1191C77.139 74.3245 78.7762 75.9659 78.7762 77.9909V81.9034Z" fill="#29AEE9"/>
<path d="M75.1194 124.241H16.2277C14.1102 124.241 12.3877 122.514 12.3877 120.391V77.9905C12.3877 75.8676 14.1102 74.1407 16.2277 74.1407H75.1194C77.2368 74.1407 78.9593 75.8676 78.9593 77.9905V120.391C78.9593 122.514 77.2365 124.241 75.1194 124.241ZM16.2277 74.5074C14.3121 74.5074 12.7534 76.07 12.7534 77.9905V120.391C12.7534 122.311 14.3121 123.874 16.2277 123.874H75.1194C77.035 123.874 78.5936 122.311 78.5936 120.391V77.9905C78.5936 76.07 77.035 74.5074 75.1194 74.5074H16.2277Z" fill="#29AEE9"/>
<path d="M76.1624 77.99C76.1624 78.5664 75.6962 79.0338 75.1213 79.0338C74.5464 79.0338 74.0801 78.5667 74.0801 77.99C74.0801 77.4136 74.5464 76.9462 75.1213 76.9462C75.6965 76.9465 76.1624 77.4136 76.1624 77.99Z" fill="#C4E9FD"/>
<path d="M72.5019 77.99C72.5019 78.5664 72.036 79.0338 71.4611 79.0338C70.8862 79.0338 70.4199 78.5667 70.4199 77.99C70.4199 77.4136 70.8858 76.9462 71.4611 76.9462C72.0356 76.9465 72.5019 77.4136 72.5019 77.99Z" fill="#C4E9FD"/>
<path d="M68.8441 77.99C68.8441 78.5664 68.3778 79.0338 67.8029 79.0338C67.228 79.0338 66.7617 78.5667 66.7617 77.99C66.7617 77.4136 67.2276 76.9462 67.8029 76.9462C68.3778 76.9465 68.8441 77.4136 68.8441 77.99Z" fill="#C4E9FD"/>
<path d="M16.8775 120.474H75.1936C75.9565 119.695 75.9426 118.505 75.2649 117.697C74.5872 116.889 73.2001 116.324 71.7288 116.258C69.5821 116.162 67.4244 117.046 65.3695 116.65C64.0193 116.39 63.0797 115.628 62.4869 114.836C61.8945 114.044 61.5547 113.183 60.8939 112.412C59.8523 111.196 58.0048 110.253 55.8745 109.849C53.7442 109.445 51.3572 109.586 49.3889 110.231C47.1939 110.95 45.6287 112.215 43.7168 113.195C41.8048 114.174 39.107 114.882 36.8651 114.22C34.2152 113.438 33.6571 111.246 31.5879 109.959C29.322 108.55 25.4224 108.501 22.6605 109.519C19.8987 110.537 18.1901 112.409 17.4392 114.339C16.6888 116.268 16.781 118.49 16.8775 120.474Z" fill="#29AEE9"/>
<path d="M18.1787 89.4107H17.2428C16.4708 89.4107 15.8389 88.7904 15.8389 88.0325C15.8389 87.2743 16.4705 86.6543 17.2428 86.6543H18.1787C18.9507 86.6543 19.5827 87.2747 19.5827 88.0325C19.5827 88.7904 18.9507 89.4107 18.1787 89.4107Z" fill="#29AEE9"/>
<path d="M18.1787 93.4391H17.2428C16.4708 93.4391 15.8389 92.8187 15.8389 92.0608C15.8389 91.3026 16.4705 90.6826 17.2428 90.6826H18.1787C18.9507 90.6826 19.5827 91.303 19.5827 92.0608C19.5827 92.8187 18.9507 93.4391 18.1787 93.4391Z" fill="#29AEE9"/>
<path d="M18.1787 97.4679H17.2428C16.4708 97.4679 15.8389 96.8475 15.8389 96.0896C15.8389 95.3314 16.4705 94.7114 17.2428 94.7114H18.1787C18.9507 94.7114 19.5827 95.3318 19.5827 96.0896C19.5827 96.8479 18.9507 97.4679 18.1787 97.4679Z" fill="#29AEE9"/>
<path d="M18.1787 101.497H17.2428C16.4708 101.497 15.8389 100.877 15.8389 100.119C15.8389 99.3607 16.4705 98.7407 17.2428 98.7407H18.1787C18.9507 98.7407 19.5827 99.3611 19.5827 100.119C19.5827 100.877 18.9507 101.497 18.1787 101.497Z" fill="#29AEE9"/>
<path d="M18.1787 105.526H17.2428C16.4708 105.526 15.8389 104.906 15.8389 104.148C15.8389 103.39 16.4705 102.77 17.2428 102.77H18.1787C18.9507 102.77 19.5827 103.39 19.5827 104.148C19.5827 104.906 18.9507 105.526 18.1787 105.526Z" fill="#29AEE9"/>
<path d="M73.5017 88.3986H22.1681C21.7911 88.3986 21.4854 88.2343 21.4854 88.0319C21.4854 87.8295 21.7911 87.6653 22.1681 87.6653H73.5017C73.8787 87.6653 74.1844 87.8295 74.1844 88.0319C74.1844 88.2347 73.8787 88.3986 73.5017 88.3986Z" fill="#29AEE9"/>
<path d="M73.5017 92.4273H22.1681C21.7911 92.4273 21.4854 92.263 21.4854 92.0606C21.4854 91.8582 21.7911 91.694 22.1681 91.694H73.5017C73.8787 91.694 74.1844 91.8582 74.1844 92.0606C74.1844 92.2634 73.8787 92.4273 73.5017 92.4273Z" fill="#29AEE9"/>
<path d="M73.5017 96.4568H22.1681C21.7911 96.4568 21.4854 96.2925 21.4854 96.0902C21.4854 95.8878 21.7911 95.7235 22.1681 95.7235H73.5017C73.8787 95.7235 74.1844 95.8878 74.1844 96.0902C74.1844 96.2925 73.8787 96.4568 73.5017 96.4568Z" fill="#29AEE9"/>
<path d="M73.5017 100.485H22.1681C21.7911 100.485 21.4854 100.32 21.4854 100.118C21.4854 99.9157 21.7911 99.7515 22.1681 99.7515H73.5017C73.8787 99.7515 74.1844 99.9157 74.1844 100.118C74.1844 100.32 73.8787 100.485 73.5017 100.485Z" fill="#29AEE9"/>
<path d="M73.5017 104.515H22.1681C21.7911 104.515 21.4854 104.351 21.4854 104.148C21.4854 103.946 21.7911 103.782 22.1681 103.782H73.5017C73.8787 103.782 74.1844 103.946 74.1844 104.148C74.1844 104.351 73.8787 104.515 73.5017 104.515Z" fill="#29AEE9"/>
<path d="M253.608 167.818H1.26684C1.1659 167.818 1.08398 167.736 1.08398 167.634C1.08398 167.533 1.1659 167.451 1.26684 167.451H253.608C253.709 167.451 253.791 167.533 253.791 167.634C253.791 167.736 253.709 167.818 253.608 167.818Z" fill="#29AEE9"/>
<path d="M202.701 157.346L201.309 164.262H197.318L197.45 157.628L202.701 157.346Z" fill="#E48A68"/>
<path d="M187.457 166.714H203.665C203.711 166.225 203.361 164.894 203.01 164.413C202.992 163.692 202.841 161.958 201.774 161.958C200.706 161.958 200.245 163.507 199.193 163.507C198.142 163.507 197.995 161.733 196.833 161.733C195.671 161.733 194.971 163.027 194.971 163.027L189.795 164.507C188.705 164.819 187.833 165.642 187.457 166.714Z" fill="#0A2256"/>
<path d="M203.756 167.635H187.367C187.271 167.635 187.193 167.557 187.193 167.461V166.888C187.193 166.792 187.271 166.714 187.367 166.714H203.756C203.852 166.714 203.929 166.792 203.929 166.888V167.461C203.929 167.557 203.852 167.635 203.756 167.635Z" fill="#0A2256"/>
<path d="M218.904 144.484L224.411 148.762L221.547 151.548L215.33 148.352L218.904 144.484Z" fill="#E48A68"/>
<path d="M216.173 160.192L227.807 148.878C227.5 148.494 226.324 147.783 225.739 147.683C225.225 147.179 223.912 146.039 223.146 146.784C222.379 147.53 223.124 148.964 222.37 149.697C221.615 150.431 220.277 149.26 219.443 150.071C218.61 150.882 219.005 152.3 219.005 152.3L216.318 156.976C215.752 157.961 215.698 159.16 216.173 160.192Z" fill="#0A2256"/>
<path d="M228.51 149.476L216.747 160.916C216.678 160.983 216.568 160.981 216.501 160.912L216.104 160.501C216.037 160.432 216.039 160.322 216.107 160.255L227.871 148.815C227.94 148.748 228.05 148.75 228.117 148.819L228.514 149.23C228.581 149.299 228.579 149.409 228.51 149.476Z" fill="#0A2256"/>
<path d="M196.148 95.5594C194.404 100.214 189.551 121.272 189.551 126.213C189.551 131.154 212.375 147.955 215.635 150.312L220.488 143.774C215.635 138.149 203.731 125.132 201.077 122.936L212.375 96.0801L196.148 95.5594Z" fill="#0A2256"/>
<path d="M218.481 95.3929C219.728 100.898 215.175 118.307 205.736 129.254C206.003 134.803 205.438 150.539 204.318 158.065H196.069C195.539 152.516 193.491 132.827 194.174 128.418C194.856 124.008 202.246 100.777 204.505 96.0797L218.481 95.3929Z" fill="#0A2256"/>
<path d="M194.058 132.762C193.984 132.762 193.923 132.703 193.921 132.628C193.871 130.65 193.911 129.226 194.04 128.396C194.735 123.903 202.178 100.604 204.382 96.0195C204.415 95.951 204.497 95.9224 204.565 95.9554C204.633 95.9884 204.662 96.0705 204.629 96.139C202.43 100.713 195.005 123.956 194.31 128.438C194.185 129.252 194.146 130.659 194.195 132.621C194.197 132.697 194.137 132.76 194.062 132.762C194.06 132.762 194.06 132.762 194.058 132.762Z" fill="#0A2256"/>
<path d="M205.554 142.915C205.552 142.915 205.55 142.915 205.548 142.915C205.472 142.912 205.414 142.848 205.417 142.772C205.659 137.282 205.731 131.978 205.6 129.26C205.599 129.224 205.61 129.19 205.634 129.163C205.882 128.875 206.127 128.583 206.368 128.287C206.416 128.228 206.503 128.219 206.561 128.267C206.619 128.315 206.628 128.402 206.58 128.46C206.349 128.745 206.115 129.025 205.877 129.301C206.006 132.082 205.936 137.238 205.691 142.783C205.688 142.858 205.627 142.915 205.554 142.915Z" fill="#0A2256"/>
<path d="M194.121 128.915C194.058 128.915 194.002 128.872 193.988 128.808C193.971 128.734 194.017 128.661 194.091 128.644C195.371 128.352 196.732 128.307 198.028 128.514C198.103 128.526 198.154 128.597 198.142 128.671C198.13 128.747 198.059 128.798 197.985 128.786C196.723 128.584 195.398 128.628 194.152 128.912C194.141 128.914 194.131 128.915 194.121 128.915Z" fill="#0A2256"/>
<path d="M216.282 105.576C216.261 105.576 216.241 105.572 216.222 105.562C214.711 104.824 213.494 103.501 212.884 101.93C212.273 100.361 212.276 98.561 212.89 96.9929C212.918 96.9217 212.998 96.8862 213.068 96.9151C213.138 96.9426 213.173 97.0226 213.145 97.093C212.556 98.5977 212.554 100.325 213.139 101.831C213.725 103.337 214.892 104.607 216.342 105.315C216.41 105.348 216.438 105.43 216.405 105.499C216.381 105.547 216.332 105.576 216.282 105.576Z" fill="#0A2256"/>
<path d="M203.628 157.279C203.625 157.279 203.622 157.279 203.618 157.278C203.542 157.272 203.486 157.206 203.492 157.131C204.135 148.632 204.502 139.57 204.858 130.807L204.881 130.215C204.72 130.018 204.483 129.784 204.224 129.703C204.17 129.686 204.132 129.637 204.128 129.58C204.125 129.524 204.156 129.47 204.208 129.447C204.361 129.376 204.52 129.283 204.673 129.194C204.789 129.125 204.909 129.055 205.029 128.993C204.975 128.894 204.926 128.791 204.875 128.689C204.806 128.546 204.737 128.404 204.659 128.274C204.629 128.224 204.634 128.161 204.671 128.116C209.959 121.738 213.862 114.128 215.958 106.106C215.978 106.033 216.053 105.988 216.125 106.008C216.199 106.027 216.242 106.102 216.223 106.176C214.125 114.205 210.226 121.825 204.943 128.217C205.006 128.33 205.064 128.449 205.122 128.568C205.191 128.71 205.259 128.851 205.337 128.981C205.357 129.015 205.362 129.055 205.35 129.092C205.339 129.13 205.312 129.161 205.277 129.177C205.124 129.247 204.965 129.34 204.811 129.43C204.734 129.476 204.655 129.522 204.574 129.567C204.8 129.708 204.992 129.913 205.127 130.083C205.148 130.109 205.158 130.141 205.157 130.175L205.131 130.818C204.776 139.583 204.408 148.648 203.765 157.151C203.76 157.224 203.699 157.279 203.628 157.279Z" fill="#0A2256"/>
<path d="M201.891 108.155C201.864 108.155 201.837 108.147 201.814 108.131C200.496 107.232 199.379 105.841 198.75 104.315C198.737 104.283 198.736 104.248 198.747 104.216L201.499 96.5685C201.525 96.4967 201.603 96.4589 201.675 96.4857C201.746 96.5113 201.783 96.5902 201.757 96.6617L199.023 104.259C199.636 105.717 200.707 107.044 201.967 107.904C202.03 107.947 202.046 108.032 202.004 108.095C201.977 108.134 201.934 108.155 201.891 108.155Z" fill="#0A2256"/>
<path d="M207.781 99.2975C203.991 99.2975 200.202 98.7952 196.526 97.7913C196.453 97.7712 196.41 97.6956 196.43 97.6223C196.449 97.549 196.523 97.5035 196.598 97.5259C203.69 99.4625 211.203 99.5212 218.325 97.6945C218.4 97.6766 218.474 97.7202 218.492 97.7939C218.511 97.8672 218.467 97.942 218.393 97.9611C214.918 98.852 211.348 99.2975 207.781 99.2975Z" fill="#0A2256"/>
<path d="M201.338 49.3957C200.439 48.5323 199.838 47.3634 199.658 46.1285C199.546 45.3641 199.597 44.5791 199.797 43.8341C200.016 43.0234 200.708 42.4126 201.538 42.2993C204.919 41.8373 208.439 42.6451 211.328 44.4812C211.799 44.78 212.097 45.2999 212.088 45.8583C212.08 46.4398 212.022 47.0169 211.904 47.5933C212.357 47.5632 212.814 47.8353 213.005 48.2474C213.189 48.6452 213.129 49.1127 213.016 49.5365C212.729 50.6166 212.136 51.5857 211.551 52.5371C208.426 50.6592 204.97 49.6861 201.338 49.3957Z" fill="#7D3119"/>
<path d="M204.085 58.0598C205.014 58.0657 205.913 57.8402 206.706 57.4127C207.497 56.9892 208.182 56.3839 208.696 55.6227L209.525 54.3963V47.0352C209.525 45.4989 208.266 44.2626 206.735 44.2963L204.221 44.3543C202.735 44.3862 202.107 45.7105 201.551 47.0909C200.877 48.7569 201.419 49.8118 201.363 51.6014C201.358 51.807 201.343 52.0208 201.32 52.2426C201.31 52.3306 201.298 52.4204 201.286 52.5125C201.28 52.5565 201.272 52.6023 201.265 52.6481C201.253 52.7299 201.238 52.8139 201.222 52.8997C201.208 52.9796 201.194 53.0555 201.184 53.1314C201.178 53.1633 201.171 53.1933 201.167 53.2252C201.141 53.4071 201.12 53.5809 201.106 53.7506C201.09 53.9123 201.082 54.0722 201.078 54.224C200.995 57.1711 202.85 58.0539 204.085 58.0598Z" fill="#E48A68"/>
<path d="M204.236 61.0749C204.236 61.0749 205.111 62.6731 207.445 62.6731C209.677 62.6731 210.795 61.0749 210.795 61.0749L209.527 54.3954L204.736 57.4602L204.642 58.0329L204.466 59.2289L204.236 61.0749Z" fill="#E48A68"/>
<path d="M204.467 59.2289C205.372 59.0379 206.223 58.6159 206.939 58.0142C207.642 57.4243 208.202 56.6609 208.554 55.8169C208.063 56.4879 207.429 57.0257 206.708 57.4129C206.073 57.7542 205.376 57.968 204.643 58.0318L204.467 59.2289Z" fill="#2C2F37"/>
<path d="M208.383 52.9004C208.383 53.9127 209.201 54.7332 210.211 54.7332C211.221 54.7332 212.04 53.9127 212.04 52.9004C212.04 51.8881 211.221 51.0675 210.211 51.0675C209.201 51.0671 208.383 51.8881 208.383 52.9004Z" fill="#E48A68"/>
<path d="M209.167 54.0176C209.164 54.0176 209.161 54.0176 209.159 54.0172C209.083 54.0124 209.026 53.9472 209.031 53.8716C209.064 53.3341 209.336 52.8135 209.758 52.4791C210.179 52.1447 210.747 51.9999 211.277 52.0909C211.352 52.1037 211.402 52.1748 211.389 52.2496C211.377 52.324 211.307 52.3728 211.231 52.3618C210.778 52.2833 210.289 52.4084 209.928 52.6947C209.566 52.9818 209.333 53.428 209.304 53.8889C209.3 53.9615 209.239 54.0176 209.167 54.0176Z" fill="#BF603B"/>
<path d="M211.002 53.758C210.943 53.758 210.889 53.7195 210.871 53.6598C210.725 53.1714 210.312 52.8036 209.819 52.7223C209.745 52.7098 209.694 52.639 209.706 52.5642C209.718 52.4894 209.786 52.4377 209.864 52.4506C210.459 52.5488 210.958 52.9921 211.134 53.5806C211.156 53.6532 211.114 53.7298 211.042 53.7518C211.028 53.7562 211.015 53.758 211.002 53.758Z" fill="#BF603B"/>
<path d="M204.398 53.0771C204.379 53.0771 204.36 53.073 204.342 53.065C204.183 52.9935 204.004 52.9128 203.868 52.7684C203.728 52.621 203.631 52.3727 203.729 52.1509C203.777 52.0428 203.858 51.9672 203.931 51.9001L203.989 51.8448C204.183 51.6497 204.265 51.3813 204.299 51.1903C204.345 50.9333 204.338 50.6627 204.331 50.4013C204.329 50.3254 204.388 50.2623 204.464 50.2601C204.539 50.2704 204.603 50.3184 204.605 50.394C204.612 50.6693 204.62 50.9542 204.569 51.2387C204.51 51.568 204.377 51.8448 204.183 52.0391C204.161 52.0607 204.139 52.0816 204.116 52.1022C204.059 52.1553 204.004 52.2059 203.98 52.262C203.933 52.3676 203.992 52.5007 204.067 52.5795C204.166 52.6848 204.312 52.7504 204.454 52.8142C204.523 52.8453 204.554 52.9267 204.523 52.996C204.5 53.0466 204.45 53.0771 204.398 53.0771Z" fill="#2C2F37"/>
<path d="M203.631 49.0517C203.641 49.1533 203.619 49.2581 203.569 49.3468C203.518 49.4356 203.442 49.5056 203.35 49.5492C203.153 49.4183 202.948 49.2834 202.713 49.2526C202.499 49.224 202.28 49.2871 202.091 49.3919C201.902 49.4968 201.725 49.6398 201.567 49.7872C201.507 49.7832 201.454 49.7282 201.452 49.6677C201.634 49.2977 201.995 48.9817 202.407 48.8625C202.818 48.7437 203.267 48.8251 203.631 49.0517Z" fill="#7D3119"/>
<path d="M203.435 51.2011C203.381 51.2011 203.33 51.1689 203.308 51.1153C203.198 50.8425 202.968 50.6984 202.644 50.6984C202.333 50.6984 202.066 50.8579 201.929 51.1249C201.894 51.1923 201.812 51.2187 201.744 51.1843C201.677 51.1494 201.651 51.0666 201.685 50.9991C201.87 50.6387 202.228 50.4235 202.644 50.4235C203.082 50.4235 203.409 50.6325 203.563 51.0119C203.591 51.0823 203.557 51.1626 203.487 51.1912C203.47 51.1982 203.452 51.2011 203.435 51.2011Z" fill="#2C2F37"/>
<path d="M202.974 51.0415C202.974 51.3065 202.818 51.5214 202.624 51.5214C202.431 51.5214 202.274 51.3065 202.274 51.0415C202.274 50.7764 202.431 50.5615 202.624 50.5615C202.818 50.5612 202.974 50.7764 202.974 51.0415Z" fill="#2C2F37"/>
<path d="M205.265 49.0517C205.255 49.1533 205.277 49.2581 205.327 49.3468C205.377 49.4356 205.454 49.5056 205.546 49.5492C205.743 49.4183 205.948 49.2834 206.183 49.2526C206.397 49.224 206.616 49.2871 206.805 49.3919C206.995 49.4968 207.171 49.6398 207.329 49.7872C207.39 49.7832 207.442 49.7282 207.444 49.6677C207.262 49.2977 206.901 48.9817 206.49 48.8625C206.078 48.7437 205.629 48.8251 205.265 49.0517Z" fill="#7D3119"/>
<path d="M205.46 51.2011C205.442 51.2011 205.425 51.1978 205.408 51.1912C205.338 51.1626 205.304 51.0823 205.332 51.0119C205.486 50.6325 205.813 50.4235 206.251 50.4235C206.666 50.4235 207.025 50.6387 207.21 50.9991C207.244 51.0666 207.218 51.1494 207.151 51.1843C207.082 51.2187 207.001 51.1923 206.966 51.1249C206.829 50.8579 206.562 50.6984 206.251 50.6984C205.927 50.6984 205.697 50.8425 205.587 51.1153C205.565 51.1689 205.513 51.2011 205.46 51.2011Z" fill="#2C2F37"/>
<path d="M206.623 51.0413C206.623 51.3064 206.466 51.5213 206.273 51.5213C206.079 51.5213 205.923 51.3064 205.923 51.0413C205.923 50.7763 206.079 50.5614 206.273 50.5614C206.466 50.561 206.623 50.7763 206.623 51.0413Z" fill="#2C2F37"/>
<path d="M204.583 56.4027C204.564 56.4027 204.544 56.3987 204.526 56.3899C204.202 56.2403 203.955 56.2356 203.643 56.3756C203.575 56.4064 203.493 56.376 203.462 56.3063C203.431 56.237 203.462 56.1556 203.531 56.1245C203.914 55.9529 204.245 55.9569 204.641 56.1402C204.709 56.1721 204.74 56.2535 204.708 56.3224C204.685 56.3734 204.635 56.4027 204.583 56.4027Z" fill="#BF603B"/>
<path d="M205.901 52.9003C205.901 53.0733 206.323 53.2134 206.842 53.2134C207.362 53.2134 207.783 53.073 207.783 52.9003C207.783 52.7272 207.361 52.5872 206.842 52.5872C206.323 52.5868 205.901 52.7272 205.901 52.9003Z" fill="#BF513B"/>
<path d="M201.178 53.1317C201.345 53.1838 201.566 53.2135 201.809 53.2135C202.329 53.2135 202.75 53.0738 202.75 52.9C202.75 52.7281 202.329 52.5884 201.809 52.5884C201.604 52.5884 201.415 52.6104 201.259 52.6481C201.247 52.7299 201.231 52.8139 201.215 52.8997C201.201 52.98 201.188 53.0558 201.178 53.1317Z" fill="#BF513B"/>
<path d="M202.938 54.4233C203.856 54.5032 204.794 54.3408 205.633 53.9573C205.533 54.3628 205.343 54.7481 205.008 54.9974C204.674 55.2471 204.232 55.3579 203.827 55.2614C203.421 55.165 203.053 54.8248 202.938 54.4233Z" fill="white"/>
<path d="M210.579 46.3353V51.1054C210.459 51.0834 210.338 51.0687 210.21 51.0687C209.453 51.0687 208.802 51.527 208.524 52.1833C208.363 52.1027 208.228 51.9597 208.151 51.7947C208.005 51.483 208.019 51.1274 208.038 50.7827C208.092 49.7781 208.147 48.7699 208.202 47.7616C205.887 46.9476 203.298 47.0393 201.078 48.0842L201.671 45.6827L203.433 43.9558L208.55 44.1428L210.579 46.3353Z" fill="#7D3119"/>
<path d="M195.485 63.5969C193.662 64.7181 192.149 76.2586 192.149 76.2586C192.149 76.2586 188.996 71.0996 187.654 70.745C186.311 70.3905 184.932 72.1929 184.617 73.3592C184.302 74.5255 191.758 84.8106 193.503 85.6591C195.248 86.5071 197.175 85.6591 197.175 85.6591L200.008 67.8841L195.485 63.5969Z" fill="white"/>
<path d="M218.797 69.5553C218.259 71.8615 219.956 93.1563 218.482 95.3928C217.008 97.6293 196.62 97.27 195.592 95.7044C194.565 94.1389 196.419 71.4655 197.699 67.9971C195.552 67.5278 194.557 64.2206 195.49 63.5973C196.423 62.974 202.958 61.2252 204.234 61.0748C204.234 61.0748 205.108 62.6734 207.441 62.6734C209.676 62.6734 210.795 61.0748 210.795 61.0748C211.888 61.1958 218.961 62.6001 219.55 63.535C220.143 64.47 221.287 68.899 218.797 69.5553Z" fill="#29AEE9"/>
<path d="M195.533 86.1744C195.53 86.1744 195.527 86.1744 195.524 86.174C195.449 86.1692 195.391 86.104 195.396 86.0284C195.83 78.9841 196.785 70.0687 197.568 67.9484C197.594 67.8773 197.673 67.8406 197.745 67.8674C197.816 67.8938 197.852 67.973 197.826 68.0441C197.075 70.0746 196.105 78.9914 195.67 86.0453C195.665 86.1183 195.605 86.1744 195.533 86.1744Z" fill="#C8C3CA"/>
<path d="M217.205 94.7608C217.196 94.7608 217.186 94.7598 217.177 94.7579C217.103 94.7425 217.055 94.6695 217.071 94.5955C218.017 90.0447 217.605 85.304 217.207 80.7191C216.935 77.5868 216.653 74.3483 216.8 71.1727C216.804 71.0969 216.868 71.0375 216.944 71.0419C217.02 71.0452 217.078 71.1097 217.074 71.1856C216.928 74.3424 217.209 77.5722 217.48 80.6952C217.88 85.2999 218.294 90.0612 217.339 94.6512C217.326 94.7165 217.269 94.7608 217.205 94.7608Z" fill="#C8C3CA"/>
<path d="M197.182 70.3213C197.128 70.3213 197.076 70.2879 197.054 70.2336C196.763 69.4828 196.533 68.7014 196.372 67.9117C196.357 67.8373 196.405 67.7647 196.479 67.7496C196.554 67.7324 196.625 67.7823 196.64 67.8567C196.799 68.631 197.024 69.3973 197.31 70.1339C197.337 70.2047 197.302 70.2842 197.232 70.3117C197.216 70.3183 197.199 70.3213 197.182 70.3213Z" fill="#C8C3CA"/>
<path d="M206.602 62.5985L210.571 59.9268L212.584 61.3878L209.113 64.6935L206.602 62.5985Z" fill="#C8C3CA"/>
<path d="M206.601 62.5987L204.287 60.6129L202.422 61.454L205.099 64.598L206.601 62.5987Z" fill="#C8C3CA"/>
<path d="M204.543 97.1128C204.47 97.1128 204.41 97.056 204.406 96.9826C203.629 82.0675 205.003 72.7382 205.913 66.5643C206.133 65.0684 206.324 63.7767 206.462 62.5833C206.47 62.5081 206.536 62.4553 206.614 62.4623C206.689 62.4711 206.743 62.5393 206.734 62.6144C206.596 63.8123 206.405 65.1058 206.184 66.6039C205.276 72.7668 203.904 82.0804 204.68 96.968C204.684 97.0439 204.626 97.1084 204.55 97.1121C204.548 97.1128 204.545 97.1128 204.543 97.1128Z" fill="#C8C3CA"/>
<path d="M207.29 65.5363C206.819 65.5363 206.818 66.2695 207.29 66.2695C207.76 66.2695 207.761 65.5363 207.29 65.5363Z" fill="#C8C3CA"/>
<path d="M206.798 68.5994C206.327 68.5994 206.326 69.3327 206.798 69.3327C207.268 69.3327 207.269 68.5994 206.798 68.5994Z" fill="#C8C3CA"/>
<path d="M206.305 71.6073C205.835 71.6073 205.834 72.3406 206.305 72.3406C206.776 72.3406 206.777 71.6073 206.305 71.6073Z" fill="#C8C3CA"/>
<path d="M205.871 75.9833C205.4 75.9833 205.399 76.7166 205.871 76.7166C206.342 76.7166 206.342 75.9833 205.871 75.9833Z" fill="#C8C3CA"/>
<path d="M205.706 79.9209C205.235 79.9209 205.234 80.6542 205.706 80.6542C206.176 80.6542 206.177 79.9209 205.706 79.9209Z" fill="#C8C3CA"/>
<path d="M205.489 83.9136C205.018 83.9136 205.018 84.6469 205.489 84.6469C205.959 84.6469 205.96 83.9136 205.489 83.9136Z" fill="#C8C3CA"/>
<path d="M205.489 88.5079C205.018 88.5079 205.018 89.2412 205.489 89.2412C205.959 89.2412 205.96 88.5079 205.489 88.5079Z" fill="#C8C3CA"/>
<path d="M205.379 93.595C204.908 93.595 204.907 94.3283 205.379 94.3283C205.849 94.3283 205.85 93.595 205.379 93.595Z" fill="#C8C3CA"/>
<path d="M216.773 102.506C215.703 103.381 214.128 103.22 213.255 102.146L183.542 65.7015L187.419 62.5348L217.132 98.9797C218.004 100.053 217.844 101.632 216.773 102.506Z" fill="#2C2F37"/>
<path d="M183.547 65.712L187.424 62.5449L184.939 59.4875L181.062 62.6546L183.547 65.712Z" fill="#EBB044"/>
<g opacity="0.3">
<path d="M159.495 34.5802L186.282 55.6916C186.892 54.6584 187.394 53.5559 187.783 52.3922C189.116 48.4159 188.911 44.2868 187.494 40.6566L164.735 31.0791C164.436 31.2085 164.138 31.3449 163.844 31.4923C162.221 32.3026 160.758 33.3439 159.495 34.5802Z" fill="white"/>
<path d="M155.819 39.8705L175.661 63.6295C176.854 63.3299 178.024 62.8991 179.152 62.3349C181.28 61.2731 183.13 59.8127 184.618 58.0466L157.862 36.4248C157.056 37.48 156.368 38.636 155.819 39.8705Z" fill="white"/>
<path d="M154.457 44.735L167.221 63.5938C169.236 64.1177 171.3 64.2684 173.328 64.0484L154.936 42.3412C154.716 43.1368 154.556 43.9357 154.457 44.735Z" fill="white"/>
</g>
<path d="M180.058 64.1698C175.461 66.4631 170.248 66.8243 165.38 65.1865C155.329 61.806 149.897 50.8584 153.269 40.783C154.902 35.9018 158.334 31.9512 162.931 29.6579C167.528 27.3645 172.742 27.0037 177.61 28.6412C187.66 32.0216 193.093 42.9693 189.721 53.0447C188.605 56.3789 186.65 59.2791 184.057 61.5134C182.855 62.5499 181.515 63.4431 180.058 64.1698ZM176.959 30.5847C172.609 29.1215 167.95 29.4441 163.842 31.4933C159.733 33.5428 156.666 37.0736 155.207 41.4349C152.193 50.4386 157.048 60.2218 166.029 63.2433C170.38 64.7066 175.039 64.3839 179.147 62.3344C183.256 60.2852 186.322 56.7544 187.782 52.3928C190.796 43.3891 185.941 33.6059 176.959 30.5847Z" fill="#2C2F37"/>
<path d="M212.891 88.8739C210.768 89.0774 208.437 89.9082 207.867 90.2195C207.298 90.5308 205.305 93.2832 205.032 93.7242C204.76 94.1657 205.165 94.9217 206.032 94.2269C206.032 94.2269 205.33 95.1615 205.032 95.5721C204.734 95.9831 205.387 96.3359 205.801 96.0469C206.215 95.758 207.216 95.0486 207.216 95.0486C207.216 95.0486 206.676 95.934 206.262 96.4506C205.847 96.9672 206.515 97.5414 207.111 97.0482C207.707 96.5551 208.515 95.5725 208.515 95.5725C208.515 95.5725 207.88 96.635 207.453 97.4633C207.049 98.2465 207.997 98.2681 208.463 97.7749C208.929 97.2818 210.587 95.75 210.664 95.2565C211.234 95.3602 214.331 94.3721 215.191 93.5941L212.891 88.8739Z" fill="#E48A68"/>
<path d="M208.193 96.2165C208.169 96.2165 208.145 96.2102 208.123 96.1974C208.058 96.1589 208.036 96.0746 208.075 96.0089C208.515 95.2584 209.039 94.5541 209.632 93.9154C209.683 93.8593 209.77 93.8564 209.825 93.9081C209.881 93.9598 209.884 94.0467 209.832 94.102C209.253 94.7264 208.741 95.415 208.311 96.1483C208.286 96.1923 208.24 96.2165 208.193 96.2165Z" fill="#BF603B"/>
<path d="M206.771 95.6961C206.744 95.6961 206.717 95.688 206.693 95.6719C206.631 95.629 206.615 95.5432 206.658 95.4809C207.305 94.5371 208.057 93.6608 208.891 92.8773C208.946 92.8249 209.034 92.8282 209.085 92.8839C209.137 92.9389 209.134 93.0262 209.079 93.0779C208.259 93.8482 207.52 94.7087 206.884 95.6367C206.857 95.6755 206.815 95.6961 206.771 95.6961Z" fill="#BF603B"/>
<path d="M205.804 94.5651C205.776 94.5651 205.748 94.5567 205.724 94.5391C205.662 94.4947 205.649 94.4089 205.693 94.3473C206.329 93.4656 207.07 92.6567 207.893 91.9432C207.949 91.893 208.037 91.8996 208.086 91.9572C208.136 92.0144 208.129 92.1016 208.072 92.1511C207.265 92.8503 206.54 93.6434 205.915 94.5083C205.889 94.5457 205.847 94.5651 205.804 94.5651Z" fill="#BF603B"/>
<path d="M219.552 63.5341C221.748 65.1946 232.43 79.6147 231.214 82.3715C229.997 85.1283 215.191 94.1408 215.191 94.1408L211.595 87.9911C213.181 86.9839 219.633 82.0533 221.007 81.4172C218.878 78.9808 214.662 72.097 214.82 70.1832C214.979 68.2696 219.552 63.5341 219.552 63.5341Z" fill="white"/>
<path d="M215.189 94.2789C215.143 94.2789 215.097 94.2554 215.072 94.2125C215.033 94.1476 215.053 94.0633 215.118 94.0237C215.134 94.0138 216.773 93.0151 218.969 91.6053C219.033 91.5646 219.118 91.5822 219.159 91.6467C219.2 91.7109 219.182 91.7956 219.118 91.8367C216.918 93.2486 215.276 94.2485 215.26 94.2584C215.238 94.2723 215.213 94.2789 215.189 94.2789Z" fill="#C8C3CA"/>
<path d="M218.862 78.6587C218.817 78.6587 218.774 78.6371 218.748 78.5975C216.707 75.5346 214.565 71.5913 214.682 70.172C214.689 70.0968 214.75 70.0404 214.831 70.0466C214.906 70.0528 214.962 70.1192 214.956 70.1951C214.849 71.4883 216.897 75.3241 218.975 78.445C219.018 78.508 219.001 78.5935 218.937 78.6356C218.915 78.6514 218.888 78.6587 218.862 78.6587Z" fill="#C8C3CA"/>
<path d="M211.594 88.1293C211.549 88.1293 211.504 88.1066 211.478 88.0652C211.438 88.001 211.457 87.9163 211.521 87.8756C212.135 87.4859 213.521 86.4761 214.989 85.4074C216.306 84.4486 217.798 83.3615 218.967 82.5516C219.029 82.509 219.114 82.5241 219.157 82.5864C219.2 82.6487 219.185 82.7345 219.122 82.7778C217.956 83.5859 216.465 84.6715 215.15 85.6296C213.614 86.7478 212.288 87.7136 211.667 88.1077C211.645 88.1224 211.619 88.1293 211.594 88.1293Z" fill="#C8C3CA"/>
<path d="M223.055 81.7045C223.052 81.7045 223.049 81.7045 223.045 81.7041L220.996 81.5549C220.921 81.5494 220.864 81.4834 220.869 81.4079C220.875 81.3324 220.932 81.2774 221.016 81.2807L223.065 81.4299C223.141 81.4354 223.197 81.5014 223.192 81.5769C223.187 81.6495 223.127 81.7045 223.055 81.7045Z" fill="#C8C3CA"/>
<path d="M187.762 71.4911C187.962 71.8131 188.048 72.205 188.001 72.5812C187.954 72.9574 187.774 73.3159 187.5 73.5781C186.731 73.7093 185.907 73.3922 185.346 72.8481C184.786 72.304 184.458 71.5498 184.333 70.778C184.208 70.0059 184.06 69.1406 184.416 68.4451C184.685 67.9197 186.043 66.8502 186.609 66.5587C187.175 66.2668 187.563 66.6885 187.239 67.1259C186.916 67.5633 186.512 67.9955 186.512 67.9955C186.512 67.9955 187.385 67.3851 187.821 67.142C188.257 66.8989 188.936 67.3301 188.371 67.8841C187.805 68.4381 187.336 68.9404 187.336 68.9404C187.336 68.9404 188.155 68.4381 188.586 68.2438C189.017 68.0494 189.68 68.5279 189.179 69.0339C188.678 69.5402 187.934 70.1837 187.934 70.1837C187.934 70.1837 188.516 69.9776 189.017 69.7994C189.518 69.6213 190.035 70.1558 189.437 70.5448C188.839 70.9338 187.762 71.4911 187.762 71.4911Z" fill="#E48A68"/>
<path d="M185.49 69.0226C185.454 69.0226 185.417 69.0083 185.39 68.98C185.338 68.925 185.34 68.8378 185.395 68.7857C185.841 68.36 186.311 67.9512 186.791 67.5714C186.85 67.5252 186.936 67.5343 186.983 67.5941C187.03 67.6539 187.02 67.74 186.96 67.7873C186.487 68.162 186.024 68.565 185.584 68.9848C185.558 69.0101 185.523 69.0226 185.49 69.0226Z" fill="#BF603B"/>
<path d="M186.36 69.8719C186.326 69.8719 186.292 69.8595 186.266 69.8349C186.211 69.7829 186.208 69.696 186.259 69.6406C186.692 69.1768 187.228 68.7614 187.731 68.5011C187.797 68.4659 187.881 68.4923 187.915 68.5601C187.951 68.6276 187.924 68.7104 187.857 68.7453C187.38 68.992 186.872 69.3865 186.46 69.8283C186.433 69.8573 186.397 69.8719 186.36 69.8719Z" fill="#BF603B"/>
<path d="M187.067 70.8601C187.025 70.8601 186.982 70.8403 186.955 70.8025C186.911 70.7405 186.925 70.6551 186.987 70.6107C187.377 70.3303 187.801 70.093 188.245 69.9064C188.315 69.8767 188.395 69.9097 188.424 69.9801C188.454 70.0501 188.421 70.1308 188.351 70.1601C187.926 70.3391 187.521 70.566 187.147 70.8344C187.123 70.852 187.095 70.8601 187.067 70.8601Z" fill="#BF603B"/>
<path d="M58.0146 156.569L60.3739 164.261H64.3649L63.2663 156.85L58.0146 156.569Z" fill="#F3AB89"/>
<path d="M74.2267 166.714H58.0187C57.9727 166.224 58.323 164.893 58.6734 164.413C58.692 163.692 58.8423 161.958 59.9102 161.958C60.9781 161.958 61.4392 163.507 62.4903 163.507C63.5414 163.507 63.6887 161.733 64.8506 161.733C66.0121 161.733 66.7128 163.026 66.7128 163.026L71.8887 164.507C72.9789 164.819 73.8508 165.642 74.2267 166.714Z" fill="#0A2256"/>
<path d="M57.9292 167.634H74.3182C74.414 167.634 74.4916 167.556 74.4916 167.46V166.888C74.4916 166.791 74.414 166.714 74.3182 166.714H57.9292C57.8334 166.714 57.7559 166.791 57.7559 166.888V167.46C57.7559 167.556 57.8338 167.634 57.9292 167.634Z" fill="#0A2256"/>
<path d="M29.0528 156.569L28.5576 164.261H32.5486L34.3044 156.85L29.0528 156.569Z" fill="#F3AB89"/>
<path d="M42.4094 166.714H26.2014C26.1553 166.224 26.5056 164.893 26.856 164.413C26.8743 163.692 27.0249 161.958 28.0928 161.958C29.1607 161.958 29.6219 163.507 30.6729 163.507C31.724 163.507 31.8714 161.733 33.0332 161.733C34.1947 161.733 34.8954 163.026 34.8954 163.026L40.0714 164.507C41.1615 164.819 42.0334 165.642 42.4094 166.714Z" fill="#0A2256"/>
<path d="M26.1118 167.634H42.5008C42.5967 167.634 42.6742 167.556 42.6742 167.46V166.888C42.6742 166.791 42.5967 166.714 42.5008 166.714H26.1118C26.016 166.714 25.9385 166.791 25.9385 166.888V167.46C25.9385 167.556 26.016 167.634 26.1118 167.634Z" fill="#0A2256"/>
<path d="M56.9268 95.7046C56.9268 108.334 43.2404 147.976 35.0268 158.334H27.3213C28.0578 151.596 32.2152 133.295 37.02 127.988C35.5264 119.15 36.9044 104.225 42.1279 96.0896L56.9268 95.7046Z" fill="#0A2256"/>
<path d="M34.037 95.3914C32.2907 102.304 37.0844 118.027 45.3919 127.386C43.9909 133.875 54.5929 155.159 57.0603 158.334H64.9019C63.5327 149.973 52.4549 103.851 47.9739 96.0891L34.037 95.3914Z" fill="#0A2256"/>
<path d="M46.4344 135.195C46.3752 135.195 46.3203 135.157 46.3031 135.097C45.2766 131.621 44.9204 129.04 45.2437 127.426C41.9457 123.695 38.9355 118.612 36.7635 113.106C36.7357 113.035 36.7701 112.956 36.8407 112.928C36.9109 112.901 36.991 112.935 37.0184 113.005C39.1889 118.508 42.1987 123.583 45.4942 127.295C45.5234 127.328 45.5351 127.372 45.5256 127.415C45.1881 128.98 45.5377 131.537 46.5657 135.019C46.5873 135.091 46.546 135.168 46.4732 135.19C46.4604 135.194 46.4472 135.195 46.4344 135.195Z" fill="#999999"/>
<path d="M53.7611 112.941C53.7015 112.941 53.6467 112.902 53.6295 112.842C51.0995 104.025 49.1572 98.4115 47.8564 96.1585C47.8183 96.0929 47.841 96.0089 47.9065 95.9708C47.9719 95.9327 48.0557 95.9554 48.0941 96.021C49.4059 98.2927 51.357 103.927 53.8932 112.766C53.914 112.839 53.872 112.915 53.7992 112.936C53.786 112.94 53.7736 112.941 53.7611 112.941Z" fill="#999999"/>
<path d="M35.8961 105.627C35.8501 105.627 35.8054 105.604 35.7795 105.562C35.7396 105.497 35.759 105.413 35.8237 105.372C38.8035 103.515 40.706 100.044 40.6705 96.5263C40.6698 96.4504 40.7305 96.3881 40.8062 96.3873H40.8076C40.8826 96.3873 40.9441 96.4478 40.9448 96.5234C40.9814 100.134 39.0281 103.699 35.9685 105.606C35.9455 105.62 35.9206 105.627 35.8961 105.627Z" fill="#999999"/>
<path d="M51.8315 127.101C51.7573 127.101 51.6962 127.042 51.6944 126.967C51.6925 126.891 51.7522 126.828 51.8279 126.826C53.7179 126.778 55.5691 126.405 57.3307 125.719C57.4006 125.692 57.481 125.727 57.5081 125.798C57.5355 125.869 57.5004 125.948 57.4298 125.976C55.6386 126.673 53.7563 127.052 51.8348 127.101C51.8341 127.101 51.8326 127.101 51.8315 127.101Z" fill="#999999"/>
<path d="M28.6753 157.581C28.6705 157.581 28.6658 157.58 28.661 157.58C28.5857 157.572 28.5308 157.505 28.5389 157.429C29.579 147.328 32.8576 137.371 38.02 128.634C38.0587 128.569 38.1428 128.548 38.2079 128.586C38.273 128.625 38.2946 128.709 38.2562 128.775C33.1139 137.477 29.8481 147.396 28.8121 157.457C28.8044 157.528 28.7448 157.581 28.6753 157.581Z" fill="#999999"/>
<path d="M57.8293 157.337C57.7792 157.337 57.7309 157.31 57.7068 157.262C52.8808 147.704 47.8907 137.82 46.5855 126.936C41.9482 120.98 38.4411 113.97 36.4424 106.663C36.4223 106.59 36.4655 106.514 36.5386 106.494C36.6125 106.472 36.6871 106.517 36.7072 106.59C38.6996 113.875 42.1984 120.863 46.825 126.797C46.8404 126.816 46.8502 126.84 46.8532 126.865C48.1456 137.717 53.1302 147.59 57.9514 157.138C57.9858 157.206 57.9587 157.288 57.8911 157.323C57.8713 157.333 57.8501 157.337 57.8293 157.337Z" fill="#999999"/>
<path d="M80.1143 72.9577L83.0553 75.4839C84.1466 74.748 86.7293 72.5628 86.7293 72.5628L83.0871 68.8021C82.0602 69.4661 80.6047 71.7441 80.1143 72.9577Z" fill="#E7A282"/>
<path d="M83.0869 68.8022C83.8322 68.2882 87.9421 66.1199 88.3173 66.6486C88.6922 67.1773 84.8507 69.6829 84.2546 70.0191L83.0869 68.8022Z" fill="#E7A282"/>
<path d="M85.2487 69.2054C85.7026 68.9095 86.4852 69.5647 86.2431 70.1503C86.9442 70.1154 87.1402 70.7336 86.927 71.2099C87.5381 71.1934 87.6295 71.9223 87.2938 72.301C86.958 72.6797 85.3862 73.5788 85.0541 73.7452C84.7221 73.9117 84.2401 73.4083 84.548 73.0537C84.1669 73.1645 83.5449 72.708 83.8824 72.3619C83.279 72.5085 83.0084 71.8915 83.3441 71.5127C83.6802 71.1336 84.766 69.52 85.2487 69.2054Z" fill="#E7A282"/>
<path d="M84.915 73.9151C84.731 73.9151 84.5515 73.8062 84.4421 73.6643C84.3306 73.5198 84.2911 73.3541 84.3243 73.2005C84.0863 73.1682 83.8409 73.0227 83.7202 72.8203C83.6609 72.7213 83.6394 72.6175 83.654 72.5182C83.4411 72.5028 83.2601 72.3979 83.153 72.2197C83.0038 71.9704 83.0396 71.6496 83.2426 71.4208C83.3453 71.3049 83.5278 71.06 83.7388 70.7762C84.2227 70.1265 84.825 69.3177 85.1746 69.0897C85.2383 69.0486 85.3235 69.0666 85.3644 69.13C85.4058 69.1938 85.3875 69.2788 85.3242 69.3203C85.0155 69.5216 84.4048 70.3418 83.9586 70.9405C83.7436 71.2294 83.5578 71.4787 83.4474 71.6034C83.3055 71.7632 83.3153 71.9572 83.3881 72.0782C83.4752 72.2234 83.6438 72.2776 83.8507 72.2278C83.9104 72.2124 83.9718 72.2402 84.0022 72.2934C84.0325 72.3466 84.0241 72.4137 83.9809 72.4577C83.9129 72.5273 83.9052 72.5959 83.955 72.6795C84.0566 72.85 84.3375 72.9732 84.5101 72.9215C84.5686 72.9046 84.6312 72.9281 84.6637 72.9798C84.6966 73.0311 84.6915 73.0982 84.6517 73.144C84.5248 73.2899 84.6143 73.4392 84.6586 73.4967C84.738 73.5994 84.8821 73.6782 84.9932 73.6225C85.3454 73.4461 86.8818 72.5596 87.1915 72.2102C87.2416 72.153 87.3287 72.1482 87.385 72.1988C87.4417 72.2494 87.4468 72.3359 87.3963 72.3928C87.0423 72.792 85.4496 73.701 85.1157 73.8685C85.0503 73.9008 84.9823 73.9151 84.915 73.9151Z" fill="#F3AB89"/>
<path d="M84.5463 73.1908C84.5053 73.1908 84.4647 73.1725 84.4377 73.1377C84.3916 73.0775 84.4026 72.9914 84.4622 72.9448L86.8411 71.101C86.9015 71.0548 86.987 71.0661 87.0335 71.1255C87.0796 71.1857 87.0686 71.2718 87.009 71.3184L84.63 73.1622C84.6052 73.1817 84.5755 73.1908 84.5463 73.1908Z" fill="#F3AB89"/>
<path d="M83.8813 72.4992C83.8448 72.4992 83.8082 72.4845 83.7811 72.4556C83.7292 72.4002 83.7325 72.3129 83.7877 72.2612L86.1484 70.0496C86.2036 69.9979 86.2906 70.0005 86.3422 70.0562C86.3941 70.1116 86.3908 70.1989 86.3356 70.2506L83.9749 72.4622C83.9486 72.4867 83.915 72.4992 83.8813 72.4992Z" fill="#F3AB89"/>
<path d="M80.1152 72.9575C80.2067 72.4361 81.3078 69.6393 81.8875 69.4557C82.4671 69.272 85.4707 69.2639 85.609 69.7369C85.7472 70.2102 83.975 70.8056 83.5076 70.6901C83.5526 71.5103 82.6423 73.2471 81.7119 73.3883L80.1152 72.9575Z" fill="#E7A282"/>
<path d="M81.7082 73.5259C81.6416 73.5259 81.5831 73.4772 81.5729 73.409C81.5615 73.3338 81.6131 73.2638 81.6877 73.2524C82.5179 73.1266 83.4095 71.4712 83.367 70.6976C83.3648 70.654 83.3831 70.6122 83.4164 70.5843C83.4497 70.5561 83.4943 70.5462 83.5367 70.5565C83.845 70.6331 85.046 70.2895 85.4022 69.9167C85.4282 69.8895 85.4871 69.8213 85.4735 69.7755C85.373 69.5412 83.5367 69.3938 82.3054 69.5222C82.233 69.5313 82.1624 69.4752 82.1547 69.3997C82.147 69.3242 82.2015 69.2563 82.2768 69.2486C82.6799 69.2068 85.5525 69.0675 85.7368 69.6981C85.7639 69.7909 85.7621 69.9376 85.6001 70.107C85.2325 70.4916 84.1844 70.8413 83.649 70.8413C83.6457 70.8413 83.6424 70.8413 83.6391 70.8413C83.5795 71.7668 82.6682 73.3815 81.7283 73.5237C81.7221 73.5252 81.7151 73.5259 81.7082 73.5259Z" fill="#F3AB89"/>
<path d="M57.0264 63.597C59.7023 65.7485 64.6727 74.5564 65.6576 76.9759C68.2995 75.3553 80.1112 71.8114 80.1112 71.8114L83.6601 75.8492C80.658 79.0365 69.2397 85.5008 64.6277 85.5008C60.0157 85.5008 53.3887 74.5491 53.3887 74.5491V66.7814L57.0264 63.597Z" fill="#29AEE9"/>
<path d="M55.0824 70.5342C55.063 70.5342 55.0432 70.5302 55.0242 70.521C54.9555 70.4887 54.9262 70.407 54.9584 70.338C55.2861 69.6396 55.7059 68.9877 56.2058 68.4007C56.2552 68.3428 56.3419 68.3362 56.3993 68.3853C56.4567 68.4344 56.4636 68.5213 56.4146 68.5792C55.9304 69.1475 55.5241 69.7789 55.2067 70.455C55.1833 70.5052 55.1339 70.5342 55.0824 70.5342Z" fill="#BF8419"/>
<path d="M66.2201 79.9293C66.1521 79.9293 66.0928 79.8783 66.084 79.8087C65.9637 78.8451 65.779 77.8797 65.5347 76.9397C65.5194 76.8806 65.5446 76.8187 65.5965 76.7871C65.6492 76.7556 65.7154 76.7626 65.76 76.8036C66.2226 77.2293 66.6333 77.666 66.9478 78.0664C66.9947 78.1261 66.9844 78.2123 66.9248 78.2592C66.8652 78.3065 66.7789 78.2959 66.7324 78.2361C66.5057 77.9476 66.2274 77.6392 65.9143 77.3298C66.1056 78.1349 66.2541 78.9551 66.3561 79.7742C66.3656 79.8494 66.3122 79.9183 66.2369 79.9275C66.2314 79.9289 66.2259 79.9293 66.2201 79.9293Z" fill="#BF8419"/>
<path d="M82.2232 76.6468C82.1794 76.6468 82.1362 76.6259 82.1095 76.5867C81.1656 75.1971 80.0915 73.8838 78.9172 72.6834C78.8642 72.6291 78.8649 72.5422 78.919 72.4891C78.9735 72.4359 79.0602 72.4367 79.1129 72.4909C80.2985 73.7027 81.3832 75.0288 82.3362 76.432C82.379 76.4947 82.3626 76.5801 82.3 76.623C82.2766 76.6391 82.2499 76.6468 82.2232 76.6468Z" fill="#BF8419"/>
<path d="M54.8206 67.9954C56.9677 67.5275 57.9635 64.2208 57.0298 63.5967C56.0962 62.9727 49.5748 61.2256 48.2992 61.0746H41.7402C40.6441 61.1945 33.561 62.5984 32.9697 63.5344C32.3783 64.4705 31.2336 68.8999 33.723 69.5551C35.8207 84.3224 30.2235 90.8315 34.0383 95.3918C35.756 97.445 55.5864 97.0087 56.9285 95.7049C61.2984 91.4603 55.8358 78.9412 54.8206 67.9954Z" fill="#29AEE9"/>
<path d="M58.2884 86.8428C58.2215 86.8428 58.163 86.7937 58.1527 86.7251C57.8225 84.4468 57.2735 81.947 56.6921 79.3005C55.874 75.575 55.0277 71.7227 54.6832 68.0086C54.6763 67.9331 54.7318 67.866 54.8072 67.859C54.8796 67.8528 54.9494 67.9074 54.9564 67.9833C55.2994 71.6802 56.1435 75.5241 56.9598 79.2411C57.542 81.8927 58.092 84.3976 58.4237 86.6859C58.4347 86.761 58.3827 86.8307 58.3078 86.8417C58.3016 86.8424 58.295 86.8428 58.2884 86.8428Z" fill="#BF8419"/>
<path d="M35.2274 95.0327C35.1788 95.0327 35.1316 95.0067 35.1067 94.9609C34.3958 93.6442 34.0666 92.0064 34.1284 90.094C34.1727 88.7301 34.4027 87.3651 34.6251 86.0448C34.6741 85.7537 34.7231 85.4626 34.7702 85.1711C35.5979 80.0633 35.8502 74.8555 35.5211 69.6917C35.5159 69.6162 35.5737 69.5505 35.6491 69.5458C35.7259 69.5403 35.7899 69.5986 35.7946 69.6741C36.1252 74.8585 35.8718 80.0872 35.0409 85.2151C34.9937 85.5069 34.9443 85.7988 34.8953 86.0903C34.6744 87.4017 34.4459 88.7576 34.4023 90.1025C34.342 91.9661 34.6602 93.5566 35.3473 94.8296C35.3835 94.8967 35.3587 94.9799 35.2921 95.0162C35.2716 95.0272 35.2493 95.0327 35.2274 95.0327Z" fill="#BF8419"/>
<path d="M41.4575 87.8975C41.4158 87.8975 41.3744 87.8784 41.3477 87.8425C41.3024 87.782 41.3145 87.6958 41.3752 87.6503C46.8758 83.5153 50.8032 77.2677 52.1498 70.509C52.1648 70.4342 52.2379 70.3854 52.3111 70.4012C52.3853 70.4162 52.4336 70.4884 52.4186 70.5628C51.0589 77.3872 47.0934 83.6957 41.5394 87.8707C41.5149 87.8883 41.486 87.8975 41.4575 87.8975Z" fill="#BF8419"/>
<path d="M46.5464 91.4273C46.5058 91.4273 46.4656 91.4093 46.4385 91.3748C46.3917 91.3151 46.402 91.2289 46.4616 91.1816C49.079 89.1148 51.1262 86.3877 52.3821 83.2944C52.4106 83.224 52.4907 83.1899 52.5609 83.2188C52.6308 83.2474 52.6648 83.3277 52.6363 83.3981C51.3625 86.5351 49.286 89.3015 46.6313 91.3976C46.6057 91.4174 46.576 91.4273 46.5464 91.4273Z" fill="#BF8419"/>
<path d="M25.7133 92.2904L21.7633 92.587C21.681 95.3776 22.5496 101.036 22.7397 101.561C22.9299 102.086 23.4298 101.909 23.4075 101.433C23.3852 100.958 23.2649 98.3338 23.2649 98.3338C23.2649 98.3338 24.045 101.753 24.1913 102.22C24.3375 102.688 24.8982 102.854 24.892 102.119C24.8857 101.383 24.3946 98.3177 24.3946 98.3177C24.3946 98.3177 25.3385 102.19 25.4851 102.519C25.6318 102.848 26.1661 102.966 26.1566 102.311C26.1471 101.656 25.5554 98.061 25.5554 98.061C25.5554 98.061 26.5786 101.295 26.7198 101.643C26.861 101.99 27.3744 102.041 27.3122 101.289C27.2501 100.537 26.0977 93.4996 25.7133 92.2904Z" fill="#E7A282"/>
<path d="M25.7124 92.2904C26.4464 92.7989 28.181 94.4961 28.4457 95.0439C28.7109 95.5913 29.1779 97.9309 28.7325 98.0636C28.2867 98.1963 27.673 97.1781 27.6196 96.3268C26.8885 96.2524 25.8298 95.9173 25.2209 95.2269C24.6116 94.5365 25.7124 92.2904 25.7124 92.2904Z" fill="#E7A282"/>
<path d="M23.7486 98.4951C23.3134 98.4951 22.8972 98.4416 22.526 98.3312C22.4532 98.3096 22.4119 98.233 22.4335 98.1604C22.455 98.0878 22.5304 98.0452 22.6039 98.0676C23.6356 98.3745 25.0424 98.2142 26.1875 97.6599C26.2562 97.6269 26.3382 97.6559 26.3707 97.7241C26.4036 97.7922 26.3751 97.8747 26.3067 97.9077C25.5124 98.292 24.5948 98.4951 23.7486 98.4951Z" fill="#F3AB89"/>
<path d="M26.4705 96.2271C26.4003 96.2271 26.3407 96.1735 26.3341 96.1017C26.2438 95.0894 26.0887 94.0723 25.8733 93.0787C25.8572 93.0043 25.904 92.9313 25.9782 92.9152C26.0525 92.8998 26.1253 92.9463 26.1414 93.02C26.3597 94.025 26.5162 95.0538 26.6076 96.0775C26.6146 96.153 26.5586 96.2201 26.4833 96.2263C26.4785 96.2271 26.4745 96.2271 26.4705 96.2271Z" fill="#F3AB89"/>
<path d="M25.5918 76.9625C27.6182 76.5236 41.3196 70.2577 40.5124 67.1141C39.7053 63.9705 35.5859 62.7935 33.4798 63.1477C31.3737 63.5019 18.7515 69.9915 17.6342 73.615C16.517 77.2386 20.5961 91.2096 21.1385 92.3763C21.5576 93.2779 25.9381 92.8353 26.1751 92.179C26.6498 90.8639 26.6333 79.6192 25.5918 76.9625Z" fill="#29AEE9"/>
<path d="M34.0916 73.2048C34.0436 73.2048 33.9968 73.1795 33.9716 73.1348C33.9347 73.0684 33.9581 72.9848 34.0243 72.9474C36.0456 71.8108 37.6254 70.7564 38.7193 69.8137C38.7763 69.7642 38.8634 69.7705 38.9127 69.8284C38.9621 69.886 38.9555 69.9729 38.8981 70.0223C37.79 70.9775 36.1955 72.0422 34.1585 73.1876C34.1373 73.199 34.1142 73.2048 34.0916 73.2048Z" fill="#BF8419"/>
<path d="M25.619 77.1132C25.5996 77.1132 25.5803 77.1092 25.5616 77.1004C24.9896 76.8364 24.3972 76.6582 23.8007 76.5713C23.7257 76.5603 23.6738 76.4906 23.6848 76.4155C23.6957 76.3403 23.766 76.2901 23.8402 76.2993C24.3313 76.3708 24.8199 76.5016 25.2968 76.689C24.9033 76.0899 24.316 75.6254 23.6387 75.387C23.567 75.3617 23.5297 75.2833 23.5546 75.2118C23.5798 75.1403 23.6573 75.1022 23.7294 75.1275C24.5998 75.4336 25.333 76.0855 25.7415 76.9152C25.7671 76.9676 25.7573 77.0303 25.7167 77.0721C25.6907 77.0989 25.6552 77.1132 25.619 77.1132Z" fill="#BF8419"/>
<path d="M22.7632 91.513C22.283 91.513 21.8032 91.4803 21.3292 91.414C21.2543 91.4037 21.202 91.334 21.2122 91.2589C21.2228 91.1837 21.2923 91.1295 21.3669 91.1419C22.8239 91.3443 24.3383 91.2251 25.7456 90.7965C25.8176 90.7727 25.8948 90.8156 25.9167 90.8878C25.9387 90.9604 25.8977 91.0374 25.8253 91.0594C24.8379 91.3604 23.7993 91.513 22.7632 91.513Z" fill="#BF8419"/>
<path d="M48.4464 58.0592C47.5179 58.0651 46.6193 57.8396 45.8261 57.4121C45.0351 56.9886 44.3497 56.3833 43.8355 55.6221L43.0068 54.3957V47.0346C43.0068 45.4983 44.266 44.262 45.7965 44.2957L48.3111 44.3536C49.7974 44.3855 50.4253 45.7099 50.9812 47.0903C51.6548 48.7563 51.1128 49.8112 51.1684 51.6007C51.1743 51.8064 51.1882 52.0202 51.2123 52.242C51.2222 52.33 51.2343 52.4198 51.2463 52.5119C51.2522 52.5559 51.2602 52.6017 51.2664 52.6475C51.2785 52.7293 51.2942 52.8132 51.3103 52.899C51.3242 52.979 51.3381 53.0549 51.3484 53.1308C51.3542 53.1627 51.3604 53.1927 51.3645 53.2246C51.3904 53.4065 51.4124 53.5803 51.4263 53.75C51.4423 53.9117 51.45 54.0716 51.454 54.2234C51.5367 57.1705 49.6818 58.0533 48.4464 58.0592Z" fill="#F3AB89"/>
<path d="M48.2973 61.075C48.2973 61.075 47.4225 62.6732 45.0886 62.6732C42.857 62.6732 41.7383 61.075 41.7383 61.075L43.0066 54.3955L47.7981 57.4603L47.8914 58.033L48.0677 59.229L48.2973 61.075Z" fill="#F3AB89"/>
<path d="M48.0663 59.2288C47.1608 59.0377 46.3098 58.6157 45.5945 58.0141C44.8908 57.4241 44.3313 56.6608 43.9795 55.8168C44.4699 56.4877 45.1044 57.0256 45.8252 57.4128C46.4598 57.7541 47.1575 57.9679 47.8901 58.0317L48.0663 59.2288Z" fill="#2C2F37"/>
<path d="M44.1441 52.9004C44.1441 53.9127 43.3256 54.7332 42.3159 54.7332C41.3058 54.7332 40.4873 53.9127 40.4873 52.9004C40.4873 51.8881 41.3058 51.0675 42.3159 51.0675C43.3256 51.0671 44.1441 51.8881 44.1441 52.9004Z" fill="#F3AB89"/>
<path d="M43.367 54.0181C43.2953 54.0181 43.235 53.962 43.2302 53.8894C43.201 53.4281 42.9676 52.9816 42.606 52.6948C42.2443 52.4085 41.7571 52.2835 41.3029 52.3619C41.2283 52.3737 41.1574 52.3245 41.1446 52.2497C41.1318 52.1749 41.1819 52.1038 41.2565 52.091C41.7868 52 42.3543 52.1449 42.776 52.4793C43.1977 52.8136 43.4698 53.3343 43.5038 53.8718C43.5085 53.9477 43.4515 54.0129 43.3758 54.0177C43.3729 54.0181 43.3699 54.0181 43.367 54.0181Z" fill="#DC9A7C"/>
<path d="M41.5268 53.7583C41.5137 53.7583 41.5005 53.7564 41.4873 53.7524C41.4149 53.7304 41.3736 53.6538 41.3955 53.5812C41.5714 52.9927 42.0703 52.5494 42.666 52.4512C42.7425 52.4394 42.8116 52.4897 42.8236 52.5648C42.8361 52.6396 42.7852 52.7104 42.7103 52.7228C42.2173 52.8039 41.8044 53.172 41.6585 53.6604C41.6402 53.7198 41.5857 53.7583 41.5268 53.7583Z" fill="#DC9A7C"/>
<path d="M48.1279 53.0768C48.0757 53.0768 48.0255 53.0464 48.0029 52.9954C47.9722 52.9261 48.0029 52.8447 48.072 52.8136C48.2135 52.7501 48.3598 52.6841 48.4593 52.5789C48.5339 52.5001 48.5928 52.367 48.5463 52.2614C48.5218 52.2057 48.4673 52.1551 48.4095 52.1019C48.3872 52.081 48.3646 52.0598 48.3426 52.0381C48.1492 51.8442 48.016 51.5673 47.9572 51.2377C47.9067 50.9543 47.914 50.6691 47.921 50.393C47.9228 50.3171 47.9722 50.2603 48.0618 50.2592C48.1375 50.261 48.1974 50.3244 48.1952 50.4003C48.1883 50.6625 48.1817 50.9334 48.2271 51.1893C48.2611 51.3804 48.3426 51.6487 48.5368 51.8438L48.5957 51.8995C48.6677 51.9663 48.7497 52.0421 48.7972 52.1499C48.8948 52.3718 48.7976 52.62 48.6582 52.7677C48.5218 52.9126 48.3423 52.9929 48.1843 53.0644C48.166 53.0728 48.147 53.0768 48.1279 53.0768Z" fill="#2C2F37"/>
<path d="M48.9077 49.0521C48.8975 49.1536 48.9198 49.2585 48.9699 49.3472C49.02 49.4359 49.0964 49.506 49.1886 49.5496C49.3853 49.4187 49.5909 49.2838 49.8253 49.253C50.0396 49.2244 50.2586 49.2874 50.4477 49.3923C50.6372 49.4972 50.8134 49.6402 50.9718 49.7876C51.0321 49.7835 51.0848 49.7285 51.0866 49.668C50.9049 49.2981 50.5435 48.982 50.1321 48.8629C49.7203 48.7441 49.2712 48.8255 48.9077 49.0521Z" fill="#2C2F37"/>
<path d="M49.1011 51.2015C49.0839 51.2015 49.0663 51.1982 49.0495 51.1916C48.9793 51.163 48.9457 51.0827 48.9738 51.0123C49.1278 50.6328 49.454 50.4238 49.8925 50.4238C50.3079 50.4238 50.6663 50.6391 50.8514 50.9995C50.8861 51.0673 50.8594 51.1502 50.7921 51.1846C50.7245 51.2198 50.6418 51.1927 50.6075 51.1252C50.4703 50.8579 50.203 50.6984 49.8925 50.6984C49.5685 50.6984 49.3388 50.8425 49.2283 51.1153C49.2064 51.1692 49.1548 51.2015 49.1011 51.2015Z" fill="#2C2F37"/>
<path d="M49.5615 51.0417C49.5615 51.3068 49.718 51.5216 49.9115 51.5216C50.105 51.5216 50.2615 51.3068 50.2615 51.0417C50.2615 50.7766 50.105 50.5618 49.9115 50.5618C49.718 50.5614 49.5615 50.7766 49.5615 51.0417Z" fill="#2C2F37"/>
<path d="M47.2655 49.0521C47.2757 49.1536 47.2538 49.2585 47.2033 49.3472C47.1532 49.4359 47.0768 49.506 46.9846 49.5496C46.7878 49.4187 46.5823 49.2838 46.3479 49.253C46.1336 49.2244 45.9145 49.2874 45.7254 49.3923C45.536 49.4972 45.3597 49.6402 45.2014 49.7876C45.141 49.7835 45.0884 49.7285 45.0869 49.668C45.2687 49.2981 45.63 48.982 46.0411 48.8629C46.4528 48.7441 46.9019 48.8255 47.2655 49.0521Z" fill="#2C2F37"/>
<path d="M47.0701 51.2014C47.0159 51.2014 46.9647 51.1691 46.9428 51.1156C46.8324 50.8428 46.6027 50.6987 46.2787 50.6987C45.9682 50.6987 45.7008 50.8582 45.5637 51.1255C45.529 51.1929 45.4467 51.2197 45.379 51.1849C45.3117 51.15 45.2854 51.0672 45.3198 50.9997C45.5048 50.6393 45.8632 50.4241 46.2787 50.4241C46.7172 50.4241 47.0434 50.6331 47.1973 51.0125C47.2259 51.0829 47.1919 51.1632 47.122 51.1918C47.1048 51.1984 47.0876 51.2014 47.0701 51.2014Z" fill="#2C2F37"/>
<path d="M45.9092 51.0417C45.9092 51.3068 46.0657 51.5216 46.2592 51.5216C46.4526 51.5216 46.6092 51.3068 46.6092 51.0417C46.6092 50.7766 46.4526 50.5618 46.2592 50.5618C46.0661 50.5614 45.9092 50.7766 45.9092 51.0417Z" fill="#2C2F37"/>
<path d="M46.6195 52.9006C46.6195 53.0737 46.1982 53.2138 45.6789 53.2138C45.1592 53.2138 44.7383 53.0733 44.7383 52.9006C44.7383 52.7276 45.1596 52.5875 45.6789 52.5875C46.1982 52.5872 46.6195 52.7276 46.6195 52.9006Z" fill="#782110"/>
<path d="M51.3486 53.1321C51.1811 53.1842 50.9598 53.2139 50.717 53.2139C50.1969 53.2139 49.7764 53.0742 49.7764 52.9004C49.7764 52.7284 50.1969 52.5887 50.717 52.5887C50.9221 52.5887 51.1116 52.6107 51.267 52.6485C51.2791 52.7303 51.2948 52.8142 51.3109 52.9C51.3248 52.9803 51.3387 53.0562 51.3486 53.1321Z" fill="#782110"/>
<path d="M48.0481 55.9944C47.9958 55.9944 47.9457 55.9644 47.923 55.9134C47.8923 55.8441 47.923 55.7627 47.9918 55.7316C48.3765 55.5581 48.8377 55.5556 49.225 55.7253C49.2941 55.7558 49.3259 55.8368 49.2956 55.9064C49.2652 55.9757 49.184 56.0073 49.1149 55.9772C48.7978 55.8379 48.4197 55.8397 48.1041 55.9823C48.0862 55.9904 48.0671 55.9944 48.0481 55.9944Z" fill="#DC9A7C"/>
<path d="M46.8086 54.3222C47.897 54.1018 49.0259 54.0857 50.1198 54.2742C49.6732 54.6969 49.0892 54.9851 48.4748 54.9873C47.8607 54.9895 47.2581 54.7416 46.8086 54.3222Z" fill="white"/>
<path d="M55.3207 45.5729C55.1891 46.4235 54.7429 47.2191 54.0883 47.7728C53.43 48.3227 52.5742 48.6307 51.7148 48.6124C50.3141 48.5867 48.9939 47.7434 47.5969 47.8498C47.0886 47.8864 46.6022 48.0478 46.0975 48.1138C45.5928 48.1798 45.0479 48.2017 44.6602 47.8718C44.2141 48.1798 44.1629 48.8287 44.2799 49.3603C44.3969 49.892 44.6346 50.409 44.6017 50.9516C44.5725 51.4062 44.3311 51.8389 43.9764 52.1212C43.6838 51.4979 43.0511 51.0689 42.3197 51.0689C41.9979 51.0689 41.7016 51.1496 41.4383 51.2926C40.8349 50.2806 40.2827 49.2174 40.1949 48.0514C40.1583 47.5528 40.2205 47.0212 40.535 46.6362C40.8971 46.1925 41.5883 45.9579 42.0966 46.2219C41.57 45.4482 41.7309 44.286 42.444 43.6847C43.0657 43.164 43.9471 43.0907 44.7517 43.1934C45.4392 43.285 46.1085 43.483 46.796 43.5674C47.4835 43.6517 48.2186 43.604 48.8074 43.2374C49.2865 42.9404 49.6193 42.4601 50.0399 42.0824C50.5007 41.6681 51.0712 41.3748 51.6782 41.2428C51.9672 41.1805 52.2963 41.1622 52.5304 41.3455C52.7827 41.5435 52.8302 41.9211 52.7205 42.2254C52.6108 42.5261 52.3731 42.7607 52.1244 42.9661C51.8794 43.1677 51.6526 43.3767 51.4552 43.626C51.9818 43.1677 52.651 42.8671 53.3422 42.7827C53.6129 42.7497 53.931 42.7681 54.0956 42.9881C54.2419 43.186 54.198 43.4647 54.1175 43.6994C53.9091 44.3226 53.5105 44.9569 52.9802 45.3419C53.5068 45.0413 54.1175 44.8799 54.7246 44.8836C54.9148 44.8836 55.1233 44.9093 55.2439 45.0596C55.3573 45.1989 55.35 45.3969 55.3207 45.5729Z" fill="#2C2F37"/>
</svg>
