<svg width="240" height="204" viewBox="0 0 240 204" fill="none" xmlns="http://www.w3.org/2000/svg">
<path d="M222.407 194.649H13.437L13.2676 194.447C13.1717 194.333 3.77769 182.895 13.2353 169.287C22.6651 155.721 24.5086 150.32 19.5149 138.183C18.6451 136.071 17.5401 133.785 16.371 131.365C10.4879 119.188 3.16625 104.033 16.5964 92.3578C17.6661 91.4276 18.7081 90.5256 19.7252 89.6462C33.434 77.7828 42.4911 69.9465 45.958 55.9588C47.3779 50.2324 50.4744 42.0375 57.1666 35.5177C63.474 29.3732 71.3816 26.2574 80.6722 26.2574C87.9036 26.2574 95.9152 28.1952 104.485 32.0178C129.79 43.3026 138.73 46.5836 149.209 46.5836C152.695 46.5836 156.408 46.2394 161.274 45.7532C163.222 45.5586 165.219 45.4599 167.207 45.4599C179.948 45.4599 191 49.3662 197.53 56.1776C202.702 61.5714 205.138 68.6663 204.768 77.2649C204.547 82.4387 204.195 86.8237 203.884 90.6925C202.623 106.407 202.152 112.287 213.892 122.418C230.913 137.107 242.131 163.726 222.575 194.388L222.407 194.649ZM13.9761 193.518H221.786C240.723 163.575 229.765 137.612 213.152 123.275C200.976 112.769 201.496 106.279 202.754 90.6019C203.064 86.7429 203.415 82.3694 203.636 77.2152C203.992 68.9383 201.662 62.1229 196.712 56.9601C190.393 50.3704 179.64 46.5917 167.207 46.5917C165.256 46.5917 163.297 46.6887 161.386 46.8798C156.488 47.3689 152.748 47.7154 149.209 47.7154C138.52 47.7154 129.499 44.4124 104.023 33.0515C95.5991 29.2947 87.7429 27.3897 80.6722 27.3897C74.4636 27.3897 53.691 29.4696 47.0577 56.2308C43.5041 70.5667 34.3396 78.4977 20.4673 90.502C19.4513 91.3802 18.4093 92.2828 17.3402 93.2124C4.56307 104.32 11.6766 119.043 17.3922 130.873C18.5694 133.309 19.6813 135.61 20.5632 137.754C26.0153 151.005 23.3043 156.787 14.1669 169.933C5.87147 181.868 12.8134 191.979 13.9761 193.518Z" fill="#12203F"/>
<path d="M17.7887 194.084C17.7887 194.084 8.82467 183.442 17.7887 170.543C26.7539 157.645 28.9055 152.308 23.8851 140.109C18.8648 127.907 5.78541 109.814 20.9308 96.6464C36.0768 83.4787 45.7216 75.9686 49.344 61.3555C54.0737 42.2754 71.1453 23.6451 104.889 38.693C138.633 53.7415 141.86 53.7409 159.789 51.9497C177.719 50.1585 202.103 56.62 201.027 81.6938C199.951 106.768 195.648 113.185 209.992 125.563C224.335 137.94 237.962 163.163 218.239 194.084H17.7887Z" fill="#12203F"/>
<path d="M96.1796 84.0041C96.1796 84.0041 87.5461 137.261 120.528 137.261C153.51 137.261 145.798 81.9299 145.798 81.9299L97.1927 84.0046" fill="#814C4A"/>
<g opacity="0.2">
<path d="M99.3546 91.507C99.3546 91.507 99.35 92.0862 99.3413 93.0996C99.3269 94.1107 99.3667 95.556 99.4211 97.2837C99.4818 99.0119 99.5962 101.024 99.7898 103.168C99.8788 104.241 100.021 105.345 100.156 106.466C100.306 107.584 100.471 108.718 100.689 109.842C100.881 110.97 101.126 112.088 101.393 113.181C101.522 113.728 101.684 114.262 101.817 114.796C101.965 115.328 102.131 115.845 102.283 116.358C102.459 116.864 102.631 117.36 102.8 117.847C102.987 118.325 103.161 118.799 103.348 119.252C103.547 119.701 103.741 120.136 103.928 120.559C104.132 120.972 104.33 121.373 104.519 121.756C104.94 122.502 105.317 123.194 105.706 123.776C106.063 124.38 106.46 124.846 106.748 125.26C107.38 126.043 107.754 126.492 107.754 126.492C107.754 126.492 107.647 126.394 107.445 126.212C107.249 126.025 106.934 125.773 106.581 125.406C106.248 125.023 105.792 124.593 105.364 124.023C105.148 123.742 104.893 123.456 104.666 123.127C104.441 122.795 104.204 122.446 103.957 122.081C103.732 121.706 103.497 121.311 103.254 120.903C103.025 120.488 102.811 120.048 102.578 119.6C102.359 119.146 102.153 118.671 101.932 118.19C101.726 117.702 101.541 117.194 101.341 116.683C100.98 115.645 100.616 114.569 100.334 113.45C100.048 112.334 99.7823 111.195 99.576 110.045C99.3662 108.894 99.2107 107.737 99.0709 106.597C98.9391 105.457 98.8582 104.329 98.7975 103.24C98.7299 102.15 98.716 101.094 98.712 100.094C98.705 99.0951 98.7339 98.151 98.7727 97.2796C98.8472 95.5375 99.0108 94.0928 99.1217 93.084C99.2454 92.0775 99.3546 91.507 99.3546 91.507Z" fill="#B76A6A"/>
<path d="M103.425 91.507C103.425 91.507 103.46 92.0457 103.521 92.9875C103.555 93.4569 103.595 94.028 103.642 94.6823C103.694 95.3348 103.753 96.0716 103.817 96.8748C103.893 97.6768 103.975 98.5459 104.062 99.4634C104.154 100.382 104.258 101.346 104.379 102.344C104.48 103.344 104.643 104.368 104.78 105.412C104.901 106.459 105.111 107.509 105.274 108.565C105.451 109.62 105.665 110.666 105.859 111.699C106.112 112.72 106.302 113.738 106.551 114.708C106.83 115.667 107.044 116.613 107.315 117.489C107.597 118.363 107.864 119.189 108.111 119.951C108.4 120.699 108.666 121.385 108.901 121.993C108.959 122.147 109.016 122.294 109.07 122.436C109.136 122.575 109.199 122.706 109.259 122.834C109.379 123.09 109.49 123.325 109.589 123.537C109.982 124.397 110.206 124.888 110.206 124.888C110.206 124.888 109.91 124.437 109.392 123.646C109.264 123.446 109.122 123.225 108.967 122.984C108.891 122.863 108.811 122.737 108.728 122.607C108.658 122.469 108.584 122.327 108.509 122.18C108.208 121.594 107.867 120.928 107.507 120.196C107.182 119.449 106.857 118.628 106.513 117.759C106.183 116.884 105.899 115.941 105.588 114.97C105.307 113.992 105.048 112.971 104.79 111.934C104.58 110.887 104.347 109.825 104.157 108.758C104.005 107.684 103.805 106.617 103.696 105.556C103.561 104.499 103.461 103.453 103.388 102.441C103.293 101.431 103.258 100.45 103.219 99.5206C103.168 98.5926 103.181 97.7126 103.168 96.9025C103.17 93.6579 103.425 91.507 103.425 91.507Z" fill="#B76A6A"/>
<path d="M109.642 92.9684C109.642 92.9684 109.757 94.9721 109.928 97.977C110.015 99.4749 110.116 101.223 110.224 103.095C110.286 104.029 110.351 104.994 110.416 105.976C110.484 106.956 110.558 107.95 110.651 108.945C110.729 109.939 110.82 110.931 110.928 111.906C111.039 112.879 111.136 113.84 111.263 114.764C111.391 115.687 111.52 116.578 111.659 117.423C111.809 118.262 111.96 119.054 112.116 119.785C112.286 120.51 112.45 121.171 112.618 121.755C112.8 122.331 112.949 122.841 113.115 123.243C113.264 123.654 113.404 123.968 113.504 124.181C113.601 124.396 113.653 124.51 113.653 124.51C113.653 124.51 113.582 124.406 113.45 124.211C113.317 124.015 113.113 123.731 112.911 123.337C112.685 122.954 112.458 122.467 112.209 121.899C112.093 121.613 111.971 121.308 111.842 120.987C111.729 120.659 111.611 120.314 111.488 119.954C111.378 119.59 111.263 119.212 111.145 118.819C111.043 118.423 110.939 118.012 110.831 117.591C110.633 116.744 110.435 115.849 110.277 114.915C110.12 113.982 109.953 113.017 109.841 112.031C109.72 111.045 109.613 110.042 109.523 109.039C109.442 108.035 109.381 107.029 109.326 106.04C109.27 105.051 109.253 104.076 109.23 103.134C109.196 101.248 109.222 99.4882 109.281 97.9817C109.389 94.9686 109.642 92.9684 109.642 92.9684Z" fill="#B76A6A"/>
<path d="M141.699 91.507C141.699 91.507 141.703 92.0861 141.712 93.0995C141.726 94.1106 141.686 95.5559 141.632 97.2836C141.571 99.0118 141.457 101.024 141.263 103.168C141.174 104.241 141.032 105.345 140.898 106.466C140.747 107.584 140.582 108.718 140.363 109.842C140.171 110.97 139.926 112.088 139.659 113.181C139.53 113.728 139.369 114.262 139.236 114.796C139.087 115.328 138.921 115.845 138.768 116.358C138.593 116.864 138.421 117.36 138.252 117.847C138.065 118.325 137.892 118.799 137.705 119.252C137.505 119.701 137.311 120.136 137.124 120.559C136.92 120.972 136.723 121.373 136.534 121.756C136.113 122.502 135.736 123.194 135.347 123.776C134.99 124.38 134.593 124.846 134.305 125.26C133.673 126.043 133.299 126.492 133.299 126.492C133.299 126.492 133.407 126.394 133.609 126.212C133.804 126.025 134.119 125.773 134.471 125.406C134.805 125.023 135.26 124.593 135.688 124.023C135.905 123.742 136.16 123.456 136.386 123.127C136.612 122.795 136.848 122.446 137.096 122.081C137.321 121.706 137.556 121.311 137.799 120.903C138.028 120.488 138.243 120.048 138.475 119.6C138.694 119.146 138.899 118.671 139.12 118.19C139.325 117.702 139.511 117.194 139.712 116.683C140.072 115.645 140.438 114.568 140.718 113.45C141.005 112.334 141.269 111.195 141.477 110.045C141.686 108.894 141.842 107.737 141.981 106.597C142.114 105.457 142.194 104.329 142.256 103.24C142.324 102.15 142.337 101.094 142.34 100.094C142.348 99.095 142.318 98.1509 142.279 97.2795C142.206 95.5374 142.041 94.0927 141.931 93.0839C141.807 92.0775 141.699 91.507 141.699 91.507Z" fill="#B76A6A"/>
<path d="M137.629 91.5069C137.629 91.5069 137.594 92.0456 137.533 92.9874C137.499 93.4569 137.459 94.028 137.413 94.6822C137.36 95.3347 137.301 96.0715 137.237 96.8747C137.161 97.6768 137.079 98.5458 136.991 99.4633C136.9 100.381 136.795 101.346 136.675 102.344C136.572 103.344 136.411 104.367 136.274 105.412C136.153 106.459 135.943 107.509 135.78 108.565C135.602 109.62 135.389 110.666 135.194 111.699C134.942 112.719 134.751 113.737 134.502 114.708C134.224 115.667 134.009 116.613 133.738 117.489C133.456 118.363 133.189 119.188 132.943 119.951C132.654 120.699 132.388 121.385 132.153 121.993C132.094 122.147 132.038 122.294 131.983 122.436C131.917 122.574 131.854 122.706 131.794 122.834C131.674 123.09 131.564 123.325 131.464 123.537C131.071 124.397 130.848 124.888 130.848 124.888C130.848 124.888 131.144 124.437 131.661 123.646C131.79 123.446 131.932 123.225 132.086 122.984C132.163 122.863 132.243 122.737 132.325 122.607C132.395 122.469 132.468 122.327 132.543 122.18C132.846 121.593 133.186 120.928 133.545 120.195C133.871 119.449 134.196 118.628 134.54 117.759C134.87 116.884 135.154 115.941 135.465 114.97C135.746 113.992 136.006 112.971 136.263 111.934C136.473 110.887 136.705 109.825 136.896 108.758C137.049 107.684 137.247 106.617 137.358 105.556C137.492 104.499 137.593 103.453 137.665 102.441C137.761 101.431 137.795 100.45 137.833 99.5205C137.884 98.5926 137.872 97.7126 137.884 96.9024C137.883 93.6578 137.629 91.5069 137.629 91.5069Z" fill="#B76A6A"/>
<path d="M131.412 92.9683C131.412 92.9683 131.296 94.972 131.125 97.977C131.038 99.4748 130.937 101.223 130.829 103.095C130.767 104.029 130.702 104.994 130.637 105.976C130.57 106.956 130.495 107.95 130.401 108.945C130.325 109.938 130.233 110.931 130.126 111.906C130.015 112.879 129.917 113.84 129.791 114.764C129.662 115.687 129.533 116.578 129.395 117.423C129.245 118.262 129.094 119.054 128.938 119.785C128.768 120.51 128.604 121.171 128.436 121.754C128.254 122.331 128.105 122.841 127.94 123.243C127.789 123.654 127.649 123.968 127.55 124.181C127.452 124.396 127.4 124.51 127.4 124.51C127.4 124.51 127.471 124.406 127.603 124.211C127.735 124.015 127.94 123.731 128.143 123.337C128.368 122.954 128.595 122.466 128.845 121.899C128.96 121.612 129.082 121.308 129.212 120.987C129.324 120.659 129.443 120.314 129.566 119.954C129.676 119.59 129.791 119.211 129.91 118.819C130.01 118.423 130.115 118.012 130.223 117.591C130.422 116.744 130.619 115.849 130.778 114.915C130.934 113.982 131.101 113.017 131.213 112.031C131.335 111.045 131.442 110.042 131.531 109.039C131.612 108.035 131.673 107.029 131.729 106.04C131.786 105.051 131.802 104.076 131.824 103.133C131.858 101.248 131.833 99.4881 131.773 97.9816C131.664 94.9686 131.412 92.9683 131.412 92.9683Z" fill="#B76A6A"/>
</g>
<path d="M126.239 102.768H120.528H114.813L109.932 122.579L120.528 137.261L131.123 121.366L126.239 102.768Z" fill="#FFAE8A"/>
<path d="M126.24 102.768H120.529H114.813L113.623 107.596C117.002 110.992 124.021 113.24 128.35 110.806L126.24 102.768Z" fill="#F79B77"/>
<path d="M100.261 83.2552C100.261 83.2552 96.8209 77.7257 94.7566 80.3542C92.6905 82.9827 96.017 89.32 100.261 88.2402V83.2552Z" fill="#FFAE8A"/>
<path d="M140.797 83.2553C140.797 83.2553 144.234 77.7258 146.296 80.3543C148.361 82.9828 145.035 89.3201 140.797 88.2403V83.2553Z" fill="#FFAE8A"/>
<path d="M120.6 53.2045C97.2072 53.2045 99.0438 83.0659 99.501 90.3438C99.9593 97.6247 104.431 100.126 110.279 104.712C116.126 109.293 120.6 108.81 120.6 108.81C120.6 108.81 125.073 109.293 130.92 104.712C136.766 100.127 141.238 97.6247 141.694 90.3438C142.156 83.0659 143.994 53.2045 120.6 53.2045Z" fill="#FFAE8A"/>
<path opacity="0.5" d="M141.798 79.6607C141.942 83.5821 141.736 86.9052 141.618 88.7605C141.162 96.0413 136.691 98.5428 130.844 103.127C124.996 107.709 120.523 107.227 120.523 107.227C120.523 107.227 116.049 107.709 110.203 103.127C104.354 98.5428 99.884 96.0413 99.4251 88.7605C99.402 88.3892 99.3742 87.9567 99.3477 87.4745C99.3945 88.6271 99.4551 89.6041 99.502 90.3444C99.9602 97.6252 104.432 100.127 110.28 104.712C116.127 109.293 120.6 108.811 120.6 108.811C120.6 108.811 125.074 109.293 130.921 104.712C136.767 100.127 141.239 97.6252 141.695 90.3444C141.828 88.2442 142.075 84.2617 141.798 79.6607Z" fill="#FFBCA1"/>
<path d="M150.156 118.287L129.032 113.405C129.032 120.015 121.587 119.995 120.987 119.875V119.866C120.987 119.866 120.979 119.867 120.965 119.87C120.953 119.867 120.944 119.866 120.944 119.866V119.875C120.343 119.995 112.193 120.015 112.193 113.405L91.7754 118.287L96.1306 138.424C96.1306 138.424 90.5219 150.698 100.294 159.377L102.088 189.308H120.944H120.987H140.46L141.635 159.377C151.406 150.698 145.799 138.424 145.799 138.424L150.156 118.287Z" fill="#29AEE9"/>
<path d="M120.937 121.913V121.902C120.937 121.902 120.947 121.904 120.965 121.908C120.981 121.904 120.992 121.902 120.992 121.902V121.913C121.745 122.065 131.032 122.087 131.145 113.893L129.032 113.404C129.032 120.014 121.587 119.995 120.986 119.874V119.866C120.986 119.866 120.978 119.867 120.965 119.869C120.952 119.867 120.943 119.866 120.943 119.866V119.874C120.342 119.995 112.193 120.014 112.193 113.404L109.896 113.953C110.071 122.086 120.185 122.065 120.937 121.913Z" fill="#F9B212"/>
<path d="M126.501 80.1922C126.501 80.1922 126.355 78.5038 126.935 78.1672C127.515 77.8282 132.659 77.6596 134.543 78.1672C136.426 78.673 137.222 81.0139 137.222 81.0139C137.222 81.0139 136.542 80.0403 133.641 79.7389C131.512 79.5189 127.224 80.53 126.501 80.1922Z" fill="#AA6868"/>
<path d="M114.7 80.1922C114.7 80.1922 114.845 78.5038 114.265 78.1672C113.687 77.8282 108.543 77.6596 106.66 78.1672C104.775 78.673 103.977 81.0139 103.977 81.0139C103.977 81.0139 104.659 80.0403 107.558 79.7389C109.689 79.5189 113.976 80.53 114.7 80.1922Z" fill="#AA6868"/>
<path d="M133.259 85.9242C133.259 87.168 132.575 88.1774 131.731 88.1774C130.887 88.1774 130.203 87.168 130.203 85.9242C130.203 84.681 130.887 83.6734 131.731 83.6734C132.576 83.6734 133.259 84.681 133.259 85.9242Z" fill="#111B24"/>
<path d="M111.322 85.9243C111.322 87.1681 110.638 88.1774 109.794 88.1774C108.951 88.1774 108.268 87.1681 108.268 85.9243C108.268 84.6811 108.951 83.6735 109.794 83.6735C110.638 83.6735 111.322 84.6811 111.322 85.9243Z" fill="#111B24"/>
<path d="M113.844 97.5135C113.844 97.5135 115.836 102.233 120.598 102.233C125.358 102.233 127.342 97.5135 127.342 97.5135C127.342 97.5135 121.78 100 113.844 97.5135Z" fill="#F4472A"/>
<path d="M113.859 97.546C113.859 97.546 117.139 100.25 120.688 100.25C124.237 100.25 127.266 97.546 127.266 97.546C127.266 97.546 121.7 100.677 113.859 97.546Z" fill="white"/>
<path d="M127.529 97.386C127.529 97.386 122.836 97.0984 121.93 97.386C121.034 97.6707 120.984 97.6955 120.688 97.6955C120.374 97.6955 120.34 97.6712 119.445 97.386C118.538 97.0984 113.844 97.386 113.844 97.386C119.367 100.14 126.512 98.4207 127.529 97.386Z" fill="#F4472A"/>
<path d="M112.74 97.025C117.426 99.4421 123.821 99.6061 128.459 97.025C128.564 96.9667 128.462 96.8321 128.354 96.8916C123.774 99.4416 117.474 99.2793 112.843 96.8916C112.734 96.8345 112.631 96.9696 112.74 97.025Z" fill="#F4472A"/>
<path d="M118.156 92.9685C118.156 92.9685 118.497 93.0845 119.008 93.2583C119.253 93.3294 119.52 93.4183 119.798 93.4783C119.935 93.5113 120.076 93.532 120.215 93.5575C120.355 93.5655 120.493 93.5996 120.631 93.5881C120.768 93.6048 120.904 93.5857 121.039 93.5771C121.176 93.5811 121.305 93.5292 121.441 93.5182C121.575 93.4968 121.701 93.4431 121.832 93.4154C121.965 93.3912 122.079 93.3247 122.199 93.2901C122.314 93.2439 122.434 93.2156 122.527 93.166C122.621 93.1198 122.713 93.0863 122.788 93.0562C122.941 92.9979 123.04 92.9679 123.04 92.9679C123.04 92.9679 123.014 93.0597 122.948 93.215C122.877 93.3646 122.788 93.6008 122.587 93.8121C122.488 93.9189 122.398 94.0598 122.253 94.1557C122.113 94.2544 121.97 94.3774 121.794 94.4577C121.613 94.527 121.432 94.6338 121.224 94.6592C121.019 94.7048 120.808 94.7314 120.596 94.7193C120.382 94.7204 120.178 94.6742 119.978 94.6274C119.785 94.5708 119.598 94.4981 119.433 94.4097C119.097 94.2354 118.836 94.0084 118.645 93.793C118.255 93.3629 118.156 92.9685 118.156 92.9685Z" fill="#F89675"/>
<g opacity="0.1">
<path d="M110.403 92.1038C110.403 94.1698 108.498 95.8449 106.148 95.8449C103.797 95.8449 101.893 94.1698 101.893 92.1038C101.893 90.0371 103.797 88.362 106.148 88.362C108.498 88.362 110.403 90.0377 110.403 92.1038Z" fill="#F4472A"/>
<path d="M139.85 92.1038C139.85 94.1698 137.944 95.8449 135.594 95.8449C133.245 95.8449 131.34 94.1698 131.34 92.1038C131.34 90.0371 133.245 88.362 135.594 88.362C137.944 88.362 139.85 90.0377 139.85 92.1038Z" fill="#F4472A"/>
</g>
<path d="M150.054 118.287C150.054 118.287 157.602 120.875 161.222 129.475C164.841 138.074 173.693 163.99 172.252 169.75C170.704 175.937 140.754 187.852 140.754 187.852L136.225 180.036C136.225 180.036 154.753 167.077 157.84 164.609L145.799 138.423L150.054 118.287Z" fill="#29AEE9"/>
<path d="M91.8481 118.287C91.8481 118.287 84.2994 120.875 80.6805 129.475C77.0604 138.074 68.2085 163.991 69.6492 169.751C71.1969 175.938 101.147 187.852 101.147 187.852L105.677 180.036C105.677 180.036 87.1491 167.077 84.0607 164.609L96.1299 138.424L91.8481 118.287Z" fill="#29AEE9"/>
<path d="M131.015 158.978C126.927 157.713 123.059 156.643 120.953 156.643C118.845 156.643 114.979 157.712 110.89 158.978C106.8 160.243 103.879 159.563 103.879 159.563C106.782 161.36 110.799 161.612 114.785 160.147C118.301 158.853 120.953 158.883 120.953 158.883C120.953 158.883 123.569 158.951 127.12 160.147C131.18 161.514 135.122 161.361 138.025 159.563C138.024 159.563 135.105 160.243 131.015 158.978Z" fill="#29AEE9"/>
<path d="M146.259 81.4507C145.387 80.6896 144.668 80.7595 144.085 81.2498C144.017 81.2838 143.962 81.3341 143.928 81.3958C142.909 82.4289 142.352 84.7461 142.175 85.8317C142.103 86.278 142.786 86.4697 142.858 86.0199C142.98 85.2733 143.415 83.0791 144.209 82.1009C144.675 82.9474 144.722 83.9585 144.193 84.8229C143.955 85.2133 144.567 85.5678 144.805 85.1792C145.472 84.0867 145.417 82.7343 144.774 81.6678C145.067 81.5668 145.394 81.6326 145.758 81.9508C146.101 82.2487 146.604 81.751 146.259 81.4507Z" fill="#F4885D"/>
<path d="M95.2093 81.4507C96.0814 80.6896 96.8014 80.7595 97.3828 81.2498C97.4522 81.2838 97.5059 81.3341 97.5406 81.3958C98.5589 82.4289 99.1166 84.7461 99.2928 85.8317C99.3657 86.278 98.6831 86.4697 98.6103 86.0199C98.4895 85.2733 98.0538 83.0791 97.2603 82.1009C96.7945 82.9474 96.7477 83.9585 97.2759 84.8229C97.5146 85.2133 96.9014 85.5678 96.6639 85.1792C95.997 84.0867 96.0525 82.7343 96.6957 81.6678C96.4021 81.5668 96.075 81.6326 95.7103 81.9508C95.3676 82.2487 94.8649 81.751 95.2093 81.4507Z" fill="#F4885D"/>
<path d="M137.275 181.847C137.275 181.847 130.767 181.749 129.729 182.692C128.691 183.635 125.576 189.388 126.048 189.954C126.52 190.52 133.882 189.198 135.768 188.445C137.656 187.691 140.155 186.817 140.155 186.817L137.275 181.847Z" fill="#FFAE8A"/>
<path d="M104.366 181.847C104.366 181.847 110.874 181.749 111.912 182.692C112.95 183.635 116.065 189.388 115.593 189.954C115.12 190.52 107.759 189.198 105.872 188.445C103.985 187.691 101.486 186.817 101.486 186.817L104.366 181.847Z" fill="#FFAE8A"/>
<path d="M99.3007 81.9295C99.3007 81.9295 110.542 76.1373 113.623 65.1037C113.623 65.1037 122.824 80.6505 141.895 81.9295C141.895 81.9295 143.727 79.3894 145.787 79.8848C145.787 79.8848 147.095 50.0165 120.528 50.0165C93.9591 50.0165 96.228 79.6556 96.228 79.6556C96.228 79.6556 97.6878 80.0742 99.3007 81.9295Z" fill="#814C4A"/>
<g opacity="0.2">
<path d="M117.084 60.2954C117.084 60.2954 117.347 60.6292 117.832 61.187C118.317 61.7448 119.014 62.5324 119.891 63.4349C120.321 63.8934 120.816 64.3628 121.325 64.8693C121.837 65.3728 122.409 65.8705 122.979 66.4046C123.579 66.9076 124.173 67.455 124.823 67.9556C125.143 68.2126 125.465 68.4707 125.789 68.73C126.116 68.9846 126.462 69.2173 126.798 69.4622C127.136 69.7047 127.46 69.9663 127.806 70.1949C128.153 70.4213 128.498 70.6465 128.842 70.8711C129.519 71.333 130.221 71.7292 130.894 72.1247C131.56 72.5364 132.241 72.8609 132.877 73.1941C133.197 73.3581 133.507 73.5186 133.808 73.6734C134.116 73.8102 134.415 73.9425 134.702 74.0689C135.28 74.3137 135.798 74.5765 136.274 74.7653C136.754 74.946 137.173 75.1043 137.517 75.2348C138.207 75.5096 138.602 75.6667 138.602 75.6667C138.602 75.6667 138.185 75.5956 137.455 75.4507C137.09 75.3745 136.646 75.2833 136.138 75.1764C135.633 75.0557 135.079 74.8663 134.467 74.6752C134.161 74.5782 133.843 74.476 133.514 74.3709C133.19 74.2491 132.865 74.103 132.525 73.9621C131.85 73.6734 131.119 73.3997 130.421 73.0012C129.714 72.6213 128.958 72.2696 128.259 71.795C127.903 71.5698 127.543 71.3423 127.181 71.1153C126.822 70.8849 126.482 70.6234 126.132 70.3768C125.79 70.1187 125.438 69.8744 125.106 69.6065C124.778 69.3345 124.45 69.0643 124.126 68.7952C123.796 68.5336 123.483 68.2571 123.187 67.9678C122.887 67.6842 122.591 67.4042 122.3 67.1293C121.733 66.5623 121.199 66.0022 120.716 65.4502C120.232 64.8993 119.785 64.3692 119.401 63.8564C119 63.3598 118.672 62.8719 118.374 62.4487C118.083 62.0196 117.842 61.6374 117.651 61.3175C117.267 60.6794 117.084 60.2954 117.084 60.2954Z" fill="#B76A6A"/>
<path d="M119.82 56.3348C119.82 56.3348 120.931 57.3326 122.627 58.7531C123.054 59.1054 123.515 59.487 124.004 59.8907C124.497 60.2862 125.017 60.7031 125.556 61.1345C126.652 61.9694 127.805 62.8789 129.014 63.7104L129.905 64.3542C130.208 64.5563 130.511 64.7584 130.811 64.9582C131.409 65.363 132 65.7557 132.585 66.1177C133.163 66.4919 133.731 66.8372 134.276 67.1571C134.818 67.4816 135.329 67.7934 135.816 68.0521C136.298 68.3235 136.742 68.5729 137.133 68.7941C137.534 69.0002 137.884 69.181 138.171 69.3294C138.745 69.6337 139.072 69.819 139.072 69.819C139.072 69.819 138.714 69.7238 138.087 69.5378C137.774 69.4414 137.395 69.3242 136.959 69.1891C136.532 69.0343 136.053 68.8472 135.533 68.637C135.273 68.5296 134.997 68.428 134.722 68.305C134.448 68.1745 134.166 68.0394 133.876 67.9008C133.295 67.6248 132.682 67.332 132.077 66.9746C131.465 66.6305 130.825 66.2857 130.214 65.8729C129.904 65.6742 129.591 65.4733 129.277 65.2718L128.356 64.6314C127.743 64.2006 127.156 63.7369 126.574 63.286C125.985 62.8425 125.456 62.3459 124.917 61.8972C123.874 60.9595 122.934 60.0512 122.181 59.2214C121.415 58.4061 120.826 57.6791 120.425 57.164C120.025 56.6472 119.82 56.3348 119.82 56.3348Z" fill="#B76A6A"/>
<path d="M121.52 53.3171C121.52 53.3171 123.001 53.3523 125.159 53.8726C125.695 54.0123 126.282 54.144 126.884 54.3524C127.187 54.45 127.498 54.5499 127.816 54.6533C128.127 54.7734 128.447 54.8964 128.771 55.0211C129.424 55.2619 130.07 55.5823 130.733 55.8918C131.38 56.2354 132.036 56.5911 132.675 56.9751L133.602 57.6016L134.063 57.914L134.497 58.2587C135.073 58.7161 135.639 59.1682 136.122 59.681C136.369 59.9304 136.618 60.1683 136.85 60.4126C137.093 60.6458 137.275 60.9294 137.482 61.1742C137.874 61.6829 138.276 62.1362 138.537 62.6363C138.828 63.1149 139.081 63.5584 139.304 63.9493C139.491 64.361 139.629 64.7318 139.75 65.0309C139.987 65.6314 140.112 65.9738 140.112 65.9738C140.112 65.9738 139.9 65.6678 139.55 65.1331C139.379 64.8663 139.17 64.5435 138.933 64.1728C138.653 63.8292 138.339 63.4429 138.011 63.0185C137.704 62.5768 137.258 62.1888 136.848 61.7337C136.446 61.2706 135.942 60.8589 135.445 60.4131C134.968 59.9443 134.385 59.5655 133.837 59.1289L133.418 58.8073L132.971 58.5174L132.076 57.9348C131.47 57.5554 130.846 57.2026 130.23 56.8614C129.593 56.5594 128.998 56.1927 128.376 55.9328C128.069 55.792 127.768 55.6522 127.473 55.5154C127.173 55.3889 126.881 55.2636 126.596 55.1423C126.026 54.8952 125.474 54.6948 124.97 54.491C123.95 54.1145 123.091 53.8108 122.481 53.6191C121.873 53.4175 121.52 53.3171 121.52 53.3171Z" fill="#B76A6A"/>
<path d="M112.271 60.2954C112.271 60.2954 112.209 60.6297 112.048 61.202C111.885 61.7725 111.632 62.5855 111.243 63.5279C110.872 64.4789 110.355 65.5524 109.747 66.6755C109.417 67.2217 109.121 67.8153 108.737 68.3668C108.37 68.9292 107.995 69.4997 107.585 70.0459C107.379 70.3179 107.178 70.5939 106.967 70.8595C106.749 71.1205 106.532 71.381 106.317 71.6397C105.902 72.1703 105.426 72.6323 104.986 73.0965C104.556 73.5712 104.085 73.9748 103.647 74.3651C103.428 74.5592 103.215 74.7485 103.009 74.9316C102.79 75.0979 102.577 75.2596 102.373 75.4155C101.966 75.7244 101.594 76.0062 101.251 76.2378C100.897 76.4549 100.589 76.6443 100.336 76.8013C99.826 77.1051 99.5312 77.2696 99.5312 77.2696C99.5312 77.2696 99.7722 77.0271 100.202 76.6206C100.417 76.4214 100.679 76.1794 100.979 75.9017C101.266 75.6124 101.59 75.285 101.944 74.9281C102.12 74.7514 102.305 74.5678 102.495 74.3773C102.676 74.178 102.864 73.9731 103.058 73.7617C103.445 73.3413 103.856 72.9031 104.253 72.4232C104.66 71.9532 105.073 71.4618 105.475 70.9467C105.679 70.6921 105.884 70.4351 106.089 70.1776L106.675 69.3755C107.084 68.853 107.46 68.3067 107.827 67.7662C108.205 67.2333 108.546 66.687 108.893 66.1696C109.215 65.6361 109.552 65.1343 109.843 64.6406C110.131 64.1463 110.417 63.6844 110.662 63.2472C111.661 61.5086 112.271 60.2954 112.271 60.2954Z" fill="#B76A6A"/>
<path d="M114.717 54.3548C114.717 54.3548 114.633 54.3756 114.481 54.4276C114.326 54.472 114.108 54.565 113.829 54.6643C113.554 54.7832 113.218 54.908 112.848 55.0922C112.472 55.2591 112.067 55.486 111.625 55.7245C111.4 55.8353 111.187 55.9924 110.956 56.1316C110.729 56.2782 110.483 56.4093 110.255 56.5854C110.023 56.7517 109.783 56.9226 109.539 57.0976C109.306 57.2858 109.067 57.4787 108.825 57.6739C108.323 58.0434 107.895 58.5314 107.408 58.9633C106.953 59.4304 106.51 59.9259 106.081 60.43C105.686 60.9629 105.24 61.4595 104.887 62.0127C104.55 62.5734 104.143 63.0827 103.844 63.6341C103.548 64.1862 103.243 64.7134 102.955 65.2157C102.707 65.7389 102.473 66.2349 102.256 66.6916C102.145 66.9197 102.039 67.1397 101.938 67.3482C101.842 67.5601 101.767 67.7668 101.687 67.958C101.529 68.3419 101.39 68.6774 101.276 68.9523C101.041 69.5049 100.895 69.8196 100.895 69.8196C100.895 69.8196 100.948 69.4818 101.06 68.8899C101.12 68.5937 101.193 68.2351 101.276 67.8223C101.323 67.6173 101.363 67.395 101.422 67.1657C101.494 66.9417 101.57 66.7049 101.649 66.4584C101.811 65.9652 101.979 65.4259 102.187 64.8658C102.431 64.3219 102.687 63.7433 102.97 63.1543C103.098 62.8523 103.285 62.574 103.451 62.2812C103.621 61.989 103.797 61.6963 103.979 61.4041C104.34 60.8163 104.798 60.2787 105.21 59.7105C105.674 59.1833 106.154 58.6665 106.647 58.1809C107.167 57.7235 107.667 57.2581 108.216 56.8892C108.486 56.7009 108.74 56.4982 109.011 56.3337C109.285 56.1754 109.553 56.0195 109.815 55.8688C110.337 55.5686 110.864 55.3428 111.346 55.1413C111.835 54.9496 112.287 54.7919 112.7 54.6886C113.105 54.5615 113.475 54.5107 113.77 54.4489C114.371 54.3542 114.717 54.3548 114.717 54.3548Z" fill="#B76A6A"/>
</g>
<path d="M97.9829 75.7652L94.5859 75.7502C94.5871 75.4713 95.0119 47.8475 120.99 47.8475C146.895 47.8475 147.195 75.4794 147.195 75.7583H143.797C143.795 74.7594 143.48 51.2428 120.99 51.2428C111.507 51.2428 104.765 55.3253 100.953 63.3782C98.0442 69.5186 97.9835 75.704 97.9829 75.7652Z" fill="#FF75A8"/>
<path opacity="0.5" d="M97.9843 75.7654C97.9848 75.7042 98.0455 69.5187 100.954 63.3777C104.767 55.3248 111.509 51.2424 120.992 51.2424C143.481 51.2424 143.796 74.7595 143.798 75.7579H145.582C145.42 72.2234 143.493 50.0159 120.986 50.0159C98.3986 50.0159 96.3794 72.2477 96.2031 75.7579L97.9843 75.7654Z" fill="#29AEE9"/>
<path d="M143.37 89.0935C140.267 91.7456 137.163 94.3984 134.06 97.0511C133.307 97.6943 134.26 98.9052 135.017 98.2585C138.119 95.6063 141.222 92.953 144.326 90.3003C145.079 89.6576 144.127 88.4456 143.37 89.0935Z" fill="#FF75A8"/>
<path d="M137.613 95.2615C138.184 95.9804 138.065 97.0262 137.345 97.5978L134.752 99.6581C134.033 100.229 132.986 100.109 132.414 99.3913C131.842 98.6724 131.962 97.6267 132.681 97.055L135.275 94.9947C135.993 94.4237 137.041 94.5432 137.613 95.2615Z" fill="#29AEE9"/>
<path opacity="0.5" d="M137.612 95.2616C137.222 94.7714 136.611 94.5681 136.033 94.6646C136.124 94.7396 136.209 94.8222 136.284 94.9169C136.856 95.6358 136.737 96.6815 136.017 97.2532L133.424 99.3135C133.196 99.4948 132.934 99.5981 132.666 99.6443C133.258 100.128 134.128 100.154 134.752 99.6588L137.345 97.5985C138.064 97.0263 138.184 95.9805 137.612 95.2616Z" fill="#0952AA"/>
<path d="M97.5628 73.9694H96.2838V74.6271C94.9778 76.0072 94.0508 79.4267 94.0508 83.4387C94.0508 87.4496 94.9778 90.8703 96.2838 92.2504V92.9069H97.5628C99.5023 92.9069 101.075 88.6674 101.075 83.4387C101.074 78.2089 99.5023 73.9694 97.5628 73.9694Z" fill="#29AEE9"/>
<path d="M96.2848 73.9695C95.9698 73.9695 95.6658 74.0919 95.3751 74.3021C94.0523 74.9996 91.7539 77.1194 91.7539 83.4388C91.7539 89.1236 93.6136 91.3369 94.9503 92.1956C95.3618 92.6517 95.812 92.9064 96.2848 92.9064C98.2248 92.9064 99.7967 88.6669 99.7967 83.4382C99.7967 78.209 98.2242 73.9695 96.2848 73.9695Z" fill="#FF75A8"/>
<path opacity="0.2" d="M97.294 74.3712C98.1846 76.0891 98.766 78.8931 98.766 82.069C98.766 87.2982 97.1935 91.5377 95.254 91.5377C94.7813 91.5377 94.3316 91.2819 93.9202 90.8263C93.6763 90.6698 93.4151 90.4671 93.1504 90.2073C93.7243 91.2195 94.3837 91.8316 94.9506 92.1954C95.3621 92.6516 95.8123 92.9062 96.285 92.9062C98.2251 92.9062 99.797 88.6667 99.797 83.4381C99.797 79.1547 98.7417 75.5399 97.294 74.3712Z" fill="#814C4A"/>
<path opacity="0.2" d="M95.0561 76.5135C95.0561 76.5135 95.0168 76.6856 94.948 76.9858C94.885 77.2844 94.7989 77.6966 94.7094 78.1834C94.6701 78.43 94.6157 78.6852 94.5759 78.9635C94.5285 79.2372 94.484 79.5248 94.4435 79.8233C94.3921 80.1172 94.3684 80.4308 94.3198 80.7386C94.2846 81.051 94.2499 81.368 94.2147 81.6861C94.1858 82.0066 94.1569 82.3259 94.128 82.6412C94.1135 82.9588 94.0765 83.2712 94.0563 83.5772C94.0419 83.8827 94.0199 84.1806 93.9945 84.4665C93.9771 84.7546 93.9598 85.0272 93.9448 85.2783C93.8916 85.7899 93.88 86.2213 93.8413 86.5319C93.8101 86.8426 93.7778 87.0268 93.7778 87.0268C93.7778 87.0268 93.7003 86.8738 93.5905 86.5931C93.4847 86.3114 93.3206 85.906 93.2079 85.3898C93.149 85.1328 93.0831 84.8516 93.034 84.549C92.9924 84.2459 92.9536 83.9231 92.9224 83.5865C92.897 83.2504 92.893 82.8976 92.8907 82.5407C92.8895 82.1839 92.9271 81.8218 92.9484 81.4586C92.9953 81.0995 93.0409 80.7386 93.1091 80.3909C93.1865 80.0451 93.2553 79.7038 93.3617 79.3885C93.4547 79.0681 93.5662 78.7707 93.6841 78.4958C93.7951 78.2198 93.9292 77.9755 94.0471 77.7527C94.3002 77.315 94.551 76.9951 94.7394 76.7947C94.9307 76.5961 95.0561 76.5135 95.0561 76.5135Z" fill="white"/>
<path d="M143.709 73.9694H144.988V74.6271C146.295 76.0071 147.221 79.4267 147.221 83.4387C147.221 87.4495 146.294 90.8702 144.988 92.2503V92.9068H143.709C141.769 92.9068 140.197 88.6673 140.197 83.4387C140.197 78.2089 141.769 73.9694 143.709 73.9694Z" fill="#29AEE9"/>
<path d="M144.987 73.9694C145.302 73.9694 145.605 74.0918 145.896 74.302C147.218 74.9995 149.517 77.1193 149.517 83.4387C149.517 89.1235 147.657 91.3368 146.321 92.1954C145.91 92.6516 145.459 92.9063 144.987 92.9063C143.047 92.9063 141.475 88.6668 141.475 83.4381C141.475 78.2089 143.047 73.9694 144.987 73.9694Z" fill="#FF75A8"/>
<path opacity="0.2" d="M143.979 74.3713C143.088 76.0892 142.507 78.8932 142.507 82.0691C142.507 87.2983 144.079 91.5378 146.018 91.5378C146.491 91.5378 146.941 91.282 147.353 90.8264C147.597 90.67 147.858 90.4673 148.122 90.2074C147.549 91.2197 146.889 91.8317 146.323 92.1955C145.911 92.6517 145.461 92.9064 144.989 92.9064C143.049 92.9064 141.477 88.6668 141.477 83.4382C141.477 79.1548 142.531 75.5401 143.979 74.3713Z" fill="#814C4A"/>
<path opacity="0.2" d="M146.215 76.5136C146.215 76.5136 146.254 76.6857 146.324 76.9859C146.386 77.2845 146.473 77.6968 146.56 78.1835C146.6 78.4301 146.655 78.6853 146.695 78.9637C146.742 79.2374 146.786 79.5249 146.827 79.8235C146.878 80.1174 146.902 80.4309 146.951 80.7387C146.985 81.0511 147.021 81.3681 147.055 81.6863C147.085 82.0067 147.114 82.326 147.142 82.6413C147.156 82.9589 147.193 83.2713 147.214 83.5773C147.228 83.8828 147.25 84.1808 147.276 84.4666C147.293 84.7547 147.311 85.0273 147.327 85.2785C147.379 85.7901 147.39 86.2214 147.43 86.5321C147.461 86.8427 147.493 87.0269 147.493 87.0269C147.493 87.0269 147.57 86.8739 147.679 86.5933C147.786 86.3115 147.95 85.9061 148.063 85.3899C148.121 85.1329 148.187 84.8517 148.237 84.5492C148.277 84.246 148.317 83.9232 148.348 83.5866C148.373 83.2505 148.378 82.8977 148.38 82.5409C148.381 82.184 148.344 81.8219 148.321 81.4587C148.275 81.0996 148.229 80.7387 148.162 80.3911C148.084 80.0452 148.016 79.7039 147.909 79.3886C147.816 79.0682 147.704 78.7708 147.587 78.4959C147.476 78.2199 147.342 77.9757 147.223 77.7528C146.97 77.3151 146.719 76.9952 146.531 76.7948C146.341 76.5962 146.215 76.5136 146.215 76.5136Z" fill="white"/>
<path d="M222.022 194.084H19.8789V204H222.022V194.084Z" fill="#29AEE9"/>
<path d="M231.227 196.781C231.227 198.264 229.953 199.478 228.396 199.478H13.507C11.9501 199.478 10.6758 198.264 10.6758 196.781C10.6758 195.297 11.9501 194.084 13.507 194.084H228.396C229.953 194.084 231.227 195.297 231.227 196.781Z" fill="#29AEE9"/>
<path d="M170.97 191.697C170.97 193.015 169.899 194.084 168.58 194.084H73.3207C72.0014 194.084 70.9316 193.015 70.9316 191.697C70.9316 190.378 72.0014 189.308 73.3207 189.308H168.58C169.9 189.308 170.97 190.378 170.97 191.697Z" fill="#184A7C"/>
<path d="M163.419 185.564C163.419 188.054 161.381 190.091 158.889 190.091H83.0107C80.5188 190.091 78.4805 188.054 78.4805 185.564V144.03C78.4805 141.541 80.5188 139.504 83.0107 139.504H158.889C161.38 139.504 163.419 141.54 163.419 144.03V185.564Z" fill="#37474F"/>
<path d="M124.299 164.446C124.299 166.295 122.798 167.794 120.949 167.794C119.097 167.794 117.598 166.295 117.598 164.446C117.598 162.598 119.098 161.098 120.949 161.098C122.799 161.098 124.299 162.597 124.299 164.446Z" fill="#FF75A8"/>
<path opacity="0.6" d="M158.888 139.504H142.546C141.59 170.238 99.7263 184.712 81.0684 189.644C81.6584 189.927 82.3155 190.091 83.0102 190.091H158.888C161.379 190.091 163.418 188.054 163.418 185.564V144.03C163.418 141.541 161.379 139.504 158.888 139.504Z" fill="#114068"/>
<path d="M58.3567 45.0821H32.9978C29.9244 45.0821 27.4336 47.5714 27.4336 50.6422V68.5848C27.4336 71.655 29.9244 74.1443 32.9978 74.1443H45.3767L52.4654 79.3314V74.1443H58.3567C61.4294 74.1443 63.9214 71.655 63.9214 68.5848V50.6422C63.9208 47.5714 61.4294 45.0821 58.3567 45.0821Z" fill="#29AEE9"/>
<path d="M46.5913 52.1672C46.5913 52.6367 46.211 53.0166 45.7412 53.0166H32.7577C32.2879 53.0166 31.9082 52.6367 31.9082 52.1672C31.9082 51.6978 32.2885 51.3178 32.7577 51.3178H45.7418C46.211 51.3178 46.5913 51.6978 46.5913 52.1672Z" fill="#A9D0FF"/>
<path d="M60.5023 56.7999C60.5023 57.2694 60.122 57.6493 59.6522 57.6493H32.7577C32.2879 57.6493 31.9082 57.2694 31.9082 56.7999C31.9082 56.3304 32.2885 55.9505 32.7577 55.9505H59.6527C60.122 55.9505 60.5023 56.331 60.5023 56.7999Z" fill="#A9D0FF"/>
<path d="M60.5023 61.4333C60.5023 61.9027 60.122 62.2821 59.6522 62.2821H32.7577C32.2879 62.2821 31.9082 61.9021 31.9082 61.4333C31.9082 60.9638 32.2885 60.5839 32.7577 60.5839H59.6527C60.122 60.5839 60.5023 60.9638 60.5023 61.4333Z" fill="#A9D0FF"/>
<path d="M55.8657 66.0666C55.8657 66.536 55.4848 66.916 55.0156 66.916H32.7577C32.2879 66.916 31.9082 66.536 31.9082 66.0666C31.9082 65.5971 32.2885 65.2172 32.7577 65.2172H55.0156C55.4848 65.2172 55.8657 65.5971 55.8657 66.0666Z" fill="#A9D0FF"/>
<path opacity="0.1" d="M58.356 45.082H57.9006C58.1335 60.0797 46.4041 69.299 37.4297 74.1442H45.3754L52.4641 78.7654V74.1442H58.3554C61.4282 74.1442 63.9202 71.6549 63.9202 68.5847V50.6421C63.9202 47.5713 61.4288 45.082 58.356 45.082Z" fill="#114068"/>
<path d="M52.9948 116.456H28.0664V131.966H52.9948V116.456Z" fill="#29AEE9"/>
<path d="M28.0664 116.456H52.9953L40.5314 127.3L28.0664 116.456Z" fill="#29AEE9"/>
<mask id="mask0_138_7974" style="mask-type:luminance" maskUnits="userSpaceOnUse" x="28" y="116" width="25" height="16">
<path d="M52.9948 116.456H28.0664V131.966H52.9948V116.456Z" fill="white"/>
</mask>
<g mask="url(#mask0_138_7974)">
<path d="M28.4816 132.468C31.2955 128.727 34.1105 124.986 36.9244 121.245C37.4312 120.572 36.6077 119.565 36.0979 120.242C33.2835 123.984 30.469 127.724 27.6552 131.464C27.1478 132.138 27.9719 133.144 28.4816 132.468Z" fill="#29AEE9"/>
<path d="M53.2181 131.464C50.4025 127.724 47.5886 123.983 44.7753 120.242C44.2656 119.564 43.4403 120.571 43.9483 121.244C46.7633 124.985 49.5778 128.726 52.3916 132.467C52.9008 133.146 53.7255 132.138 53.2181 131.464Z" fill="#29AEE9"/>
</g>
<path opacity="0.1" d="M36.7578 131.966H52.9943V116.457H45.6317C47.0632 124.175 42.0255 129.048 36.7578 131.966Z" fill="#114068"/>
<path d="M188.226 90.7817H165.845C164.361 90.7817 163.158 91.9845 163.158 93.4679V102.133C163.158 103.617 164.361 104.82 165.845 104.82H176.891L180.314 108.964V104.82H188.226C189.711 104.82 190.914 103.617 190.914 102.133V93.4679C190.914 91.9839 189.711 90.7817 188.226 90.7817Z" fill="#29AEE9"/>
<path d="M171.479 97.5487C171.479 98.3964 170.792 99.0841 169.943 99.0841C169.094 99.0841 168.406 98.3964 168.406 97.5487C168.406 96.7005 169.094 96.0128 169.943 96.0128C170.792 96.0128 171.479 96.7005 171.479 97.5487Z" fill="white"/>
<path d="M178.573 97.5489C178.573 98.3965 177.885 99.0842 177.037 99.0842C176.187 99.0842 175.5 98.3965 175.5 97.5489C175.5 96.7006 176.187 96.0129 177.037 96.0129C177.884 96.0129 178.573 96.7006 178.573 97.5489Z" fill="white"/>
<path d="M185.667 97.5487C185.667 98.3964 184.979 99.0841 184.13 99.0841C183.281 99.0841 182.594 98.3964 182.594 97.5487C182.594 96.7005 183.281 96.0128 184.13 96.0128C184.979 96.0128 185.667 96.7005 185.667 97.5487Z" fill="white"/>
<path opacity="0.1" d="M188.226 90.7817H184.939C185.426 98.6799 177.663 102.774 171.07 104.82H176.89L180.314 108.965V104.82H188.226C189.711 104.82 190.914 103.617 190.914 102.133V93.468C190.914 91.9839 189.711 90.7817 188.226 90.7817Z" fill="#114068"/>
<path d="M186.065 44.7738C185.522 44.5042 184.452 44.7421 183.464 45.0718C183.169 44.0566 182.767 43.0871 182.266 42.1788C183.194 41.7128 184.116 41.1273 184.321 40.558C184.81 39.1872 182.216 36.5956 182.216 36.5956C182.216 36.5956 179.644 34.0249 178.25 34.4938C177.676 34.6861 177.089 35.6094 176.623 36.5396C175.714 36.0396 174.743 35.6371 173.727 35.3432C174.054 34.3575 174.293 33.2916 174.033 32.7453C173.409 31.4299 169.741 31.4299 169.741 31.4299C169.741 31.4299 166.102 31.4299 165.449 32.7453C165.18 33.2875 165.418 34.3564 165.748 35.3432C164.731 35.6377 163.761 36.0396 162.852 36.5402C162.386 35.6134 161.8 34.6918 161.23 34.4886C159.857 33.9989 157.264 36.5904 157.264 36.5904C157.264 36.5904 154.692 39.1612 155.161 40.5534C155.353 41.1273 156.277 41.714 157.208 42.1794C156.708 43.0877 156.305 44.0572 156.011 45.0729C155.025 44.7461 153.957 44.5088 153.41 44.7675C152.094 45.3905 152.094 49.0555 152.094 49.0555C152.094 49.0555 152.094 52.691 153.41 53.3441C153.953 53.6137 155.023 53.3753 156.011 53.0455C156.306 54.0612 156.708 55.0308 157.208 55.9385C156.281 56.4045 155.358 56.99 155.155 57.5599C154.665 58.9307 157.259 61.5222 157.259 61.5222C157.259 61.5222 159.831 64.093 161.225 63.6241C161.799 63.4307 162.386 62.5073 162.852 61.5771C163.761 62.0772 164.731 62.4796 165.748 62.7735C165.421 63.7592 165.182 64.8252 165.442 65.372C166.065 66.688 169.734 66.688 169.734 66.688C169.734 66.688 173.373 66.688 174.026 65.372C174.296 64.8292 174.057 63.7615 173.727 62.7735C174.744 62.4791 175.714 62.0772 176.623 61.5771C177.089 62.5039 177.674 63.4249 178.245 63.6287C179.618 64.1184 182.211 61.5263 182.211 61.5263C182.211 61.5263 184.783 58.9556 184.314 57.5639C184.122 56.99 183.197 56.4039 182.266 55.9379C182.767 55.0296 183.169 54.0607 183.464 53.045C184.45 53.3718 185.518 53.6085 186.064 53.351C187.38 52.7274 187.38 49.063 187.38 49.063C187.38 49.063 187.381 45.4263 186.065 44.7738ZM169.738 55.6711C166.083 55.6711 163.12 52.7106 163.12 49.0584C163.12 45.4061 166.083 42.4456 169.738 42.4456C173.394 42.4456 176.356 45.4061 176.356 49.0584C176.356 52.7112 173.395 55.6711 169.738 55.6711Z" fill="#29AEE9"/>
<g opacity="0.5">
<path d="M169.738 59.1959C164.143 59.1959 159.592 54.6486 159.592 49.0585C159.592 43.4689 164.143 38.9211 169.738 38.9211C175.332 38.9211 179.884 43.4689 179.884 49.0585C179.884 54.6486 175.332 59.1959 169.738 59.1959ZM169.738 40.9357C165.255 40.9357 161.608 44.5799 161.608 49.0591C161.608 53.5382 165.255 57.1824 169.738 57.1824C174.22 57.1824 177.867 53.5382 177.867 49.0591C177.867 44.5799 174.22 40.9357 169.738 40.9357Z" fill="#29AEE9"/>
</g>
<path opacity="0.1" d="M161.226 63.6243C161.8 63.4309 162.387 62.5075 162.853 61.5773C163.762 62.0774 164.732 62.4798 165.748 62.7737C165.422 63.7594 165.183 64.8254 165.443 65.3722C166.066 66.6882 169.735 66.6882 169.735 66.6882C169.735 66.6882 173.373 66.6882 174.027 65.3722C174.296 64.8294 174.058 63.7617 173.728 62.7737C174.745 62.4793 175.715 62.0774 176.624 61.5773C177.09 62.5041 177.675 63.4251 178.246 63.6289C179.618 64.1186 182.212 61.5265 182.212 61.5265C182.212 61.5265 184.784 58.9558 184.315 57.5641C184.123 56.9902 183.198 56.4041 182.266 55.9381C182.767 55.0298 183.17 54.0609 183.464 53.0452C184.451 53.372 185.519 53.6087 186.065 53.3512C187.381 52.7276 187.381 49.0632 187.381 49.0632C187.381 49.0632 187.381 45.4271 186.065 44.7746C185.522 44.5049 184.453 44.7428 183.464 45.0725C183.169 44.0574 182.767 43.0879 182.266 42.1796C183.195 41.7136 184.116 41.1281 184.321 40.5588C184.81 39.1879 182.217 36.5964 182.217 36.5964C182.217 36.5964 181.943 36.325 181.53 35.9751C180.398 40.1136 178.415 43.7 175.95 46.7962C176.209 47.503 176.357 48.2629 176.357 49.0591C176.357 52.7114 173.395 55.6719 169.739 55.6719C168.74 55.6719 167.795 55.4438 166.945 55.0483C163.418 57.485 159.772 59.3548 156.562 60.7464C156.949 61.2083 157.261 61.5224 157.261 61.5224C157.261 61.5224 159.832 64.0926 161.226 63.6243Z" fill="#114068"/>
<path d="M70.2339 24.0885C69.9582 23.9528 69.4179 24.0729 68.9174 24.2397C68.7683 23.7258 68.5643 23.235 68.3112 22.7754C68.7816 22.5398 69.248 22.243 69.3503 21.9548C69.5988 21.2608 68.2858 19.9483 68.2858 19.9483C68.2858 19.9483 66.9831 18.6467 66.2775 18.8841C65.9868 18.9822 65.6898 19.4494 65.454 19.9205C64.994 19.6676 64.5027 19.4638 63.9878 19.3148C64.1531 18.8159 64.2733 18.276 64.1421 17.9994C63.8266 17.3331 61.9697 17.3331 61.9697 17.3331C61.9697 17.3331 60.1273 17.3331 59.7962 17.9994C59.6604 18.2743 59.7806 18.8153 59.9476 19.3148C59.4327 19.4644 58.9414 19.6676 58.4814 19.9211C58.2456 19.4517 57.9492 18.9851 57.6608 18.8817C56.9656 18.634 55.6525 19.946 55.6525 19.946C55.6525 19.946 54.3505 21.2475 54.588 21.952C54.6851 22.2424 55.1538 22.5398 55.6248 22.7754C55.3711 23.235 55.1677 23.7258 55.0186 24.2397C54.5187 24.074 53.9783 23.9545 53.7015 24.085C53.0352 24.4003 53.0352 26.2561 53.0352 26.2561C53.0352 26.2561 53.0352 28.097 53.7015 28.4279C53.9766 28.5636 54.5175 28.4434 55.0186 28.2766C55.1677 28.7905 55.3711 29.2813 55.6248 29.7415C55.1549 29.9771 54.688 30.2739 54.5851 30.562C54.3372 31.2561 55.6502 32.568 55.6502 32.568C55.6502 32.568 56.9528 33.8696 57.6585 33.6323C57.9492 33.5341 58.2474 33.0669 58.4826 32.5958C58.9426 32.8487 59.4338 33.0525 59.9482 33.2015C59.7829 33.701 59.6627 34.2403 59.7933 34.5169C60.1088 35.1827 61.9663 35.1827 61.9663 35.1827C61.9663 35.1827 63.8086 35.1827 64.1386 34.5169C64.2756 34.242 64.1548 33.701 63.9878 33.2015C64.5027 33.0525 64.994 32.8487 65.454 32.5958C65.6903 33.0652 65.9862 33.5318 66.2752 33.6346C66.9704 33.8823 68.2829 32.5704 68.2829 32.5704C68.2829 32.5704 69.5861 31.2688 69.3485 30.5638C69.2509 30.2733 68.7828 29.976 68.3118 29.7409C68.5655 29.2813 68.7695 28.7899 68.918 28.276C69.4173 28.4411 69.9577 28.5618 70.2345 28.4307C70.9008 28.1155 70.9008 26.2596 70.9008 26.2596C70.9008 26.2596 70.9002 24.4199 70.2339 24.0885ZM61.9674 29.6058C60.1169 29.6058 58.6161 28.1074 58.6161 26.2579C58.6161 24.4089 60.1169 22.9099 61.9674 22.9099C63.8185 22.9099 65.3176 24.4089 65.3176 26.2579C65.3176 28.1074 63.8185 29.6058 61.9674 29.6058Z" fill="#29AEE9"/>
<g opacity="0.5">
<path d="M61.9685 31.3904C59.1368 31.3904 56.832 29.0882 56.832 26.2582C56.832 23.4288 59.1368 21.126 61.9685 21.126C64.8009 21.126 67.105 23.4282 67.105 26.2582C67.105 29.0882 64.8009 31.3904 61.9685 31.3904ZM61.9685 22.1451C59.6985 22.1451 57.8526 23.99 57.8526 26.2576C57.8526 28.5252 59.6985 30.3707 61.9685 30.3707C64.2374 30.3707 66.085 28.5252 66.085 26.2576C66.085 23.99 64.238 22.1451 61.9685 22.1451Z" fill="#29AEE9"/>
</g>
<path opacity="0.1" d="M57.6569 33.6327C57.9476 33.5346 58.2458 33.0674 58.481 32.5962C58.941 32.8491 59.4323 33.053 59.9466 33.202C59.7813 33.7014 59.6611 34.2408 59.7917 34.5173C60.1073 35.1831 61.9647 35.1831 61.9647 35.1831C61.9647 35.1831 63.8071 35.1831 64.1371 34.5173C64.274 34.2425 64.1532 33.7014 63.9862 33.202C64.5011 33.053 64.9924 32.8491 65.4524 32.5962C65.6888 33.0657 65.9847 33.5322 66.2736 33.635C66.9688 33.8827 68.2813 32.5708 68.2813 32.5708C68.2813 32.5708 69.5845 31.2693 69.347 30.5642C69.2493 30.2738 68.7812 29.9764 68.3102 29.7414C68.5639 29.2818 68.7679 28.7904 68.9164 28.2765C69.4157 28.4416 69.9561 28.5623 70.2329 28.4312C70.8992 28.1159 70.8992 26.2601 70.8992 26.2601C70.8992 26.2601 70.8992 24.4192 70.2329 24.0883C69.9572 23.9526 69.4169 24.0727 68.9164 24.2396C68.7673 23.7257 68.5633 23.2349 68.3102 22.7753C68.7806 22.5397 69.247 22.2429 69.3493 21.9547C69.5978 21.2607 68.2848 19.9481 68.2848 19.9481C68.2848 19.9481 68.2247 19.8893 68.1281 19.8009C67.2925 21.6418 66.2043 23.288 64.9577 24.7558C65.1865 25.208 65.3177 25.7179 65.3177 26.2589C65.3177 28.1084 63.8186 29.6069 61.9676 29.6069C61.3267 29.6069 60.7297 29.4238 60.2211 29.112C58.5816 30.3119 56.8871 31.3143 55.2695 32.1435C55.4776 32.3964 55.6498 32.5691 55.6498 32.5691C55.6498 32.5691 56.9513 33.87 57.6569 33.6327Z" fill="#114068"/>
<path d="M57.286 87.3483H77.0761C78.3885 87.3483 79.4525 88.4125 79.4525 89.7232V97.3858C79.4525 98.6977 78.3885 99.7602 77.0761 99.7602H67.3099L64.2822 103.424V99.7602H57.2865C55.9741 99.7602 54.9102 98.6977 54.9102 97.3858V89.7232C54.9096 88.4125 55.9735 87.3483 57.286 87.3483Z" fill="#29AEE9"/>
<path d="M66.8198 91.0277C66.0928 90.6068 65.0201 91.0462 64.1544 92.0151C63.2899 91.0468 62.2167 90.6068 61.4897 91.0277C60.5719 91.5607 60.5592 93.2508 61.4613 94.803C62.1855 96.0502 63.2766 96.8136 64.1544 96.7963C65.0334 96.8136 66.1234 96.0502 66.8481 94.803C67.7508 93.2508 67.7381 91.5607 66.8198 91.0277Z" fill="white"/>
<path d="M72.857 100.691V93.2273L70.6095 94.1587V93.023L73.8305 91.8211H74.0348V100.691H72.857Z" fill="white"/>
<path opacity="0.1" d="M79.4518 89.724C79.4518 88.4126 78.3879 87.349 77.0754 87.349H73.011C73.3144 94.2972 66.8279 97.9224 61.125 99.7615H64.2816V103.425L67.3093 99.7615H77.0754C78.3879 99.7615 79.4518 98.699 79.4518 97.3871V89.724Z" fill="#114068"/>
<path d="M78.6498 29.5982H98.4394C99.7518 29.5982 100.816 30.6613 100.816 31.9726V39.6357C100.816 40.9471 99.7518 42.0101 98.4394 42.0101H88.6738L85.6461 45.6745V42.0101H78.6504C77.3374 42.0101 76.2734 40.9465 76.2734 39.6357V31.9726C76.2723 30.6613 77.3368 29.5982 78.6498 29.5982Z" fill="#29AEE9"/>
<path d="M94.2203 42.7126V35.2489L91.9728 36.1804V35.0446L95.1938 33.8427H95.3981V42.7126H94.2203Z" fill="white"/>
<path d="M87.6736 33.7691H83.6426C83.1537 33.7691 82.7578 34.1652 82.7578 34.6531V37.5057C82.7578 37.9942 83.1543 38.3897 83.6426 38.3897H85.6104L86.7373 39.7536V38.3897H87.6736C88.1625 38.3897 88.5583 37.9942 88.5583 37.5057V34.6531C88.5589 34.1652 88.163 33.7691 87.6736 33.7691Z" fill="white"/>
<path opacity="0.1" d="M100.817 31.9726C100.817 30.6613 99.7526 29.5982 98.4401 29.5982H94.3762C94.6785 36.5465 88.1931 40.1716 82.4902 42.0101H85.6468V45.6745L88.6745 42.0101H98.4401C99.7526 42.0101 100.817 40.9465 100.817 39.6357V31.9726Z" fill="#114068"/>
<path d="M224.706 71.1965C224.907 63.1583 218.548 56.4791 210.503 56.2781C202.458 56.0771 195.772 62.4304 195.571 70.4686C195.37 78.5068 201.729 85.186 209.774 85.387C217.819 85.588 224.504 79.2347 224.706 71.1965Z" fill="#29AEE9"/>
<path d="M217.39 64.6119C214.679 67.0538 211.968 69.4964 209.255 71.9389C207.529 71.0745 205.801 70.2107 204.076 69.3457C203.021 68.8179 202.092 70.3989 203.15 70.9278C205.08 71.8945 207.011 72.8611 208.942 73.8265C209.329 74.02 209.729 73.9749 210.052 73.6833C212.93 71.0924 215.809 68.4997 218.686 65.9076C219.567 65.1154 218.266 63.8237 217.39 64.6119Z" fill="white"/>
<path d="M210.139 59.4813C210.557 59.4813 210.896 59.1429 210.896 58.7254C210.896 58.308 210.557 57.9695 210.139 57.9695C209.721 57.9695 209.383 58.308 209.383 58.7254C209.383 59.1429 209.721 59.4813 210.139 59.4813Z" fill="#29AEE9"/>
<path d="M210.896 83.1098C210.896 83.5273 210.557 83.8656 210.139 83.8656C209.721 83.8656 209.383 83.5273 209.383 83.1098C209.383 82.6923 209.721 82.3545 210.139 82.3545C210.557 82.3551 210.896 82.6929 210.896 83.1098Z" fill="#29AEE9"/>
<path d="M222.342 71.6738C221.924 71.6738 221.586 71.3348 221.586 70.9173C221.586 70.5004 221.924 70.162 222.342 70.162C222.761 70.162 223.098 70.5004 223.098 70.9173C223.098 71.3348 222.761 71.6738 222.342 71.6738Z" fill="#29AEE9"/>
<path d="M197.936 71.6738C197.517 71.6738 197.18 71.3348 197.18 70.9173C197.18 70.5004 197.517 70.162 197.936 70.162C198.353 70.162 198.691 70.5004 198.691 70.9173C198.691 71.3348 198.353 71.6738 197.936 71.6738Z" fill="#29AEE9"/>
<path d="M216.957 60.7748C216.746 61.1352 216.282 61.2558 215.922 61.0445C215.56 60.8349 215.44 60.3718 215.651 60.0115C215.862 59.6511 216.324 59.531 216.686 59.7407C217.046 59.9514 217.167 60.4151 216.957 60.7748Z" fill="#29AEE9"/>
<path d="M204.634 81.8246C204.422 82.1849 203.96 82.3056 203.599 82.0948C203.239 81.8835 203.117 81.4209 203.328 81.0612C203.538 80.7003 204.002 80.5796 204.363 80.791C204.725 81.0006 204.845 81.4637 204.634 81.8246Z" fill="#29AEE9"/>
<path d="M220.292 77.7254C219.932 77.5147 219.811 77.0522 220.022 76.6918C220.233 76.3315 220.695 76.2108 221.056 76.421C221.418 76.6318 221.538 77.0949 221.327 77.4546C221.117 77.8149 220.654 77.9368 220.292 77.7254Z" fill="#29AEE9"/>
<path d="M199.227 65.4151C198.866 65.2038 198.744 64.7413 198.955 64.3815C199.166 64.0212 199.629 63.9 199.989 64.1101C200.35 64.3209 200.472 64.784 200.261 65.1437C200.05 65.5041 199.586 65.6259 199.227 65.4151Z" fill="#29AEE9"/>
<path d="M203.328 60.7748C203.539 61.1352 204.003 61.2558 204.363 61.0445C204.724 60.8349 204.845 60.3718 204.635 60.0115C204.423 59.6511 203.96 59.531 203.599 59.7407C203.239 59.9514 203.117 60.4151 203.328 60.7748Z" fill="#29AEE9"/>
<path d="M215.651 81.8246C215.862 82.1849 216.324 82.3056 216.686 82.0948C217.046 81.8835 217.167 81.4209 216.957 81.0612C216.746 80.7003 216.282 80.5796 215.921 80.791C215.56 81.0006 215.44 81.4637 215.651 81.8246Z" fill="#29AEE9"/>
<path d="M199.991 77.7254C200.351 77.5147 200.472 77.0522 200.261 76.6918C200.05 76.3315 199.587 76.2108 199.227 76.421C198.866 76.6318 198.744 77.0949 198.955 77.4546C199.166 77.8149 199.629 77.9368 199.991 77.7254Z" fill="#29AEE9"/>
<path d="M221.057 65.4151C221.417 65.2038 221.537 64.7413 221.328 64.3815C221.117 64.0212 220.653 63.9 220.293 64.1101C219.932 64.3209 219.811 64.784 220.021 65.1437C220.232 65.5041 220.695 65.6259 221.057 65.4151Z" fill="#29AEE9"/>
<path d="M114.774 26.9543V26.0937L117.931 22.7875C118.343 22.3602 118.656 21.9803 118.869 21.6479C119.087 21.3115 119.196 20.9475 119.196 20.5557C119.196 20.164 119.059 19.8237 118.786 19.5348C118.513 19.2459 118.135 19.1015 117.652 19.1015C117.162 19.1015 116.75 19.2578 116.418 19.5704C116.089 19.8791 115.925 20.3064 115.925 20.8525V20.9119H114.774V20.8525C114.774 20.0611 115.049 19.4101 115.599 18.8997C116.149 18.3892 116.833 18.134 117.652 18.134C118.46 18.134 119.111 18.3694 119.605 18.8403C120.1 19.3112 120.347 19.8632 120.347 20.4964C120.347 21.0583 120.187 21.5687 119.866 22.0278C119.55 22.4868 119.158 22.9537 118.691 23.4286L116.228 25.9572H120.585V26.9543H114.774ZM125.428 26.9543V24.592V24.2833V20.1105H125.357L122.686 23.9687H125.725H126.188H127.749V24.9303H121.356V24.1468L125.47 18.312H126.526V26.9543H125.428ZM113.551 41.6963L117.213 32.312H118.276L114.613 41.6963H113.551ZM119.439 40.9543L122.799 33.2974H118.133V32.312H124.01V32.965L120.632 40.9543H119.439Z" fill="#B6CDEF"/>
<path d="M134.983 20.4424C134.859 26.1214 131.341 30.9487 125.948 32.7665C120.555 34.5866 114.617 32.2763 111.387 27.755C108.079 23.1257 108.546 16.7404 111.971 12.3444C115.705 7.55233 122.412 6.34665 127.792 8.86541C126.371 9.37182 124.95 9.8788 123.53 10.3852C122.873 10.6196 123.156 11.6717 123.82 11.435C125.562 10.8137 127.304 10.1912 129.047 9.57045C129.331 9.46882 129.502 9.20552 129.427 8.90179C128.978 7.09558 128.528 5.28937 128.08 3.48316C127.911 2.80237 126.861 3.09166 127.031 3.77303C127.362 5.10979 127.694 6.44654 128.027 7.7833C122.126 5.17735 115.408 6.61515 111.202 11.5765C107.199 16.297 107.129 23.229 110.446 28.3053C113.829 33.4814 120.425 35.5041 126.238 33.8163C132.133 32.1053 135.942 26.4222 136.072 20.4435C136.087 19.7396 134.998 19.7419 134.983 20.4424Z" fill="#B6CDEF"/>
<path d="M199.77 155.757C196.917 153.34 192.689 159.897 191.84 163.266C191.386 160.585 190.776 157.882 189.99 155.23C191.585 155.311 197.264 148.682 194.248 147.041C191.815 145.716 189.723 150.9 189.494 153.636C188.772 151.423 187.922 149.257 186.933 147.181C189.082 146.591 194.08 135.969 189.553 134.898C186.116 134.085 185.114 140.653 185.556 144.517C184.525 142.681 183.37 140.942 182.083 139.335C183.813 137.994 186.159 128.817 182.275 128.601C179.252 128.432 179.373 134.083 180.317 137.316C179.568 136.525 178.782 135.774 177.953 135.072C178.665 132.831 169.024 122.612 165.96 127.093C163.044 131.361 174.723 136.329 177.426 135.517C178.452 136.379 179.411 137.318 180.313 138.318C177.396 137.075 171.253 136.374 171.235 139.483C171.214 143.27 180.351 141.506 181.66 139.905C183.044 141.654 184.266 143.564 185.346 145.583C182.277 143.57 175.405 141.515 174.752 145.058C173.972 149.288 184.319 149.222 186.435 147.748C187.256 149.499 187.971 151.318 188.6 153.171C186.566 151.274 182.841 149.234 181.81 151.379C180.486 154.127 187.299 156.038 189.364 155.59C189.997 157.754 190.511 159.949 190.92 162.133C188.825 159.158 184.58 155.535 182.684 158.013C180.192 161.268 188.933 165.674 191.456 165.401C191.854 168.219 192.084 170.983 192.164 173.594C192.178 174.049 192.886 174.051 192.872 173.594C192.789 170.885 192.547 168.026 192.129 165.115C194.133 165.663 203.202 158.665 199.77 155.757Z" fill="#B6CDEF"/>
<path d="M217.403 131.97C218.336 130.464 219.324 128.974 220.366 127.527C223.026 127.916 233.621 120.341 229.784 116.781C225.865 113.147 218.885 124.82 219.808 127.115C219.09 128.12 218.403 129.147 217.735 130.181C218.275 126.975 217.92 122.417 215.252 122.699C211.519 123.094 214.194 131.8 215.933 133.062C215.521 133.746 215.117 134.429 214.721 135.113C213.881 136.557 213.091 138.028 212.333 139.514C212.783 135.949 211.885 129.719 208.662 130.475C204.396 131.474 209.226 141.639 211.162 141.895C209.912 144.524 208.786 147.206 207.78 149.934C207.837 145.534 205.729 137.746 201.836 139.214C196.737 141.135 204.421 152.952 206.776 152.785C205.873 155.477 205.084 158.207 204.405 160.966C203.803 158.011 201.744 153.786 199.469 155.063C196.47 156.748 201.843 163.087 203.798 163.574C202.64 168.844 201.869 174.202 201.486 179.582C201.454 180.033 202.152 180.153 202.185 179.698C202.569 174.288 203.351 168.929 204.52 163.666C206.36 164.454 214.815 162.142 213.217 158.933C211.894 156.279 206.919 159.474 204.962 161.759C205.671 158.826 206.506 155.924 207.466 153.066C210.315 154.494 222.759 152.956 221.16 147.975C219.822 143.811 211.898 147.311 208.471 150.217C209.47 147.516 210.583 144.858 211.815 142.244C214.119 143.638 224.009 143.659 223.26 139.543C222.631 136.098 216.044 137.99 212.938 139.939C213.617 138.593 214.316 137.258 215.06 135.939C215.536 135.094 216.034 134.245 216.54 133.396C217.882 134.992 227.513 136.388 227.296 132.459C227.11 129.069 220.077 130.422 217.403 131.97Z" fill="#B6CDEF"/>
<path d="M210.989 191.661C210.81 192.993 209.564 194.083 208.219 194.083H187.301C185.955 194.083 184.733 192.99 184.584 191.655L182.07 169.168C181.92 167.833 182.899 166.74 184.244 166.74H211.887C213.232 166.74 214.186 167.83 214.008 169.163L210.989 191.661Z" fill="#29AEE9"/>
<path opacity="0.1" d="M211.887 166.74H206.864C207.62 174.563 206.007 186.239 192.52 194.084H208.219C209.564 194.084 210.81 192.993 210.989 191.662L214.008 169.163C214.186 167.83 213.231 166.74 211.887 166.74Z" fill="#114068"/>
<path d="M217.225 168.88C217.225 170.638 215.799 172.062 214.041 172.062H182.042C180.284 172.062 178.857 170.638 178.857 168.88C178.857 167.122 180.284 165.698 182.042 165.698H214.041C215.8 165.698 217.225 167.122 217.225 168.88Z" fill="#29AEE9"/>
<path d="M52.1786 193.044C51.7711 193.044 51.3625 193.007 50.962 192.931C46.5647 192.101 43.845 186.889 44.8986 181.31C45.8544 176.255 49.5011 172.586 53.5702 172.586C53.9776 172.586 54.3862 172.623 54.7861 172.699C59.184 173.529 61.9037 178.742 60.8502 184.32C59.8943 189.375 56.2471 193.044 52.1786 193.044ZM53.5702 175.414C50.9048 175.414 48.3724 178.175 47.6806 181.836C46.9166 185.881 48.6244 189.61 51.488 190.151C51.7151 190.194 51.9468 190.215 52.1786 190.215C54.8439 190.215 57.3763 187.456 58.0681 183.795C58.8321 179.749 57.1244 176.019 54.2614 175.479C54.0337 175.436 53.8013 175.414 53.5702 175.414Z" fill="#29AEE9"/>
<path d="M51.9439 170.198H30.6974C30.6974 170.198 27.8662 186.85 36.265 194.083H40.808H41.8332H46.3762C54.7756 186.85 51.9439 170.198 51.9439 170.198Z" fill="#29AEE9"/>
<path opacity="0.1" d="M41.8346 194.083H46.3775C54.777 186.851 51.9452 170.199 51.9452 170.199H46.2937C44.6386 176.363 40.9463 185.872 33.293 190.433C34.0801 191.792 35.0521 193.037 36.2663 194.083H40.8093H41.8346Z" fill="#114068"/>
<path d="M38.0191 168.454C38.0191 168.454 35.1151 166.517 35.819 163.881C36.5235 161.243 39.9349 156.463 36.8644 153.241C36.8644 153.241 41.8039 155.878 40.2198 159.66C38.6352 163.441 36.6992 165.025 38.0191 168.454Z" fill="#CEDDF4"/>
<path d="M45.5562 164.797C45.5562 164.797 42.6522 162.861 43.3561 160.225C44.0606 157.587 47.472 152.806 44.4016 149.584C44.4016 149.584 49.341 152.222 47.7564 156.004C46.1723 159.784 44.2357 161.368 45.5562 164.797Z" fill="#CEDDF4"/>
<path d="M51.9432 170.198C51.9432 171.357 47.1535 172.297 41.246 172.297C35.3386 172.297 30.5488 171.357 30.5488 170.198C30.5488 169.039 35.3386 168.1 41.246 168.1C47.1535 168.1 51.9432 169.04 51.9432 170.198Z" fill="#29AEE9"/>
<path d="M31.9922 171.247C33.8421 171.873 37.2894 172.297 41.2463 172.297C45.2039 172.297 48.6506 171.873 50.5005 171.247C48.6506 170.621 45.2039 170.199 41.2463 170.199C37.2894 170.199 33.8427 170.621 31.9922 171.247Z" fill="#AF622E"/>
<path d="M153.528 14.0247L151.775 8.09503L150.021 14.0247L144.598 15.8881L150.021 17.752L151.775 23.6805L153.528 17.752L158.952 15.8881L153.528 14.0247Z" fill="#C4E9FD"/>
<path d="M162.172 79.4224L160.982 75.4023L159.793 79.4224L156.115 80.6864L159.793 81.951L160.982 85.9705L162.172 81.951L165.849 80.6864L162.172 79.4224Z" fill="white"/>
<path d="M180.503 73.7111L179.883 71.6133L179.262 73.7111L177.344 74.3699L179.262 75.0294L179.883 77.1278L180.503 75.0294L182.422 74.3699L180.503 73.7111Z" fill="white"/>
<path d="M218.442 102.255L217.225 98.1433L216.009 102.255L212.248 103.547L216.009 104.839L217.225 108.951L218.442 104.839L222.202 103.547L218.442 102.255Z" fill="#C4E9FD"/>
<path d="M192.92 119.217L191.545 114.565L190.168 119.217L185.914 120.678L190.168 122.141L191.545 126.791L192.92 122.141L197.174 120.678L192.92 119.217Z" fill="white"/>
<path d="M161.603 115.426L160.983 113.328L160.363 115.426L158.443 116.086L160.363 116.745L160.983 118.843L161.603 116.745L163.522 116.086L161.603 115.426Z" fill="white"/>
<path d="M204.674 44.3422L203.977 41.9886L203.281 44.3422L201.129 45.0825L203.281 45.8216L203.977 48.1752L204.674 45.8216L206.827 45.0825L204.674 44.3422Z" fill="#C4E9FD"/>
<path d="M70.9863 2.35419L70.2911 0L69.5941 2.35419L67.4414 3.09388L69.5941 3.833L70.2911 6.18719L70.9863 3.833L73.1396 3.09388L70.9863 2.35419Z" fill="#C4E9FD"/>
<path d="M183.341 6.02599L182.126 1.91467L180.91 6.02599L177.148 7.31829L180.91 8.61116L182.126 12.7219L183.341 8.61116L187.102 7.31829L183.341 6.02599Z" fill="#C4E9FD"/>
<path d="M94.105 14.43L92.8897 10.3181L91.6732 14.43L87.9121 15.7222L91.6732 17.0145L92.8897 21.1259L94.105 17.0145L97.8661 15.7222L94.105 14.43Z" fill="#C4E9FD"/>
<path d="M38.127 20.3861L37.4312 18.0325L36.7348 20.3861L34.582 21.1258L36.7348 21.865L37.4312 24.2186L38.127 21.865L40.2797 21.1258L38.127 20.3861Z" fill="#C4E9FD"/>
<path d="M15.5581 67.2917L13.8052 61.3621L12.0507 67.2917L6.62695 69.1551L12.0507 71.019L13.8052 76.9475L15.5581 71.019L20.9812 69.1551L15.5581 67.2917Z" fill="#C4E9FD"/>
<path d="M82.9854 58.5498L81.0719 52.079L79.1567 58.5498L73.2383 60.5829L79.1567 62.6183L81.0719 69.0873L82.9854 62.6183L88.9032 60.5829L82.9854 58.5498Z" fill="white"/>
<path d="M31.7362 96.6241L30.5475 92.604L29.357 96.6241L25.6797 97.8887L29.357 99.1527L30.5475 103.172L31.7362 99.1527L35.4141 97.8887L31.7362 96.6241Z" fill="white"/>
<path d="M76.8925 115.426L76.2718 113.328L75.6517 115.426L73.7324 116.086L75.6517 116.745L76.2718 118.843L76.8925 116.745L78.8111 116.086L76.8925 115.426Z" fill="white"/>
<path d="M61.6913 143.525L60.5025 139.504L59.3126 143.525L55.6348 144.788L59.3126 146.053L60.5025 150.072L61.6913 146.053L65.3686 144.788L61.6913 143.525Z" fill="white"/>
<path d="M6.19409 135.969L4.97816 131.857L3.76223 135.969L0 137.262L3.76223 138.555L4.97816 142.665L6.19409 138.555L9.95401 137.262L6.19409 135.969Z" fill="#C4E9FD"/>
<path d="M10.6738 154.099L9.97803 151.744L9.28106 154.099L7.12891 154.838L9.28106 155.577L9.97803 157.931L10.6738 155.577L12.826 154.838L10.6738 154.099Z" fill="#C4E9FD"/>
<path d="M236.24 148.779L235.024 144.668L233.809 148.779L230.047 150.072L233.809 151.364L235.024 155.476L236.24 151.364L240.001 150.072L236.24 148.779Z" fill="#C4E9FD"/>
</svg>
